<svg width="923" height="619" viewBox="0 0 923 619" fill="none" xmlns="http://www.w3.org/2000/svg">
<path d="M77.2528 295.157C81.1849 277.807 70.3423 260.546 53.0353 256.605C35.7283 252.663 18.5107 263.532 14.5786 280.882C10.6465 298.232 21.4891 315.492 38.7961 319.434C56.1031 323.376 73.3207 312.507 77.2528 295.157Z" fill="#F2F2F4"/>
<path d="M858.468 271.183C891.436 271.183 918.162 244.391 918.162 211.342C918.162 178.292 891.436 151.5 858.468 151.5C825.5 151.5 798.774 178.292 798.774 211.342C798.774 244.391 825.5 271.183 858.468 271.183Z" fill="#F2F2F4"/>
<path d="M276.52 69.7422C280.86 39.9245 260.265 12.2261 230.521 7.87615C200.777 3.52621 173.147 24.172 168.807 53.9897C164.468 83.8074 185.063 111.506 214.807 115.856C244.551 120.206 272.181 99.56 276.52 69.7422Z" fill="#F2F2F4"/>
<path d="M81.0854 618.25H846.529C892.931 580.924 922.635 523.625 922.635 459.351C922.635 359.355 850.73 276.202 755.935 258.993C756.299 254.378 756.494 249.71 756.494 245.004C756.494 148.814 678.711 70.8511 582.772 70.8511C512.284 70.8511 451.602 112.936 424.356 173.416C413.939 171.017 403.08 169.752 391.934 169.752C375.639 169.752 359.968 172.464 345.35 177.444C318.325 151.383 281.599 135.36 241.14 135.36C158.102 135.36 90.7872 202.841 90.7872 286.085C90.7872 310.517 96.5875 333.58 106.888 353.996C57.0909 381.153 23.2905 434.072 23.2905 494.904C23.2905 544.511 45.7764 588.864 81.0984 618.263L81.0854 618.25Z" fill="#F2F2F4"/>
<path d="M479.005 106.899H187.599C179.705 106.899 173.306 113.314 173.306 121.227V320.894C173.306 328.808 179.705 335.222 187.599 335.222H479.005C486.899 335.222 493.298 328.808 493.298 320.894V121.227C493.298 113.314 486.899 106.899 479.005 106.899Z" fill="white" stroke="#D8D7E2" stroke-width="0.75" stroke-linecap="round" stroke-linejoin="round"/>
<path d="M482.113 106.899H184.491C178.313 106.899 173.306 112.558 173.306 119.546V125.869H493.298V119.546C493.298 112.558 488.291 106.899 482.113 106.899Z" fill="#D8D7E2" stroke="#D8D7E2" stroke-width="0.75" stroke-miterlimit="10"/>
<path d="M189.29 116.377C189.29 118.58 187.521 120.367 185.336 120.367C183.152 120.367 181.383 118.58 181.383 116.377C181.383 114.174 183.152 112.388 185.336 112.388C187.521 112.388 189.29 114.174 189.29 116.377Z" stroke="#C4C1D2" stroke-width="0.75" stroke-miterlimit="10"/>
<path d="M200.24 120.367C202.423 120.367 204.193 118.58 204.193 116.377C204.193 114.174 202.423 112.388 200.24 112.388C198.056 112.388 196.286 114.174 196.286 116.377C196.286 118.58 198.056 120.367 200.24 120.367Z" stroke="#C4C1D2" stroke-width="0.75" stroke-miterlimit="10"/>
<path d="M219.085 116.377C219.085 118.58 217.316 120.367 215.131 120.367C212.946 120.367 211.178 118.58 211.178 116.377C211.178 114.174 212.946 112.388 215.131 112.388C217.316 112.388 219.085 114.174 219.085 116.377Z" stroke="#C4C1D2" stroke-width="0.75" stroke-miterlimit="10"/>
<path d="M199.122 145.464H351.217C352.816 145.464 354.104 144.16 354.104 142.57C354.104 140.966 352.803 139.675 351.217 139.675H199.122C197.522 139.675 196.234 140.979 196.234 142.57C196.234 144.173 197.535 145.464 199.122 145.464Z" fill="#C4C1D2"/>
<path d="M203.322 153.69H310.927C311.681 153.69 312.292 153.078 312.292 152.322C312.292 151.565 311.681 150.953 310.927 150.953H203.322C202.568 150.953 201.957 151.565 201.957 152.322C201.957 153.078 202.568 153.69 203.322 153.69Z" fill="#D8D7E2"/>
<path d="M203.322 160.47H329.173C329.927 160.47 330.538 159.857 330.538 159.101C330.538 158.345 329.927 157.732 329.173 157.732H203.322C202.568 157.732 201.957 158.345 201.957 159.101C201.957 159.857 202.568 160.47 203.322 160.47Z" fill="#D8D7E2"/>
<path d="M203.322 167.249H273.797C274.551 167.249 275.162 166.636 275.162 165.88C275.162 165.124 274.551 164.511 273.797 164.511H203.322C202.568 164.511 201.957 165.124 201.957 165.88C201.957 166.636 202.568 167.249 203.322 167.249Z" fill="#D8D7E2"/>
<path d="M430.392 164.59H399.999V315.523H430.392V164.59Z" fill="#D8D7E2"/>
<path d="M347.575 238.316H317.182V315.523H347.575V238.316Z" fill="#D8D7E2"/>
<path d="M388.983 211.38H358.59V315.523H388.983V211.38Z" fill="#F2F2F4"/>
<path d="M264.758 191.733H234.365V315.523H264.758V191.733Z" fill="#D8D7E2"/>
<path d="M223.337 283.711H192.944V315.523H223.337V283.711Z" fill="#F2F2F4"/>
<path d="M306.166 257.194H275.773V315.523H306.166V257.194Z" fill="#F2F2F4"/>
<path d="M178.209 315.523H453.71" stroke="#C4C1D2" stroke-width="0.75" stroke-miterlimit="10" stroke-linecap="round"/>
<path d="M143.81 492.583C126.838 484.435 100.477 535.88 100.477 535.88C100.477 535.88 130.532 473.418 114.132 466.743C97.7329 460.068 79.3827 537.106 79.3827 537.106C79.3827 537.106 98.4482 452.897 84.9618 449.455C71.4755 446.014 65.8963 537.106 65.8963 537.106C65.8963 537.106 60.7853 445.44 43.5795 452.715C26.3737 459.99 51.2915 537.106 51.2915 537.106C51.2915 537.106 20.7945 453.836 10.5594 466.743C4.19993 474.774 23.0834 511.526 33.7476 532.79C23.2265 522.699 5.77356 507.302 1.49486 513.795C-5.29382 524.094 32.4991 548.591 32.4991 548.591L48.4434 548.383L111.024 548.07C111.024 548.07 160.808 500.731 143.836 492.583H143.81Z" fill="#C4C1D2"/>
<path d="M81.8801 473.105L70.7217 547.679" stroke="#A3A1AF" stroke-width="0.75" stroke-linecap="round" stroke-linejoin="round"/>
<path d="M83.7393 547.678L102.961 495.425" stroke="#A3A1AF" stroke-width="0.75" stroke-linecap="round" stroke-linejoin="round"/>
<path d="M100.478 548.122C101.557 547.274 124.966 517.484 124.966 517.484" stroke="#A3A1AF" stroke-width="0.75" stroke-linecap="round" stroke-linejoin="round"/>
<path d="M45.9077 468.177L59.0949 548.435" stroke="#A3A1AF" stroke-width="0.75" stroke-linecap="round" stroke-linejoin="round"/>
<path d="M27.9346 501.735L48.4307 548.383" stroke="#A3A1AF" stroke-width="0.75" stroke-linecap="round" stroke-linejoin="round"/>
<path d="M15.8916 526.336L38.1824 548.591" stroke="#A3A1AF" stroke-width="0.75" stroke-linecap="round" stroke-linejoin="round"/>
<path d="M37.6104 556.883L46.779 616.985H65.7405H78.8887H97.8502L107.006 556.883H37.6104Z" fill="#D8D7E2"/>
<path d="M112.611 547.718H32.0182C29.0949 547.718 26.7251 550.094 26.7251 553.024V553.989C26.7251 556.92 29.0949 559.295 32.0182 559.295H112.611C115.534 559.295 117.904 556.92 117.904 553.989V553.024C117.904 550.094 115.534 547.718 112.611 547.718Z" fill="#D8D7E2"/>
<path d="M33.7349 559.282H109.711" stroke="#A3A1AF" stroke-width="0.75" stroke-linecap="round" stroke-linejoin="round"/>
<path d="M385.329 247.441C385.329 247.441 354.493 212.253 350.475 205.578C346.456 198.916 354.532 184.275 364.924 186.778C375.315 189.282 393.327 208.929 404.55 225.03L385.329 247.428V247.441Z" fill="white" stroke="#020046" stroke-width="0.75" stroke-miterlimit="10"/>
<path d="M345.272 200.859C345.272 200.859 341.254 198.916 340.213 195.513C339.173 192.111 341.735 189.868 347.483 192.723C353.232 195.579 345.272 200.859 345.272 200.859Z" fill="white" stroke="#020046" stroke-width="0.75" stroke-linecap="round" stroke-linejoin="round"/>
<path d="M342.255 192.724C342.255 192.724 339.693 190.742 339.993 187.887C340.292 185.031 342.984 183.089 348.537 187.6C354.077 192.111 348.953 197.274 348.953 197.274L342.268 192.724H342.255Z" fill="white" stroke="#020046" stroke-width="0.75" stroke-linecap="round" stroke-linejoin="round"/>
<path d="M359.995 174.106H357.446H341.592L345.897 215.304H357.446H359.995H371.543L375.835 174.106H359.995Z" fill="white" stroke="#020046" stroke-width="0.75" stroke-linecap="round" stroke-linejoin="round"/>
<path d="M344.688 203.766H372.74L374.951 182.633H342.49L344.688 203.766Z" fill="#651FFF" stroke="#020046" stroke-width="0.75" stroke-linecap="round" stroke-linejoin="round"/>
<path d="M372.57 162.542H345.169C344.113 162.542 343.257 163.4 343.257 164.458V168.07C343.257 169.128 344.113 169.986 345.169 169.986H372.57C373.626 169.986 374.482 169.128 374.482 168.07V164.458C374.482 163.4 373.626 162.542 372.57 162.542Z" fill="#020046"/>
<path d="M377.395 167.157H340.357C338.978 167.157 337.86 168.278 337.86 169.66V172.255C337.86 173.637 338.978 174.758 340.357 174.758H377.395C378.775 174.758 379.892 173.637 379.892 172.255V169.66C379.892 168.278 378.775 167.157 377.395 167.157Z" fill="#020046"/>
<path d="M378.748 216.634C368.149 208.511 373.611 204.548 368.461 196.1C365.249 190.846 367.941 186.935 370.854 188.082C373.767 189.229 385.342 201.719 385.342 201.719L378.761 216.634H378.748Z" fill="white"/>
<path d="M385.329 201.719C385.329 201.719 373.754 189.229 370.841 188.082C367.928 186.935 365.236 190.846 368.448 196.1C373.598 204.535 368.136 208.511 378.735 216.634" stroke="#020046" stroke-width="0.75" stroke-linecap="round" stroke-linejoin="round"/>
<path d="M485.416 201.276L423.161 237.924L402.782 214.718L368.929 242.474C368.929 242.474 386.733 303.659 429.377 307.114C472.021 310.568 498.356 259.293 498.356 259.293L485.429 201.289L485.416 201.276Z" fill="#00E5FF"/>
<path d="M409.675 222.566L373.013 251.678" stroke="#020046" stroke-width="0.75" stroke-linecap="round" stroke-linejoin="round"/>
<path d="M436.426 229.581L423.251 237.181" stroke="#020046" stroke-width="0.75" stroke-linecap="round" stroke-linejoin="round"/>
<path d="M429.364 244.991L402.769 214.705L368.917 242.462C368.917 242.462 386.721 303.646 429.364 307.101C472.008 310.556 498.344 259.28 498.344 259.28" stroke="#020046" stroke-width="0.75" stroke-linecap="round" stroke-linejoin="round"/>
<path d="M490.358 244.287C490.358 244.287 487.575 220.911 488.732 214.118C489.89 207.339 493.596 199.438 499.514 199.086C505.418 198.734 520.257 199.203 523.04 203.036C525.823 206.869 531.272 212.097 529.295 225.813C527.332 239.528 518.865 289.683 518.865 289.683L512.805 304.363H502.063L490.345 244.3L490.358 244.287Z" fill="white"/>
<path d="M506.238 196.035V284.741" stroke="#020046" stroke-width="0.75" stroke-linecap="round" stroke-linejoin="round"/>
<path d="M506.238 202.815L496.458 217.768L488.459 200.337C488.459 200.337 496.132 192.372 499.098 191.837C502.063 191.303 514.834 191.159 514.834 191.159C514.834 191.159 521.688 196.531 524.432 199.425C527.176 202.319 515.653 218.811 515.653 218.811L506.238 202.802V202.815Z" fill="white" stroke="#020046" stroke-width="0.75" stroke-linecap="round" stroke-linejoin="round"/>
<path d="M451.681 558.239L460.173 367.229L504.469 363.696L489.604 559.634L451.681 558.239Z" fill="white" stroke="#020046" stroke-width="0.75" stroke-linecap="round" stroke-linejoin="round"/>
<path d="M490.046 556.114L488.98 617.637L479.824 617.846L479.551 599.528L451.681 618.497L424.227 618.745C420.703 619.006 418.869 614.638 421.522 612.305L446.544 590.206L451.122 556.753L490.072 556.114H490.046Z" fill="#020046"/>
<path d="M450.419 564.171L489.916 563.584" stroke="white" stroke-width="0.75" stroke-linecap="round" stroke-linejoin="round"/>
<path d="M441.224 594.939L448.819 597.273" stroke="white" stroke-width="0.75" stroke-linecap="round" stroke-linejoin="round"/>
<path d="M436.309 599.528L444.346 602.488" stroke="white" stroke-width="0.75" stroke-linecap="round" stroke-linejoin="round"/>
<path d="M430.977 603.935L438 606.894" stroke="white" stroke-width="0.75" stroke-linecap="round" stroke-linejoin="round"/>
<path d="M504.43 557.666L512.935 366.656L557.218 363.123L542.353 559.061L504.43 557.666Z" fill="white" stroke="#020046" stroke-width="0.75" stroke-linecap="round" stroke-linejoin="round"/>
<path d="M542.795 555.541L541.144 618.25L532.586 618.498L532.3 599.594L503.702 617.95L476.95 618.185C473.426 618.446 471.592 614.078 474.245 611.745L499.267 589.646L503.845 556.192L542.795 555.554V555.541Z" fill="#020046"/>
<path d="M503.182 563.598L542.665 563.011" stroke="white" stroke-width="0.75" stroke-linecap="round" stroke-linejoin="round"/>
<path d="M493.987 594.366L501.569 596.699" stroke="white" stroke-width="0.75" stroke-linecap="round" stroke-linejoin="round"/>
<path d="M489.071 598.955L497.095 601.915" stroke="white" stroke-width="0.75" stroke-linecap="round" stroke-linejoin="round"/>
<path d="M483.739 603.361L490.749 606.321" stroke="white" stroke-width="0.75" stroke-linecap="round" stroke-linejoin="round"/>
<path d="M455.101 339.759L453.28 448.204L555.709 451.02L567.114 339.798L455.101 339.759Z" fill="#651FFF"/>
<path d="M522.298 197.339L566.178 223.622L567.387 286.906L575.463 390.866C575.463 390.866 565.943 396.706 548.673 394.607C543.106 393.929 537.241 393.343 529.971 390.279C500.15 377.685 505.248 360.997 505.248 360.997L505.326 266.568C505.326 266.568 527.734 215.474 522.298 197.326V197.339Z" fill="#00E5FF"/>
<path d="M504.521 296.488L505.34 367.333C505.34 367.333 508.201 385.559 537.723 392.561C567.244 399.562 575.49 390.866 575.49 390.866C575.49 390.866 565.333 270.036 566.425 263.804" stroke="#020046" stroke-width="0.75" stroke-linecap="round" stroke-linejoin="round"/>
<path d="M564.409 348.651C556.437 344.883 548.608 340.854 540.961 336.578" stroke="#020046" stroke-width="0.75" stroke-linecap="round" stroke-linejoin="round"/>
<path d="M535.29 212.593C543.652 228.355 545.083 235.304 545.083 235.304H530.114L537.462 253.608L505.326 296.488" stroke="#020046" stroke-width="0.75" stroke-linecap="round" stroke-linejoin="round"/>
<path d="M491.437 197.338L451.225 223.622V285.888L442.707 390.878C442.707 390.878 450.51 396.836 466.311 394.75C471.422 394.072 477.717 393.368 484.402 390.291C511.738 377.697 507.069 361.009 507.069 361.009L507.004 266.58C507.004 266.58 486.469 215.486 491.45 197.338H491.437Z" fill="#00E5FF"/>
<path d="M502.231 298.665C502.231 300.139 501.126 301.325 499.761 301.325C498.395 301.325 497.29 300.139 497.29 298.665C497.29 297.192 498.395 296.006 499.761 296.006C501.126 296.006 502.231 297.192 502.231 298.665Z" stroke="#020046" stroke-width="0.75" stroke-linecap="round" stroke-linejoin="round"/>
<path d="M502.231 318.235C502.231 319.708 501.126 320.894 499.761 320.894C498.395 320.894 497.29 319.708 497.29 318.235C497.29 316.762 498.395 315.575 499.761 315.575C501.126 315.575 502.231 316.762 502.231 318.235Z" stroke="#020046" stroke-width="0.75" stroke-linecap="round" stroke-linejoin="round"/>
<path d="M502.231 337.816C502.231 339.29 501.126 340.476 499.761 340.476C498.395 340.476 497.29 339.29 497.29 337.816C497.29 336.343 498.395 335.157 499.761 335.157C501.126 335.157 502.231 336.343 502.231 337.816Z" stroke="#020046" stroke-width="0.75" stroke-linecap="round" stroke-linejoin="round"/>
<path d="M450.939 282.199C451.954 288.431 442.707 390.879 442.707 390.879C442.707 390.879 450.263 399.562 477.314 392.573C504.377 385.572 506.991 367.346 506.991 367.346L506.224 264.495" stroke="#020046" stroke-width="0.75" stroke-linecap="round" stroke-linejoin="round"/>
<path d="M452.318 348.651C459.627 344.883 466.793 340.854 473.802 336.578" stroke="#020046" stroke-width="0.75" stroke-linecap="round" stroke-linejoin="round"/>
<path d="M479.525 212.593C471.852 228.355 470.551 235.304 470.551 235.304H485.117L477.535 253.608L506.458 294.493" stroke="#020046" stroke-width="0.75" stroke-linecap="round" stroke-linejoin="round"/>
<path d="M522.298 197.339C527.097 213.336 510.256 254.912 506.198 264.56C502.479 254.912 487.042 213.336 491.437 197.339" stroke="#020046" stroke-width="0.75" stroke-linecap="round" stroke-linejoin="round"/>
<path d="M526.486 142.791C522.715 138.28 519.815 136.533 514.899 133.886L515.315 141.448C505.21 140.757 490.514 140.796 484.896 146.024C475.961 154.342 473.789 181.094 480.435 186.01C485.078 189.451 526.993 193.767 534.966 182.229C544.251 168.8 530.232 146.676 526.499 142.778L526.486 142.791Z" fill="white" stroke="#020046" stroke-width="0.75" stroke-linecap="round" stroke-linejoin="round"/>
<path d="M519.021 160.756C517.37 160.756 515.835 161.278 514.586 162.164C515.432 145.516 507.538 143.547 493.557 144.342C479.616 144.72 481.983 162.477 481.905 172.321C482.139 182.985 490.072 186.583 498.915 185.553C498.967 190.416 497.446 199.49 504.807 199.529C509.137 200.012 514.521 199.008 514.56 193.611C514.547 188.591 514.677 179.517 514.599 174.498C525.927 181.368 532.299 161.734 519.008 160.756H519.021Z" fill="white" stroke="#020046" stroke-width="0.75" stroke-linecap="round" stroke-linejoin="round"/>
<path d="M519.268 136.259C515.783 133.482 511.335 131.97 506.25 132.426C471.006 121.188 468.821 169.257 501.646 151.135C502.661 155.763 507.147 160.796 511.27 162.517L513.988 167.758L514.495 162.79C516.433 160.6 521.05 159.935 523.82 162.451C529.646 151.5 519.268 136.246 519.268 136.246V136.259Z" fill="white"/>
<path d="M515.379 169.322C515.379 169.322 515.067 164.185 520.321 164.772" stroke="#020046" stroke-width="0.75" stroke-linecap="round" stroke-linejoin="round"/>
<path d="M520.179 136.963C516.693 134.186 511.348 131.983 506.25 132.439C471.006 121.201 468.821 169.27 501.646 151.148C502.661 155.776 507.147 160.808 511.27 162.529L513.988 167.77L514.495 162.803C516.433 160.613 521.05 159.948 523.82 162.464" stroke="#020046" stroke-width="0.75" stroke-linecap="round" stroke-linejoin="round"/>
<path d="M527.358 133.886C534.72 133.886 540.688 128.178 540.688 121.136C540.688 114.094 534.72 108.385 527.358 108.385C519.996 108.385 514.027 114.094 514.027 121.136C514.027 128.178 519.996 133.886 527.358 133.886Z" stroke="#020046" stroke-width="0.75" stroke-linecap="round" stroke-linejoin="round"/>
<path d="M491.529 168.774L487.575 166.336L491.061 160.443" stroke="#020046" stroke-width="0.75" stroke-linecap="round" stroke-linejoin="round"/>
<path d="M502.18 159.622L498.343 158.057" stroke="#020046" stroke-linecap="round" stroke-linejoin="round"/>
<path d="M485.793 158.24L482.113 158.775" stroke="#020046" stroke-linecap="round" stroke-linejoin="round"/>
<path d="M500.411 162.972C500.411 163.95 499.618 164.745 498.643 164.745C497.667 164.745 496.874 163.95 496.874 162.972C496.874 161.994 497.667 161.199 498.643 161.199C499.618 161.199 500.411 161.994 500.411 162.972Z" fill="#020046"/>
<path d="M485.572 162.438C485.572 163.272 484.896 163.963 484.05 163.963C483.205 163.963 482.529 163.285 482.529 162.438C482.529 161.591 483.205 160.913 484.05 160.913C484.896 160.913 485.572 161.591 485.572 162.438Z" fill="#020046"/>
<path d="M487.263 174.328C487.263 176.231 488.797 177.783 490.696 177.796C492.595 177.796 494.142 176.257 494.155 174.354L487.263 174.328Z" stroke="#020046" stroke-width="0.75" stroke-linecap="round" stroke-linejoin="round"/>
<path d="M528.62 201.12L557.426 261.913L557.582 262.083L538.92 264.39C538.92 264.39 536.54 289.266 540.649 315.562C542.86 329.72 572.85 351.936 592.904 321.051C612.958 290.165 592.852 217.691 528.62 201.12Z" fill="#00E5FF"/>
<path d="M538.308 276.437L578.923 270.492" stroke="#020046" stroke-width="0.75" stroke-linecap="round" stroke-linejoin="round"/>
<path d="M586.571 294.011L575.477 259.879L538.933 264.403C538.933 264.403 536.553 289.279 540.663 315.575C542.874 329.733 572.863 351.949 592.917 321.064C600.148 309.93 602.151 293.385 598.757 276.02" stroke="#020046" stroke-width="0.75" stroke-linecap="round" stroke-linejoin="round"/>
<path d="M534.706 217.703C534.706 217.703 530.83 213.153 528.086 214.078C525.342 215.004 525.472 219.789 530.232 224.704C535.005 229.619 534.706 217.716 534.706 217.716V217.703Z" fill="white" stroke="#020046" stroke-width="0.75" stroke-linecap="round" stroke-linejoin="round"/>
<path d="M546.151 208.89L543.693 208.786L528.386 208.173L530.948 248.119L542.093 248.576L544.551 248.667L555.697 249.123L561.458 209.503L546.151 208.89Z" fill="white" stroke="#020046" stroke-width="0.75" stroke-linecap="round" stroke-linejoin="round"/>
<path d="M530.232 236.933L557.309 238.028L560.261 217.703L528.919 216.438L530.232 236.933Z" fill="#651FFF" stroke="#020046" stroke-width="0.75" stroke-linecap="round" stroke-linejoin="round"/>
<path d="M558.763 198.174L532.306 197.108C531.287 197.067 530.427 197.862 530.386 198.884L530.246 202.375C530.206 203.397 530.998 204.258 532.018 204.299L558.475 205.365C559.494 205.406 560.353 204.611 560.394 203.589L560.534 200.098C560.575 199.076 559.782 198.215 558.763 198.174Z" fill="#020046"/>
<path d="M563.263 202.81L527.475 201.369C526.148 201.316 525.028 202.351 524.975 203.682L524.874 206.197C524.821 207.528 525.854 208.65 527.181 208.703L562.969 210.144C564.296 210.198 565.416 209.162 565.469 207.831L565.57 205.317C565.623 203.986 564.59 202.864 563.263 202.81Z" fill="#020046"/>
<path d="M562.953 232.162C562.953 232.162 563.59 219.646 561.171 216.973C558.765 214.287 548.361 211.68 546.085 213.714C543.809 215.761 545.331 219.633 549.297 220.311C553.264 220.989 553.537 221.484 553.537 221.484L554.59 229.007L562.94 232.175L562.953 232.162Z" fill="white" stroke="#020046" stroke-width="0.75" stroke-linecap="round" stroke-linejoin="round"/>
<path d="M533.067 230.87C533.496 229.515 534.212 228.159 538.529 228.354L538.49 228.237C534.706 226.151 535.46 223.244 537.008 221.875C539.414 219.737 548.517 221.953 553.017 223.009C557.517 224.065 563.447 230.505 563.447 230.505C563.447 230.505 566.789 233.1 567.427 252.773L567.193 260.922L549.024 263.034C549.024 263.034 548.387 258.158 547.074 255.785C545.747 253.399 545.266 249.397 545.214 247.584L545.149 247.415C538.36 245.016 533.379 241.352 534.081 238.497C534.485 236.829 535.213 235.929 537.606 236.072H537.567C533.574 234.247 532.534 232.67 533.08 230.897L533.067 230.87Z" fill="white"/>
<path d="M538.49 228.224C534.706 226.138 535.46 223.231 537.007 221.862C539.413 219.724 548.517 221.94 553.017 222.996C557.517 224.052 563.447 230.493 563.447 230.493C563.447 230.493 566.789 233.087 567.427 252.76L567.192 260.909L549.024 263.021C549.024 263.021 548.387 258.145 547.073 255.772C545.747 253.386 545.266 249.384 545.214 247.572" stroke="#020046" stroke-width="0.75" stroke-linecap="round" stroke-linejoin="round"/>
<path d="M556.632 234.104C556.632 234.104 552.705 230.74 543.679 229.019C534.654 227.298 533.613 229.097 533.067 230.87C532.508 232.643 533.561 234.221 537.554 236.033" stroke="#020046" stroke-width="0.75" stroke-linecap="round" stroke-linejoin="round"/>
<path d="M553.641 241.157C553.641 241.157 545.916 237.989 541.729 236.842C535.85 235.251 534.654 236.086 534.069 238.471C533.197 242.031 541.13 246.854 550.429 248.901" stroke="#020046" stroke-width="0.75" stroke-linecap="round" stroke-linejoin="round"/>
<path d="M715.945 564.601H727.988V486.181H715.945V564.601Z" fill="white" stroke="#A3A1AF" stroke-width="0.75" stroke-miterlimit="10"/>
<path d="M718.26 589.632H725.66C728.741 589.632 731.239 587.128 731.239 584.039V528.253C731.239 525.164 728.741 522.659 725.66 522.659H718.26C715.179 522.659 712.681 525.164 712.681 528.253V584.039C712.681 587.128 715.179 589.632 718.26 589.632Z" fill="#A3A1AF"/>
<path d="M674.407 584.027H677.372H766.548H773.558V592.084V601.158H766.548V592.084H677.372V601.158H670.362V592.084V584.027H674.407Z" fill="#A3A1AF"/>
<path d="M663.041 607.089C663.041 613.048 667.852 617.871 673.796 617.871C679.739 617.871 684.551 613.048 684.551 607.089C684.551 601.131 679.739 596.308 673.796 596.308C667.852 596.308 663.041 601.131 663.041 607.089Z" fill="white" stroke="#A3A1AF" stroke-width="0.75" stroke-miterlimit="10"/>
<path d="M669.673 607.089C669.673 609.371 671.52 611.222 673.795 611.222C676.071 611.222 677.918 609.371 677.918 607.089C677.918 604.808 676.071 602.957 673.795 602.957C671.52 602.957 669.673 604.808 669.673 607.089Z" fill="#A3A1AF"/>
<path d="M759.668 607.089C759.668 613.048 764.48 617.871 770.424 617.871C776.367 617.871 781.179 613.048 781.179 607.089C781.179 601.131 776.367 596.308 770.424 596.308C764.48 596.308 759.668 601.131 759.668 607.089Z" fill="white" stroke="#A3A1AF" stroke-width="0.75" stroke-miterlimit="10"/>
<path d="M766.301 607.089C766.301 609.371 768.148 611.222 770.424 611.222C772.7 611.222 774.547 609.371 774.547 607.089C774.547 604.808 772.7 602.957 770.424 602.957C768.148 602.957 766.301 604.808 766.301 607.089Z" fill="#A3A1AF"/>
<path d="M721.498 347.621L786.563 347.96C793.677 347.999 799.269 354.074 798.749 361.193L789.008 491.866C788.527 498.398 783.026 503.391 776.497 503.261L628.004 500.092C620.89 499.936 615.389 493.769 616.04 486.664C616.612 480.328 621.918 475.465 628.264 475.465L688.998 473.992C695.969 473.992 707.648 469.794 707.375 462.806L709.156 360.397C708.883 353.396 714.501 347.569 721.485 347.608L721.498 347.621Z" fill="white" stroke="#C4C1D2" stroke-width="0.75" stroke-miterlimit="10" stroke-linecap="round"/>
<path d="M780.243 361.923L765.3 472.362" stroke="#C4C1D2" stroke-width="0.75" stroke-miterlimit="10" stroke-linecap="round"/>
<path d="M702.979 471.528C703.148 471.319 745.857 471.528 745.857 471.528" stroke="#C4C1D2" stroke-width="0.75" stroke-miterlimit="10" stroke-linecap="round"/>
<path d="M556.072 536.871L551.56 582.54L583.279 585.695L587.987 540.039L556.072 536.871Z" fill="white" stroke="#020046" stroke-width="0.75" stroke-linecap="round" stroke-linejoin="round"/>
<path d="M560.455 537.3L555.942 582.983" stroke="#020046" stroke-width="0.75" stroke-linecap="round" stroke-linejoin="round"/>
<path d="M565.865 537.835L562.627 583.636" stroke="#020046" stroke-width="0.75" stroke-linecap="round" stroke-linejoin="round"/>
<path d="M571.353 538.383L568.245 583.766" stroke="#020046" stroke-width="0.75" stroke-linecap="round" stroke-linejoin="round"/>
<path d="M576.972 538.943L573.278 584.261" stroke="#020046" stroke-width="0.75" stroke-linecap="round" stroke-linejoin="round"/>
<path d="M582.811 539.517L579.066 586.06" stroke="#020046" stroke-width="0.75" stroke-linecap="round" stroke-linejoin="round"/>
<path d="M496.951 617.833L592.058 618.25L589.691 574.666L544.758 576.491L539.517 593.14L496.951 617.833Z" fill="white" stroke="#020046" stroke-width="0.75" stroke-linecap="round" stroke-linejoin="round"/>
<path d="M523.052 598.825L528.163 608.524" stroke="#020046" stroke-width="0.75" stroke-linecap="round" stroke-linejoin="round"/>
<path d="M530.595 595.239L535.693 604.939" stroke="#020046" stroke-width="0.75" stroke-linecap="round" stroke-linejoin="round"/>
<path d="M511.309 614.117H580.652" stroke="#020046" stroke-width="0.75" stroke-linecap="round" stroke-linejoin="round"/>
<path d="M610.447 538.122V584.027H642.309L642.517 538.122H610.447Z" fill="white" stroke="#020046" stroke-width="0.75" stroke-linecap="round" stroke-linejoin="round"/>
<path d="M614.855 538.122V584.027" stroke="#020046" stroke-width="0.75" stroke-linecap="round" stroke-linejoin="round"/>
<path d="M620.292 538.122L621.566 584.027" stroke="#020046" stroke-width="0.75" stroke-linecap="round" stroke-linejoin="round"/>
<path d="M625.793 538.122L627.158 583.583" stroke="#020046" stroke-width="0.75" stroke-linecap="round" stroke-linejoin="round"/>
<path d="M631.45 538.122L632.23 583.583" stroke="#020046" stroke-width="0.75" stroke-linecap="round" stroke-linejoin="round"/>
<path d="M637.315 538.122L638.16 584.809" stroke="#020046" stroke-width="0.75" stroke-linecap="round" stroke-linejoin="round"/>
<path d="M559.688 617.833L654.795 618.25L650.178 574.757L607.482 576.491L602.241 593.14L559.688 617.833Z" fill="white" stroke="#020046" stroke-width="0.75" stroke-linecap="round" stroke-linejoin="round"/>
<path d="M585.789 598.825L590.887 608.524" stroke="#020046" stroke-width="0.75" stroke-linecap="round" stroke-linejoin="round"/>
<path d="M593.333 595.239L598.431 604.939" stroke="#020046" stroke-width="0.75" stroke-linecap="round" stroke-linejoin="round"/>
<path d="M574.033 614.117H643.389" stroke="#020046" stroke-width="0.75" stroke-linecap="round" stroke-linejoin="round"/>
<path d="M618.588 550.104H540.635C540.635 550.104 548.048 423.55 579.065 421.973C616.481 420.082 634.441 421.973 634.441 421.973L618.588 550.104Z" fill="#020046"/>
<path d="M542.365 535.111L620.656 533.403" stroke="white" stroke-width="0.75" stroke-linecap="round" stroke-linejoin="round"/>
<path d="M739.678 417.331H686.435C621.019 412.663 595.061 428.465 595.061 453.014C595.061 469.61 598.416 557.274 598.416 557.274L656.536 555.553L652.778 475.973C652.778 475.973 694.68 481.644 720.756 474.16C746.831 466.677 739.691 417.331 739.691 417.331H739.678Z" fill="#16004D"/>
<path d="M732.981 465.022C730.081 469.311 726.114 472.623 720.756 474.161C694.681 481.645 652.778 475.973 652.778 475.973" stroke="#00E5FF" stroke-miterlimit="10" stroke-linecap="round"/>
<path d="M656.524 555.54L598.404 557.261C598.404 557.261 595.048 469.611 595.048 453.002C595.048 428.452 621.007 412.651 686.422 417.318" stroke="#00E5FF" stroke-miterlimit="10" stroke-linecap="round"/>
<path d="M652.245 465.022L653.598 493.496" stroke="#00E5FF" stroke-miterlimit="10" stroke-linecap="round"/>
<path d="M689.284 414.659L741.162 414.972C741.162 414.972 747.456 465.543 727.974 473.992C708.493 482.44 652.766 475.973 652.766 475.973" fill="#020046"/>
<path d="M652.766 475.973L659.62 556.153L592.11 557.274C592.11 557.274 583.917 460.654 590.693 442.532C597.468 424.41 605.909 411.373 689.271 414.671" fill="#020046"/>
<path d="M590.926 541.643L658.488 540.378" stroke="white" stroke-width="0.75" stroke-linecap="round" stroke-linejoin="round"/>
<path d="M659.62 556.14L652.766 475.973L652.246 465.022" stroke="white" stroke-width="0.75" stroke-linecap="round" stroke-linejoin="round"/>
<path d="M689.285 414.659C605.909 411.36 597.481 424.398 590.706 442.52C583.93 460.641 592.123 557.261 592.123 557.261" stroke="white" stroke-width="0.75" stroke-linecap="round" stroke-linejoin="round"/>
<path d="M589.989 309.148C599.054 317.4 622.983 343.267 622.983 343.267L642.894 324.01C642.894 324.01 616.13 290.804 611.695 286.906C607.728 283.425 605.179 285.928 605.882 290.257C604.685 289.266 596.843 282.825 592.642 281.704C588.208 280.531 586.998 283.725 587.792 284.703L588.559 284.964L588.442 284.99C587.987 284.781 587.57 284.598 587.193 284.481C582.915 283.086 581.341 286.359 583.435 288.04L583.63 288.106C583.045 288.066 582.537 288.145 582.16 288.418C580.249 289.787 580.743 292.043 582.355 293.086C580.548 292.486 579.559 292.903 578.948 293.777C577.569 295.745 578.389 298.614 589.989 309.174V309.148ZM582.98 293.268L582.954 293.294C582.746 293.216 582.55 293.138 582.368 293.073L582.98 293.268Z" fill="white"/>
<path d="M594.242 301.612C583.747 292.134 580.47 291.913 578.935 293.764C576.724 296.411 581.302 300.504 589.976 309.161C598.651 317.818 622.97 343.28 622.97 343.28L642.881 324.024C642.881 324.024 616.117 290.818 611.682 286.919C607.234 283.021 604.659 287.297 606.324 292.395C607.989 297.493 608.977 299.787 608.977 299.787C608.977 299.787 607.364 306.058 612.111 311.912" stroke="#020046" stroke-width="0.75" stroke-linecap="round" stroke-linejoin="round"/>
<path d="M600.016 298.601C600.016 298.601 585.672 285.902 582.147 288.418C580.235 289.787 580.73 292.043 582.342 293.086" stroke="#020046" stroke-width="0.75" stroke-linecap="round" stroke-linejoin="round"/>
<path d="M602.761 294.428C602.761 294.428 591.628 285.928 587.168 284.468C582.889 283.073 581.315 286.345 583.409 288.027" stroke="#020046" stroke-width="0.75" stroke-linecap="round" stroke-linejoin="round"/>
<path d="M605.674 290.087C605.674 290.087 597.181 282.616 592.63 281.417C588.195 280.244 586.985 283.725 587.779 284.702" stroke="#020046" stroke-width="0.75" stroke-linecap="round" stroke-linejoin="round"/>
<path d="M699.415 354.7L640.111 309.5L608.782 338.873L652.609 404.763L699.415 354.7Z" fill="#651FFF"/>
<path d="M699.415 354.7L640.111 309.5L608.782 338.873L652.609 404.763L699.415 354.7Z" stroke="#020046" stroke-width="0.75" stroke-linecap="round" stroke-linejoin="round"/>
<mask id="mask0_1530_12665" style="mask-type:luminance" maskUnits="userSpaceOnUse" x="613" y="315" width="87" height="90">
<path d="M613.945 346.63L652.609 404.763L699.415 354.7L648.018 315.522L613.945 346.63Z" fill="white"/>
</mask>
<g mask="url(#mask0_1530_12665)">
<path d="M667.929 327.699C666.512 325.769 664.392 324.544 662.038 324.322C657.473 323.879 653.454 327.36 653.064 332.066C652.674 336.773 656.081 340.958 660.646 341.401C663.234 341.649 665.744 340.645 667.487 338.689C668.904 340.619 671.024 341.844 673.378 342.066C677.943 342.509 681.962 339.028 682.352 334.322C682.742 329.615 679.335 325.43 674.77 324.987C672.182 324.739 669.672 325.743 667.929 327.699Z" stroke="white" stroke-width="0.75" stroke-linecap="round" stroke-linejoin="round"/>
<path d="M634.662 345.26C633.244 343.331 631.125 342.105 628.771 341.884C624.206 341.44 620.187 344.921 619.797 349.628C619.407 354.334 622.814 358.519 627.379 358.963C629.967 359.21 632.477 358.207 634.22 356.251C635.637 358.18 637.757 359.406 640.111 359.628C644.676 360.071 648.694 356.59 649.085 351.883C649.475 347.177 646.067 342.992 641.503 342.549C638.915 342.301 636.405 343.305 634.662 345.26Z" stroke="white" stroke-width="0.75" stroke-linecap="round" stroke-linejoin="round"/>
<path d="M626.092 320.515C624.674 318.586 622.554 317.36 620.2 317.139C615.635 316.695 611.617 320.176 611.227 324.883C610.837 329.589 614.244 333.774 618.809 334.218C621.397 334.465 623.907 333.461 625.649 331.506C627.067 333.435 629.187 334.661 631.541 334.882C636.106 335.326 640.124 331.845 640.514 327.138C640.904 322.432 637.497 318.247 632.932 317.804C630.344 317.556 627.834 318.56 626.092 320.515Z" stroke="white" stroke-width="0.75" stroke-linecap="round" stroke-linejoin="round"/>
</g>
<path d="M642.4 320.725L617.599 343.41" stroke="#020046" stroke-width="0.75" stroke-linecap="round" stroke-linejoin="round"/>
<path d="M657.837 419.574C657.837 419.574 662.727 348.546 686.293 318.834C701.145 300.1 713.226 295.628 723.396 296.41C723.396 296.41 750.369 331.389 755.454 377.359C760.539 423.329 758.848 436.197 713.72 434.749C668.593 433.302 657.837 419.574 657.837 419.574Z" fill="#651FFF"/>
<mask id="mask1_1530_12665" style="mask-type:luminance" maskUnits="userSpaceOnUse" x="663" y="306" width="95" height="94">
<path d="M757.327 399.301C757.067 393.004 756.378 385.742 755.454 377.359C752.645 351.962 743.151 329.929 735.231 315.288L697.971 306.423C694.278 309.604 690.402 313.685 686.306 318.847C674.51 333.723 667.383 358.95 663.222 380.449L757.34 399.314L757.327 399.301Z" fill="white"/>
</mask>
<g mask="url(#mask1_1530_12665)">
<path d="M690.78 316.709C689.362 314.78 687.242 313.554 684.888 313.332C680.323 312.889 676.305 316.37 675.915 321.077C675.525 325.783 678.932 329.968 683.497 330.411C686.085 330.659 688.595 329.655 690.337 327.7C691.755 329.629 693.875 330.855 696.229 331.076C700.794 331.52 704.812 328.039 705.202 323.332C705.592 318.626 702.185 314.441 697.62 313.997C695.032 313.75 692.522 314.754 690.78 316.709Z" stroke="white" stroke-width="0.75" stroke-linecap="round" stroke-linejoin="round"/>
<path d="M724.749 343.305C723.331 341.376 721.211 340.15 718.858 339.929C714.293 339.485 710.274 342.966 709.884 347.673C709.494 352.379 712.901 356.564 717.466 357.008C720.054 357.255 722.564 356.251 724.307 354.296C725.724 356.225 727.844 357.451 730.198 357.673C734.763 358.116 738.781 354.635 739.172 349.928C739.562 345.222 736.154 341.037 731.59 340.594C729.002 340.346 726.492 341.35 724.749 343.305Z" stroke="white" stroke-width="0.75" stroke-linecap="round" stroke-linejoin="round"/>
<path d="M674.419 356.421C673.001 354.492 670.881 353.266 668.527 353.044C663.963 352.601 659.944 356.082 659.554 360.789C659.164 365.495 662.571 369.68 667.136 370.123C669.724 370.371 672.234 369.367 673.977 367.412C675.394 369.341 677.514 370.567 679.868 370.788C684.433 371.231 688.451 367.751 688.841 363.044C689.232 358.338 685.824 354.153 681.259 353.709C678.671 353.462 676.161 354.465 674.419 356.421Z" stroke="white" stroke-width="0.75" stroke-linecap="round" stroke-linejoin="round"/>
<path d="M711.887 369.732C710.469 367.803 708.349 366.577 705.995 366.355C701.43 365.912 697.412 369.393 697.022 374.1C696.631 378.806 700.039 382.991 704.604 383.434C707.192 383.682 709.702 382.678 711.444 380.723C712.862 382.652 714.982 383.878 717.336 384.099C721.9 384.543 725.919 381.062 726.309 376.355C726.699 371.649 723.292 367.464 718.727 367.02C716.139 366.773 713.629 367.777 711.887 369.732Z" stroke="white" stroke-width="0.75" stroke-linecap="round" stroke-linejoin="round"/>
</g>
<path d="M657.837 419.574C657.837 419.574 662.727 348.546 686.293 318.834C701.145 300.1 713.226 295.628 723.396 296.41C723.396 296.41 750.369 331.389 755.454 377.359C760.539 423.329 758.848 436.197 713.72 434.749C668.593 433.302 657.837 419.574 657.837 419.574Z" stroke="#020046" stroke-width="0.75" stroke-linecap="round" stroke-linejoin="round"/>
<path d="M654.469 406.432C654.469 406.432 670.791 386.876 672.338 385.181C673.886 383.487 704.253 377.372 704.253 377.372L702.302 409.574L654.469 406.445V406.432Z" fill="white" stroke="#020046" stroke-width="0.75" stroke-linecap="round" stroke-linejoin="round"/>
<path d="M720.041 296.358C727.389 296.045 733.788 298.73 739.51 301.403C752.528 307.505 788.058 329.42 800.998 358.976C813.938 388.532 802.273 408.987 761.879 414.137C721.485 419.287 698.31 409.939 698.31 409.939L700.611 372.978L749.16 370.214L737.507 336.03L720.028 296.332L720.041 296.358Z" fill="#651FFF"/>
<mask id="mask2_1530_12665" style="mask-type:luminance" maskUnits="userSpaceOnUse" x="698" y="303" width="109" height="113">
<path d="M800.998 358.989C789.307 332.302 759.213 311.846 743.893 303.633C738.444 306.605 723.748 312.498 719.404 314.819L736.129 334.479L749.173 370.228L700.625 372.991L698.323 409.952C698.323 409.952 721.498 419.3 761.892 414.15C802.286 409.001 813.964 388.545 801.011 358.989H800.998Z" fill="white"/>
</mask>
<g mask="url(#mask2_1530_12665)">
<path d="M744.608 316.005C743.191 314.076 741.071 312.85 738.717 312.628C734.152 312.185 730.133 315.666 729.743 320.373C729.353 325.079 732.761 329.264 737.325 329.707C739.913 329.955 742.423 328.951 744.166 326.996C745.584 328.925 747.703 330.151 750.057 330.372C754.622 330.815 758.641 327.335 759.031 322.628C759.421 317.922 756.014 313.737 751.449 313.293C748.861 313.046 746.351 314.049 744.608 316.005Z" stroke="white" stroke-width="0.75" stroke-linecap="round" stroke-linejoin="round"/>
<path d="M784.339 333.215C782.922 331.285 780.802 330.059 778.448 329.838C773.883 329.395 769.864 332.876 769.474 337.582C769.084 342.289 772.491 346.474 777.056 346.917C779.644 347.164 782.154 346.161 783.897 344.205C785.315 346.135 787.434 347.36 789.788 347.582C794.353 348.025 798.372 344.544 798.762 339.838C799.152 335.131 795.745 330.946 791.18 330.503C788.592 330.255 786.082 331.259 784.339 333.215Z" stroke="white" stroke-width="0.75" stroke-linecap="round" stroke-linejoin="round"/>
<path d="M759.278 361.036C757.861 359.106 755.741 357.881 753.387 357.659C748.822 357.216 744.803 360.697 744.413 365.403C744.023 370.11 747.43 374.295 751.995 374.738C754.583 374.986 757.093 373.982 758.836 372.026C760.253 373.956 762.373 375.181 764.727 375.403C769.292 375.846 773.311 372.365 773.701 367.659C774.091 362.952 770.684 358.767 766.119 358.324C763.531 358.076 761.021 359.08 759.278 361.036Z" stroke="white" stroke-width="0.75" stroke-linecap="round" stroke-linejoin="round"/>
<path d="M808.113 380.775C806.695 378.846 804.575 377.62 802.221 377.398C797.656 376.955 793.638 380.436 793.248 385.143C792.858 389.849 796.265 394.034 800.83 394.477C803.418 394.725 805.928 393.721 807.67 391.766C809.088 393.695 811.208 394.921 813.562 395.142C818.127 395.585 822.145 392.105 822.535 387.398C822.925 382.692 819.518 378.507 814.953 378.063C812.365 377.816 809.855 378.819 808.113 380.775Z" stroke="white" stroke-width="0.75" stroke-linecap="round" stroke-linejoin="round"/>
<path d="M730.758 384.256C729.341 382.327 727.221 381.101 724.867 380.879C720.302 380.436 716.283 383.917 715.893 388.624C715.503 393.33 718.91 397.515 723.475 397.958C726.063 398.206 728.573 397.202 730.316 395.247C731.734 397.176 733.853 398.402 736.207 398.623C740.772 399.066 744.791 395.586 745.181 390.879C745.571 386.173 742.164 381.988 737.599 381.544C735.011 381.297 732.501 382.3 730.758 384.256Z" stroke="white" stroke-width="0.75" stroke-linecap="round" stroke-linejoin="round"/>
<path d="M763.492 412.977C762.074 411.047 759.955 409.822 757.601 409.6C753.036 409.157 749.017 412.638 748.627 417.344C748.237 422.051 751.644 426.236 756.209 426.679C758.797 426.927 761.307 425.923 763.05 423.967C764.467 425.897 766.587 427.122 768.941 427.344C773.506 427.787 777.524 424.306 777.915 419.6C778.305 414.893 774.897 410.708 770.333 410.265C767.745 410.017 765.235 411.021 763.492 412.977Z" stroke="white" stroke-width="0.75" stroke-linecap="round" stroke-linejoin="round"/>
</g>
<path d="M720.041 296.358C727.389 296.045 733.788 298.731 739.51 301.403C752.528 307.505 788.578 330.659 801.518 360.215C814.458 389.771 802.273 409.001 761.879 414.15C721.485 419.3 698.31 409.952 698.31 409.952L700.611 372.991L749.16 370.228L742.865 351.832" stroke="#020046" stroke-width="0.75" stroke-linecap="round" stroke-linejoin="round"/>
<path d="M710.157 375.221L708.063 410.382" stroke="#020046" stroke-width="0.75" stroke-linecap="round" stroke-linejoin="round"/>
<path d="M746.039 370.41L759.057 370.319" stroke="#020046" stroke-width="0.75" stroke-linecap="round" stroke-linejoin="round"/>
<path d="M728.598 233.022C736.857 237.142 741.721 246.946 740.693 257.363C739.276 271.743 726.778 282.42 726.778 282.42L725.906 258.497L724.528 257.767L728.585 233.022H728.598Z" fill="#020046"/>
<path d="M731.823 262.03C730.015 262.03 728.351 262.591 726.972 263.569V258.575C727.024 250.649 721.367 244.156 714.422 244.13L703.979 244.091C697.034 244.065 691.338 250.531 691.312 258.445L691.247 274.663C691.221 282.59 696.878 289.083 703.81 289.109L709.844 289.135L709.818 297.87C709.805 301.455 712.719 304.402 716.295 304.415H720.431C724.007 304.441 726.946 301.52 726.959 297.935L726.998 288.066V287.518L727.037 277.649C727.037 277.453 727.024 277.258 726.998 277.062C728.338 278.001 729.976 278.562 731.745 278.575C736.336 278.588 740.068 274.911 740.081 270.335C740.094 265.759 736.388 262.056 731.797 262.043L731.823 262.03Z" fill="white" stroke="#020046" stroke-width="0.75" stroke-linecap="round" stroke-linejoin="round"/>
<path d="M727.831 271.391C727.831 271.391 727.48 265.772 733.228 266.424" stroke="#020046" stroke-width="0.75" stroke-linecap="round" stroke-linejoin="round"/>
<path d="M732.097 235.252C728.286 232.214 723.422 230.558 717.856 231.067C691.261 221.693 681.351 247.037 690.805 253.895C693.589 255.916 707.413 256.933 712.836 251.522C713.2 252.617 713.733 254.012 714.566 255.786C716.348 259.618 720.262 262.33 723.357 263.96L721.12 274.52C721.12 274.52 708.219 271.378 700.299 271.443C692.379 271.509 691.274 274.664 691.274 274.664C691.274 274.664 691.339 285.537 699.519 288.222C706.464 290.504 709.871 289.135 709.871 289.135C709.871 289.135 718.636 286.867 722.85 282.251C724.697 280.231 725.529 278.979 726.518 277.01L726.882 264.286C727.194 264.051 727.415 263.882 727.701 263.686C727.701 263.686 729.626 262.043 731.746 262.043C733.709 262.043 735.634 262.8 737.078 263.921C739.406 259.423 732.11 235.278 732.11 235.278L732.097 235.252Z" fill="#020046"/>
<path d="M709.338 302.993C709.338 302.993 711.314 306.435 718.805 305.418C726.296 304.401 718.337 297.687 714.683 296.657C711.028 295.627 706.437 299.591 709.338 302.993Z" fill="white" stroke="#020046" stroke-width="0.75" stroke-linecap="round" stroke-linejoin="round"/>
<path d="M701.859 307.439C701.859 307.439 707.231 311.794 715.073 312.263C719.833 312.55 725.633 311.729 731.316 306.683" stroke="#020046" stroke-width="0.75" stroke-linecap="round" stroke-linejoin="round"/>
<path d="M726.998 289.539C726.998 289.539 732.473 293.763 736.128 299.878C736.128 299.878 730.64 306.957 717.778 310.777L714.682 296.657L710.703 309.499C710.703 309.499 705.735 308.13 702.679 302.72C702.679 302.72 704.707 297.753 709.636 292.629C709.636 292.629 711.457 295.745 714.565 296.592C717.674 297.44 725.555 292.824 726.985 289.539H726.998Z" fill="white" stroke="#020046" stroke-width="0.75" stroke-linecap="round" stroke-linejoin="round"/>
<path d="M702.484 270.179L698.309 267.61L701.989 261.417" stroke="#020046" stroke-width="0.75" stroke-linecap="round" stroke-linejoin="round"/>
<path d="M713.682 260.544L709.65 258.914" stroke="#020046" stroke-linecap="round" stroke-linejoin="round"/>
<path d="M696.437 259.109L692.574 259.657" stroke="#020046" stroke-linecap="round" stroke-linejoin="round"/>
<path d="M711.809 264.077C711.809 265.107 710.977 265.941 709.949 265.941C708.922 265.941 708.089 265.107 708.089 264.077C708.089 263.047 708.922 262.212 709.949 262.212C710.977 262.212 711.809 263.047 711.809 264.077Z" fill="#020046"/>
<path d="M696.216 263.516C696.216 264.403 695.501 265.12 694.616 265.12C693.732 265.12 693.017 264.403 693.017 263.516C693.017 262.63 693.732 261.913 694.616 261.913C695.501 261.913 696.216 262.63 696.216 263.516Z" fill="#020046"/>
<path d="M697.984 276.019C697.984 278.027 699.597 279.656 701.587 279.67C703.59 279.67 705.215 278.053 705.228 276.058L697.984 276.032V276.019Z" fill="white"/>
<path d="M330.031 346.434H387.76C392.26 346.434 395.563 350.659 394.497 355.039L381.375 408.766C380.621 411.882 377.837 414.059 374.638 414.059H306.881C301.887 414.059 298.532 408.935 300.509 404.346L323.658 350.619C324.75 348.077 327.26 346.421 330.031 346.421V346.434Z" fill="#020046"/>
<path d="M331.136 350.58H384.47C387.513 350.58 389.75 353.435 389.035 356.408L376.836 406.328C376.316 408.44 374.443 409.913 372.271 409.913H309.626C306.244 409.913 303.981 406.445 305.321 403.342L326.831 353.422C327.573 351.701 329.263 350.58 331.136 350.58Z" fill="#651FFF"/>
<path d="M311.928 409.913H363.038C365.847 409.913 368.305 408.023 369.033 405.311L381.037 360.788C382.103 356.838 379.125 352.94 375.042 352.94H331.11C328.626 352.94 326.389 354.413 325.414 356.695L306.231 401.217C304.463 405.324 307.467 409.913 311.928 409.913Z" fill="white"/>
<path d="M312.695 357.556H376.837L377.084 356.604H313.202L312.695 357.556Z" fill="#020046"/>
<path d="M375.614 362.08H310.862V363.031H375.354L375.614 362.08Z" fill="#020046"/>
<path d="M374.145 367.556H310.862V368.507H373.885L374.145 367.556Z" fill="#020046"/>
<path d="M372.662 373.018H308.937V373.983H372.402L372.662 373.018Z" fill="#020046"/>
<path d="M371.192 378.494H306.739V379.459H370.932L371.192 378.494Z" fill="#020046"/>
<path d="M292.251 395.873H336.416V394.921H292.758L292.251 395.873Z" fill="#020046"/>
<path d="M346.847 383.969H298.598L298.09 384.921H346.587L346.847 383.969Z" fill="#020046"/>
<path d="M345.364 389.445H295.684L295.177 390.397H345.117L345.364 389.445Z" fill="#020046"/>
<path d="M60.1095 149.688H121.507C129.349 149.688 135.708 156.063 135.708 163.925V225.37L121.273 212.085H60.1225C52.2804 212.085 45.9209 205.709 45.9209 197.848V163.938C45.9209 156.076 52.2804 149.701 60.1225 149.701L60.1095 149.688Z" fill="white" stroke="#C4C1D2" stroke-width="0.75" stroke-linecap="round" stroke-linejoin="round"/>
<path d="M115.511 172.66H71.4497V199.099H115.511V172.66Z" fill="#D8D7E2"/>
<path d="M110.959 162.256H57.0269V194.602H110.959V162.256Z" fill="white" stroke="#C4C1D2" stroke-width="0.75" stroke-linecap="round" stroke-linejoin="round"/>
<path d="M57.0269 162.256L83.7394 185.436L110.959 162.256" stroke="#C4C1D2" stroke-width="0.75" stroke-linecap="round" stroke-linejoin="round"/>
<path d="M57.0269 194.602L74.1806 177.145" stroke="#C4C1D2" stroke-width="0.75" stroke-linecap="round" stroke-linejoin="round"/>
<path d="M93.48 177.145L110.959 194.602" stroke="#C4C1D2" stroke-width="0.75" stroke-linecap="round" stroke-linejoin="round"/>
<path d="M149.571 425.819H135.916V618.25H149.571V425.819Z" fill="white" stroke="#020046" stroke-width="0.75" stroke-linecap="round" stroke-linejoin="round"/>
<path d="M800.05 425.819H786.395V618.25H800.05V425.819Z" fill="white" stroke="#020046" stroke-width="0.75" stroke-linecap="round" stroke-linejoin="round"/>
<path d="M833.343 429.3H108.333C104.301 429.3 101.037 426.027 101.037 421.986C101.037 417.944 104.301 414.672 108.333 414.672H833.343C837.375 414.672 840.639 417.944 840.639 421.986C840.639 426.027 837.375 429.3 833.343 429.3Z" fill="white" stroke="#020046" stroke-width="0.75" stroke-linecap="round" stroke-linejoin="round"/>
<path d="M375.133 310.021C375.731 306.214 374.678 305.601 374.678 305.601L373.975 306.527C374.405 305.067 374.431 303.945 373.793 303.476C371.413 301.716 367.642 303.867 361.816 310.125C355.508 316.905 342.399 321.598 342.399 321.598C344.064 317.061 346.235 304.389 342.516 304.18C336.859 303.867 334.908 316.644 331.241 321.05C327.573 325.457 310.875 343.983 310.875 343.983L336.352 352.966C336.352 352.966 347.926 337.869 359.8 332.536C371.661 327.204 375.718 318.13 376.043 314.832C376.368 311.533 375.146 309.995 375.146 309.995L375.133 310.021Z" fill="white"/>
<path d="M374.678 305.601C374.678 305.601 375.887 306.305 374.964 310.907C374.04 315.509 367.447 324.101 367.447 324.101" stroke="#020046" stroke-width="0.75" stroke-linecap="round" stroke-linejoin="round"/>
<path d="M375.133 310.021C375.133 310.021 376.356 311.559 376.031 314.858C375.718 318.156 371.648 327.23 359.787 332.562C347.926 337.895 336.339 352.992 336.339 352.992L310.862 344.009C310.862 344.009 327.547 325.483 331.228 321.077C334.895 316.67 336.846 303.893 342.503 304.206C346.236 304.415 344.051 317.087 342.386 321.624C342.386 321.624 353.024 318.052 359.722 312.068C366.628 305.901 370.946 300.386 373.794 303.502C376.031 305.953 367.694 318.834 365.015 321.077" stroke="#020046" stroke-width="0.75" stroke-linecap="round" stroke-linejoin="round"/>
<path d="M229.202 272.668L237.135 280.256L232.623 284.637L229.202 272.668Z" fill="white" stroke="#020046" stroke-width="0.75" stroke-linecap="round" stroke-linejoin="round"/>
<path d="M198.888 293.333C198.992 293.789 199.109 294.22 199.239 294.65C199.239 295.145 199.278 295.654 199.382 296.149L198.875 293.32L218.824 303.893L218.798 303.802L224.755 302.485C231.595 300.96 235.783 293.333 234.066 285.524L230.529 269.527C228.799 261.717 221.79 256.568 214.949 258.08L204.649 260.362C197.808 261.887 193.62 269.514 195.337 277.323L198.875 293.32L198.888 293.333Z" fill="white"/>
<path d="M234.079 285.524L230.542 269.527C228.812 261.717 221.802 256.568 214.962 258.08L204.662 260.362C197.821 261.887 193.633 269.514 195.35 277.323L198.887 293.32C198.991 293.776 199.108 294.207 199.238 294.637C199.238 295.132 199.277 295.641 199.381 296.136L200.422 296.618L201.072 318.195H222.14L221.152 303.268L224.754 302.472C231.595 300.947 235.783 293.32 234.066 285.511L234.079 285.524Z" fill="white" stroke="#020046" stroke-width="0.75" stroke-linecap="round" stroke-linejoin="round"/>
<path d="M199.811 287.102L201.527 281.548C201.527 281.548 221.659 278.353 230.594 256.959C233.91 249.006 228.292 241.419 219.149 241.353C207.575 241.262 197.262 247.807 197.262 247.807C197.262 247.807 170.458 260.14 179.119 287.323C179.119 287.323 183.71 303.229 201.202 303.92" fill="#020046"/>
<path d="M189.016 291.391C189.562 295.641 193.464 298.652 197.743 298.092C202.021 297.544 205.052 293.646 204.505 289.396C203.959 285.146 200.058 282.134 195.779 282.695C191.5 283.242 188.47 287.14 189.016 291.391Z" fill="white"/>
<path d="M201.072 290.882C201.072 290.882 200.747 285.602 195.454 286.88" stroke="#020046" stroke-width="0.75" stroke-linecap="round" stroke-linejoin="round"/>
<path d="M157.141 256.164C168.208 246.203 163.11 221.706 147.894 218.082C129.544 213.714 116.552 236.855 102.714 215.865C88.8767 194.875 70.3444 199.634 64.089 218.551C57.8335 237.468 77.9785 257.037 98.2405 255.694C118.502 254.364 124.147 240.949 131.534 251.157C138.895 261.326 150.287 262.343 157.154 256.151L157.141 256.164Z" stroke="#020046" stroke-width="0.75" stroke-linecap="round" stroke-linejoin="round"/>
<path d="M178.573 260.648C178.573 263.569 176.219 265.928 173.306 265.928C170.393 265.928 168.039 263.569 168.039 260.648C168.039 257.728 170.393 255.368 173.306 255.368C176.219 255.368 178.573 257.728 178.573 260.648Z" stroke="#020046" stroke-width="0.75" stroke-linecap="round" stroke-linejoin="round"/>
<path d="M190.551 323.319L200.747 311.194L226.627 312.067L236.03 322.615C236.03 322.615 218.473 323.319 190.551 323.319Z" fill="#020046"/>
<path d="M247.604 396.458C271.859 410.317 294.397 417.735 302.837 412.338C319.679 401.569 346.313 345.56 346.313 345.56L319.042 328.807L287.998 359.419C287.998 359.419 256.084 329.433 239.996 322.889C233.012 320.046 194.426 321.376 194.426 321.376C194.426 321.376 190.629 322.537 188.847 323.332C167.467 332.745 162.408 364.673 155.437 409.183L155.281 414.098L248.02 414.919L247.604 396.445V396.458Z" fill="#020046"/>
<path d="M287.257 358.728L294.384 365.937" stroke="white" stroke-width="0.75" stroke-miterlimit="10" stroke-linecap="round"/>
<path d="M313.28 334.491L342.385 353.5" stroke="white" stroke-width="0.75" stroke-miterlimit="10" stroke-linecap="round"/>
<path d="M192.944 322.119C192.944 322.119 209.096 321.545 214.48 321.611C219.864 321.676 236.017 322.628 236.017 322.628" stroke="white" stroke-width="0.75" stroke-miterlimit="10" stroke-linecap="round"/>
<path d="M220.32 279.892C220.398 281.195 221.503 282.186 222.791 282.108C224.091 282.03 225.08 280.922 225.002 279.631C224.924 278.327 223.818 277.336 222.531 277.414C221.243 277.493 220.242 278.601 220.32 279.892Z" fill="#020046"/>
<path d="M233.91 293.502C233.91 293.502 230.841 295.536 227.265 292.172" stroke="#020046" stroke-width="0.75" stroke-miterlimit="10"/>
<path d="M217.472 276.971C218.473 275.798 219.592 274.716 220.788 273.751" stroke="#020046" stroke-width="0.75" stroke-miterlimit="10"/>
<path d="M267.932 563.128L277.074 618.133L297.661 618.237L298.078 605.708L320.954 617.82C320.954 617.82 326.754 617.924 331.696 617.807C335.493 617.716 339.083 618.237 339.057 617.116C338.862 608.72 330.968 601.249 307.506 581.289L304.749 561.199L267.932 563.128Z" fill="#651FFF" stroke="#020046" stroke-miterlimit="10"/>
<path d="M226.536 475.908L259.881 582.984H352.608L295.489 437.983L205.545 425.819L226.536 475.908Z" fill="white"/>
<path d="M211.06 438.974V432.064H209.759V435.871L211.06 438.974Z" fill="#00E5FF"/>
<path d="M337.756 571.42V570.116H296.283V550.573H337.756V549.269H296.283V529.726H331.631L331.124 528.422H296.283V508.879H323.425L322.917 507.576H296.296V488.033H315.231L314.724 486.729H296.309V467.186H307.025L306.518 465.882H296.309V439.977L295.516 437.956L295.008 437.891V465.882H275.006V435.179L273.706 434.997V465.869H253.704V432.285L252.404 432.103V465.856H232.402V432.011H231.101V465.856H222.388L222.934 467.16H231.101V486.703H229.944L230.347 488.007H231.088V490.406L232.389 494.577V488.007H252.391V507.55H236.42L236.823 508.853H252.391V528.396H242.91L243.313 529.7H252.391V549.243H249.399L249.803 550.547H252.378V558.839L253.678 563.01V550.547H273.68V570.09H255.876L256.279 571.393H273.68V582.958H274.98V571.393H294.982V582.958H296.283V571.393H337.756V571.42ZM252.365 486.742H232.363V467.199H252.365V486.742ZM273.667 549.269H253.665V529.726H273.667V549.269ZM273.667 528.422H253.665V508.879H273.667V528.422ZM273.667 507.576H253.665V488.033H273.667V507.576ZM273.667 486.729H253.665V467.186H273.667V486.729ZM294.969 570.103H274.967V550.56H294.969V570.103ZM294.969 549.256H274.967V529.713H294.969V549.256ZM294.969 528.409H274.967V508.866H294.969V528.409ZM294.969 507.563H274.967V488.02H294.969V507.563ZM294.969 486.716H274.967V467.173H294.969V486.716Z" fill="#00E5FF"/>
<path d="M226.536 475.908L259.881 582.984H352.608L295.489 437.983L205.545 425.819" stroke="#020046" stroke-miterlimit="10"/>
<path d="M313.748 564.183L324.972 618.145L344.258 618.249L344.674 605.72L362.595 618.249C358.642 618.354 373.338 617.949 378.293 617.819C382.09 617.728 385.68 618.249 385.654 617.128C385.459 608.732 377.564 601.262 354.103 581.301L351.346 561.211L313.722 564.197L313.748 564.183Z" fill="#651FFF" stroke="#020046" stroke-miterlimit="10"/>
<path d="M278.7 478.033L306.154 582.983H372.649C372.649 582.983 337.951 454.983 322.449 437.995C306.947 421.007 256.695 421.985 256.695 421.985L278.687 478.033H278.7Z" fill="white"/>
<path d="M367.863 565.735H354.767V546.192H362.232C362.102 545.762 361.985 545.332 361.855 544.888H354.767V525.345H356.002C355.872 524.915 355.742 524.472 355.599 524.042H354.754V521.304C354.325 519.909 353.896 518.501 353.453 517.093V524.042H333.451V504.499H349.487C349.344 504.069 349.214 503.625 349.071 503.195H333.464V483.652H342.568C342.412 483.222 342.269 482.779 342.113 482.348H333.451V462.805H334.934C334.765 462.362 334.583 461.932 334.414 461.502H333.451V459.103C333.009 458.034 332.58 456.978 332.151 455.974V461.502H312.149V441.959H325.336C325.063 441.502 324.79 441.059 324.517 440.655H312.162V430.851C311.733 430.655 311.304 430.447 310.862 430.251V440.642H290.86V424.645C290.43 424.567 289.988 424.489 289.559 424.423V440.642H269.557V422.272C269.115 422.246 268.686 422.22 268.257 422.207V440.655H264.082L264.589 441.959H268.257V451.306L269.557 454.618V441.959H289.559V461.502H272.249L272.756 462.805H289.546V482.348H279.844L280.182 483.652H289.533V503.195H285.293L285.632 504.499H289.533V519.413L291.081 525.332H310.836V544.875H296.192L296.53 546.179H310.836V565.722H301.641L301.979 567.026H310.836V582.971H312.136V567.026H332.138V582.971H333.438V567.026H353.44V582.971H354.741V567.026H368.214C368.097 566.596 367.967 566.165 367.85 565.722L367.863 565.735ZM310.849 524.055H290.847V504.512H310.849V524.055ZM310.849 503.208H290.847V483.665H310.849V503.208ZM310.849 482.361H290.847V462.818H310.849V482.361ZM310.849 461.515H290.847V441.972H310.849V461.515ZM332.151 565.722H312.149V546.179H332.151V565.722ZM332.151 544.875H312.149V525.332H332.151V544.875ZM332.151 524.029H312.149V504.486H332.151V524.029ZM332.151 503.182H312.149V483.639H332.151V503.182ZM332.151 482.335H312.149V462.792H332.151V482.335ZM353.453 565.709H333.451V546.166H353.453V565.709ZM353.453 544.862H333.451V525.319H353.453V544.862Z" fill="#00E5FF"/>
<path d="M278.7 478.033L306.154 582.983H372.649C372.649 582.983 337.951 454.983 322.449 437.995C306.947 421.007 256.695 421.985 256.695 421.985" stroke="#020046" stroke-miterlimit="10"/>
<path d="M25.2036 618.25H885.689" stroke="#020046" stroke-width="0.75" stroke-linecap="round" stroke-linejoin="round"/>
<path d="M613.621 414.255L676.93 414.372C683.497 414.372 686.905 409.274 684.525 402.951L667.93 358.911C665.55 352.588 658.293 347.464 651.726 347.451L588.417 347.334C581.849 347.334 578.442 352.432 580.822 358.755L597.416 402.795C599.796 409.118 607.053 414.242 613.621 414.255Z" fill="#020046"/>
<path d="M623.179 377.359C623.921 380.162 626.782 382.43 629.578 382.43C632.361 382.43 634.026 380.175 633.284 377.372C632.543 374.569 629.682 372.3 626.886 372.3C624.103 372.3 622.438 374.556 623.179 377.359Z" fill="white"/>
<path d="M734.517 412.846V406.393C734.53 405.558 733.853 404.867 733.021 404.867L669.244 404.75C668.411 404.75 667.722 405.428 667.722 406.262V412.716C667.722 413.55 668.385 414.241 669.218 414.241L732.995 414.359C733.827 414.359 734.517 413.681 734.517 412.846Z" fill="#020046"/>
<path d="M773.883 373.487H771.347H755.494L759.798 414.685H771.347H773.883H785.432L789.736 373.487H773.883Z" fill="white" stroke="#020046" stroke-width="0.75" stroke-linecap="round" stroke-linejoin="round"/>
<path d="M758.589 403.147H786.641L788.852 382H756.378L758.589 403.147Z" fill="#00E5FF" stroke="#020046" stroke-width="0.75" stroke-linecap="round" stroke-linejoin="round"/>
<path d="M786.472 361.922H759.07C758.014 361.922 757.158 362.78 757.158 363.839V367.45C757.158 368.509 758.014 369.367 759.07 369.367H786.472C787.528 369.367 788.384 368.509 788.384 367.45V363.839C788.384 362.78 787.528 361.922 786.472 361.922Z" fill="#020046"/>
<path d="M791.284 366.525H754.245C752.866 366.525 751.748 367.646 751.748 369.028V371.623C751.748 373.005 752.866 374.126 754.245 374.126H791.284C792.663 374.126 793.781 373.005 793.781 371.623V369.028C793.781 367.646 792.663 366.525 791.284 366.525Z" fill="#020046"/>
<path d="M451.109 78.0474H397.033C391.623 78.0474 387.228 82.441 387.228 87.8775V111.28C387.228 111.736 387.267 112.179 387.332 112.609C387.267 113.053 387.228 113.483 387.228 113.939V137.341C387.228 142.765 391.61 147.171 397.033 147.171H450.953L460.915 156.35V87.8775C460.915 82.454 456.532 78.0474 451.109 78.0474Z" fill="white" stroke="#C4C1D2" stroke-linecap="round" stroke-linejoin="round"/>
<path d="M424.995 99.8979H422.888H409.818L413.368 133.899H422.888H424.995H434.528L438.078 99.8979H424.995Z" fill="white" stroke="#C4C1D2" stroke-width="0.75" stroke-linecap="round" stroke-linejoin="round"/>
<path d="M412.367 124.369H435.516L437.337 106.925H410.546L412.367 124.369Z" fill="#C4C1D2"/>
<path d="M435.373 90.3545H412.757C411.888 90.3545 411.184 91.0608 411.184 91.932V94.9176C411.184 95.7888 411.888 96.4951 412.757 96.4951H435.373C436.242 96.4951 436.947 95.7888 436.947 94.9176V91.932C436.947 91.0608 436.242 90.3545 435.373 90.3545Z" fill="#C4C1D2"/>
<path d="M439.352 94.1616H408.777C407.642 94.1616 406.722 95.0839 406.722 96.2215V98.3727C406.722 99.5103 407.642 100.433 408.777 100.433H439.352C440.487 100.433 441.407 99.5103 441.407 98.3727V96.2215C441.407 95.0839 440.487 94.1616 439.352 94.1616Z" fill="#C4C1D2"/>
<path d="M614.376 192.828H660.18C666.032 192.828 670.779 197.587 670.779 203.454V249.293L660.011 239.372H614.376C608.523 239.372 603.776 234.613 603.776 228.746V203.441C603.776 197.574 608.523 192.815 614.376 192.815V192.828Z" fill="white" stroke="#C4C1D2" stroke-width="0.75" stroke-linecap="round" stroke-linejoin="round"/>
<path d="M594.698 174.576H640.502C646.355 174.576 651.102 179.335 651.102 185.201V231.041L640.333 221.119H594.698C588.846 221.119 584.099 216.361 584.099 210.494V185.188C584.099 179.322 588.846 174.563 594.698 174.563V174.576Z" fill="white" stroke="#C4C1D2" stroke-width="0.75" stroke-linecap="round" stroke-linejoin="round"/>
<path d="M628.083 198.695C628.083 201.25 630.151 203.31 632.687 203.31C635.223 203.31 637.291 201.237 637.291 198.695C637.291 196.153 635.223 194.08 632.687 194.08C630.151 194.08 628.083 196.153 628.083 198.695Z" fill="#C4C1D2"/>
<path d="M612.047 198.695C612.047 201.25 614.115 203.31 616.651 203.31C619.187 203.31 621.255 201.237 621.255 198.695C621.255 196.153 619.187 194.08 616.651 194.08C614.115 194.08 612.047 196.153 612.047 198.695Z" fill="#C4C1D2"/>
<path d="M596.025 198.695C596.025 201.25 598.093 203.31 600.629 203.31C603.165 203.31 605.233 201.237 605.233 198.695C605.233 196.153 603.165 194.08 600.629 194.08C598.093 194.08 596.025 196.153 596.025 198.695Z" fill="#C4C1D2"/>
<path d="M858.196 555.462C869.783 541.747 915.405 448.673 904.975 434.736C891.892 417.266 862.084 464.292 844.202 522.021C844.202 522.021 862.409 442.324 847.089 432.741C831.873 423.237 823.056 498.267 824.564 553.18L858.209 555.449L858.196 555.462Z" fill="#D8D7E2"/>
<path d="M835.749 550.104C834.344 541.903 819.219 434.762 795.524 443.536C778.188 449.964 812.899 536.31 820.494 551.811L835.749 550.104Z" fill="#D8D7E2"/>
<path d="M835.749 535.763L842.342 452.441" stroke="#C4C1D2" stroke-width="0.75" stroke-linecap="round" stroke-linejoin="round"/>
<path d="M894.701 442.52L847.609 544.433" stroke="#C4C1D2" stroke-width="0.75" stroke-linecap="round" stroke-linejoin="round"/>
<path d="M824.721 544.433L799.23 454.371" stroke="#C4C1D2" stroke-width="0.75" stroke-linecap="round" stroke-linejoin="round"/>
<path d="M870.082 550.104H807.931C804.871 550.104 802.391 552.591 802.391 555.658V612.696C802.391 615.764 804.871 618.25 807.931 618.25H870.082C873.142 618.25 875.623 615.764 875.623 612.696V555.658C875.623 552.591 873.142 550.104 870.082 550.104Z" fill="#D8D7E2"/>
<path d="M833.235 180.146C849.981 166.336 852.39 141.532 838.615 124.744C824.839 107.957 800.097 105.542 783.35 119.351C766.604 133.161 764.195 157.965 777.971 174.753C791.746 191.541 816.489 193.955 833.235 180.146Z" stroke="#C4C1D2" stroke-width="0.75" stroke-miterlimit="10"/>
<path d="M840.027 157.596C844.399 139.966 833.686 122.121 816.1 117.739C798.514 113.356 780.713 124.095 776.341 141.725C771.97 159.355 782.682 177.2 800.269 181.582C817.855 185.965 835.655 175.226 840.027 157.596Z" fill="white" stroke="#C4C1D2" stroke-width="0.75" stroke-miterlimit="10"/>
<path d="M818.01 121.828L816.71 125.478" stroke="#C4C1D2" stroke-width="0.75" stroke-linecap="round" stroke-linejoin="round"/>
<path d="M799.517 173.807L798.216 177.445" stroke="#C4C1D2" stroke-width="0.75" stroke-linecap="round" stroke-linejoin="round"/>
<path d="M780.243 139.949L784.236 141.37" stroke="#C4C1D2" stroke-width="0.75" stroke-linecap="round" stroke-linejoin="round"/>
<path d="M832.095 158.488L836.087 159.909" stroke="#C4C1D2" stroke-width="0.75" stroke-linecap="round" stroke-linejoin="round"/>
<path d="M802.534 120.406L803.392 125.087" stroke="#C4C1D2" stroke-width="0.75" stroke-linecap="round" stroke-linejoin="round"/>
<path d="M789.19 127.433L791.883 130.653" stroke="#C4C1D2" stroke-width="0.75" stroke-linecap="round" stroke-linejoin="round"/>
<path d="M779.32 155.19L783.52 154.16" stroke="#C4C1D2" stroke-width="0.75" stroke-linecap="round" stroke-linejoin="round"/>
<path d="M785.341 168.736L788.826 166.011" stroke="#C4C1D2" stroke-width="0.75" stroke-linecap="round" stroke-linejoin="round"/>
<path d="M813.497 178.801L812.522 174.472" stroke="#C4C1D2" stroke-width="0.75" stroke-linecap="round" stroke-linejoin="round"/>
<path d="M827.179 172.295L824.344 168.762" stroke="#C4C1D2" stroke-width="0.75" stroke-linecap="round" stroke-linejoin="round"/>
<path d="M837.049 144.552L832.237 145.073" stroke="#C4C1D2" stroke-width="0.75" stroke-linecap="round" stroke-linejoin="round"/>
<path d="M830.404 131.292L827.087 133.561" stroke="#C4C1D2" stroke-width="0.75" stroke-linecap="round" stroke-linejoin="round"/>
<path d="M812.652 151.266C811.781 153.704 809.115 154.968 806.683 154.108C804.251 153.234 802.989 150.562 803.848 148.124C804.706 145.686 807.385 144.421 809.817 145.282C812.249 146.155 813.511 148.828 812.652 151.266Z" fill="#C4C1D2"/>
<path d="M815.851 129.754L808.568 150.223L789.945 155.085" stroke="#C4C1D2" stroke-linecap="round" stroke-linejoin="round"/>
<path d="M244.666 564.184H256.708V485.764H244.666V564.184Z" fill="white" stroke="#A3A1AF" stroke-width="0.75" stroke-miterlimit="10"/>
<path d="M246.994 589.229H254.393C257.475 589.229 259.973 586.724 259.973 583.636V527.849C259.973 524.76 257.475 522.256 254.393 522.256H246.994C243.912 522.256 241.414 524.76 241.414 527.849V583.636C241.414 586.724 243.912 589.229 246.994 589.229Z" fill="#A3A1AF"/>
<path d="M203.14 583.61H206.092H295.282H302.291V591.68V600.741H295.282V591.68H206.092V600.741H199.083V591.68V583.61H203.14Z" fill="#A3A1AF"/>
<path d="M191.773 606.686C191.773 612.644 196.585 617.468 202.529 617.468C208.472 617.468 213.284 612.644 213.284 606.686C213.284 600.728 208.472 595.904 202.529 595.904C196.585 595.904 191.773 600.728 191.773 606.686Z" fill="white" stroke="#A3A1AF" stroke-width="0.75" stroke-miterlimit="10"/>
<path d="M198.406 606.686C198.406 608.967 200.253 610.818 202.529 610.818C204.805 610.818 206.652 608.967 206.652 606.686C206.652 604.404 204.805 602.553 202.529 602.553C200.253 602.553 198.406 604.404 198.406 606.686Z" fill="#A3A1AF"/>
<path d="M288.401 606.686C288.401 612.644 293.213 617.468 299.157 617.468C305.1 617.468 309.912 612.644 309.912 606.686C309.912 600.728 305.1 595.904 299.157 595.904C293.213 595.904 288.401 600.728 288.401 606.686Z" fill="white" stroke="#A3A1AF" stroke-width="0.75" stroke-miterlimit="10"/>
<path d="M295.034 606.686C295.034 608.967 296.881 610.818 299.157 610.818C301.433 610.818 303.279 608.967 303.279 606.686C303.279 604.404 301.433 602.553 299.157 602.553C296.881 602.553 295.034 604.404 295.034 606.686Z" fill="#A3A1AF"/>
<path d="M362.089 495.282H154.917C150.651 495.282 147.101 491.97 146.815 487.694L137.737 356.16C137.412 351.454 141.131 347.451 145.839 347.451H255.017C258.997 347.451 262.391 350.345 263.042 354.296L282.133 472.153C282.77 476.091 286.165 478.998 290.157 478.998H362.089C365.6 478.998 368.708 481.253 369.801 484.591C371.531 489.858 367.616 495.282 362.089 495.282Z" fill="white" stroke="#A3A1AF" stroke-width="0.75" stroke-miterlimit="10" stroke-linecap="round"/>
<path d="M147.335 377.958H241.272" stroke="#A3A1AF" stroke-width="0.75" stroke-miterlimit="10" stroke-linecap="round"/>
<path d="M147.335 407.97H246.63" stroke="#A3A1AF" stroke-width="0.75" stroke-miterlimit="10" stroke-linecap="round"/>
<path d="M153.395 437.982H252.689" stroke="#A3A1AF" stroke-width="0.75" stroke-miterlimit="10" stroke-linecap="round"/>
<path d="M153.395 467.995H252.689" stroke="#A3A1AF" stroke-width="0.75" stroke-miterlimit="10" stroke-linecap="round"/>
<path d="M248.411 353.749L267.516 480.797" stroke="#A3A1AF" stroke-width="0.75" stroke-miterlimit="10" stroke-linecap="round"/>
<path d="M856.088 537.587H752.97C749.372 537.587 746.455 540.512 746.455 544.119V611.718C746.455 615.325 749.372 618.249 752.97 618.249H856.088C859.686 618.249 862.603 615.325 862.603 611.718V544.119C862.603 540.512 859.686 537.587 856.088 537.587Z" fill="#651FFF" stroke="#020046" stroke-width="0.75" stroke-linecap="round" stroke-linejoin="round"/>
<path d="M764.87 563.714V618.25" stroke="#020046" stroke-width="0.75" stroke-linecap="round" stroke-linejoin="round"/>
<path d="M844.201 563.714V618.25" stroke="#020046" stroke-width="0.75" stroke-linecap="round" stroke-linejoin="round"/>
<path d="M859.456 528.449H749.602C745.573 528.449 742.306 531.723 742.306 535.763V567.874C742.306 571.913 745.573 575.188 749.602 575.188H859.456C863.486 575.188 866.752 571.913 866.752 567.874V535.763C866.752 531.723 863.486 528.449 859.456 528.449Z" fill="#651FFF"/>
<path d="M866.752 535.763V567.874C866.752 571.915 863.488 575.188 859.456 575.188H749.602C745.571 575.188 742.306 571.915 742.306 567.874V535.763" stroke="#020046" stroke-width="0.75" stroke-linecap="round" stroke-linejoin="round"/>
<path d="M779.111 526.284H767.523C766.424 526.284 765.533 527.174 765.533 528.272C765.533 529.37 766.424 530.261 767.523 530.261H779.111C780.21 530.261 781.1 529.37 781.1 528.272C781.1 527.174 780.21 526.284 779.111 526.284Z" fill="#020046"/>
<path d="M841.535 526.284H829.948C828.849 526.284 827.958 527.174 827.958 528.272C827.958 529.37 828.849 530.261 829.948 530.261H841.535C842.634 530.261 843.525 529.37 843.525 528.272C843.525 527.174 842.634 526.284 841.535 526.284Z" fill="#020046"/>
<path d="M779.176 528.735C778.369 528.735 777.706 528.083 777.706 527.262V521.304C777.706 520.495 778.356 519.831 779.176 519.831C779.982 519.831 780.645 520.482 780.645 521.304V527.262C780.645 528.07 779.995 528.735 779.176 528.735Z" fill="#A3A1AF"/>
<path d="M829.895 528.735C829.089 528.735 828.426 528.083 828.426 527.262V521.304C828.426 520.495 829.076 519.831 829.895 519.831C830.702 519.831 831.365 520.482 831.365 521.304V527.262C831.365 528.07 830.715 528.735 829.895 528.735Z" fill="#A3A1AF"/>
<path d="M778.981 521.669C785.575 518.579 794.6 516.676 804.536 516.676C814.472 516.676 823.498 518.579 830.104 521.669" stroke="#020046" stroke-width="4" stroke-linecap="round" stroke-linejoin="round"/>
<path d="M811.299 562.411C811.559 561.108 810.557 559.895 809.231 559.895H799.828C798.502 559.895 797.513 561.108 797.76 562.411L799.178 569.595H809.894L811.312 562.411H811.299Z" stroke="#020046" stroke-width="0.75" stroke-linecap="round" stroke-linejoin="round"/>
<path d="M808.698 568.356H800.375C799.003 568.356 797.891 569.471 797.891 570.847V574.028C797.891 575.403 799.003 576.518 800.375 576.518H808.698C810.07 576.518 811.182 575.403 811.182 574.028V570.847C811.182 569.471 810.07 568.356 808.698 568.356Z" fill="#020046"/>
<path d="M797.981 572.776H811.09C811.728 572.776 812.235 573.284 812.235 573.923V579.06C812.235 582.815 809.192 585.865 805.446 585.865H803.638C799.893 585.865 796.85 582.815 796.85 579.06V573.923C796.85 573.284 797.357 572.776 797.994 572.776H797.981Z" fill="#020046"/>
<path d="M806.668 578.147H802.39V582.424H806.668V578.147Z" stroke="#C4C1D2" stroke-width="0.75" stroke-linecap="round" stroke-linejoin="round"/>
<path d="M797.513 572.867H811.338" stroke="#C4C1D2" stroke-width="0.75" stroke-linecap="round" stroke-linejoin="round"/>
</svg>
