<svg width="536" height="614" viewBox="0 0 536 614" fill="none" xmlns="http://www.w3.org/2000/svg">
<g clip-path="url(#clip0_533_1267)">
<path d="M445.33 72.9349H335.752C332.457 72.9349 329.736 70.2124 329.736 66.9167V6.0182C329.736 2.72252 332.457 0 335.752 0H445.33C448.624 0 451.346 2.72252 451.346 6.0182V66.7734C451.346 70.2124 448.624 72.9349 445.33 72.9349Z" fill="#E0F7FA"/>
<path d="M440.03 61.3284H411.525C409.95 61.3284 408.804 60.0388 408.804 58.6059V14.3291C408.804 12.7529 410.093 11.6066 411.525 11.6066H440.03C441.605 11.6066 442.751 12.8962 442.751 14.3291V58.6059C442.895 60.0388 441.605 61.3284 440.03 61.3284ZM411.525 13.3261C410.952 13.3261 410.523 13.7559 410.523 14.3291V58.6059C410.523 59.179 410.952 59.6089 411.525 59.6089H440.03C440.603 59.6089 441.032 59.179 441.032 58.6059V14.3291C441.032 13.7559 440.603 13.3261 440.03 13.3261H411.525Z" fill="#00E5FF"/>
<path d="M398.634 12.4663H344.919C343.773 12.4663 342.771 13.3261 342.771 14.6157C342.771 15.762 343.63 16.765 344.919 16.765H398.634C399.78 16.765 400.782 15.9053 400.782 14.6157C400.639 13.3261 399.78 12.4663 398.634 12.4663Z" fill="#00E5FF"/>
<path d="M398.634 27.0819H344.919C343.773 27.0819 342.771 27.9417 342.771 29.2313C342.771 30.3776 343.63 31.3806 344.919 31.3806H398.634C399.78 31.3806 400.782 30.5209 400.782 29.2313C400.639 27.9417 399.78 27.0819 398.634 27.0819Z" fill="#00E5FF"/>
<path d="M398.634 41.6976H344.919C343.773 41.6976 342.771 42.5574 342.771 43.847C342.771 44.9933 343.63 45.9963 344.919 45.9963H398.634C399.78 45.9963 400.782 45.1366 400.782 43.847C400.639 42.5574 399.78 41.6976 398.634 41.6976Z" fill="#00E5FF"/>
<path d="M398.634 56.3132H344.919C343.773 56.3132 342.771 57.173 342.771 58.4626C342.771 59.6089 343.63 60.6119 344.919 60.6119H398.634C399.78 60.6119 400.782 59.7522 400.782 58.4626C400.639 57.3163 399.78 56.3132 398.634 56.3132Z" fill="#00E5FF"/>
<path d="M285.905 614C400.296 614 493.028 609.253 493.028 603.396C493.028 597.54 400.296 592.793 285.905 592.793C171.514 592.793 78.7812 597.54 78.7812 603.396C78.7812 609.253 171.514 614 285.905 614Z" fill="#E0F7FA"/>
<g opacity="0.4">
<path d="M241.071 103.886C241.071 103.886 155.987 104.889 141.09 167.22C127.053 225.683 179.335 256.347 117.026 297.901C54.7172 339.455 88.0919 487.904 204.975 455.234C321.858 422.707 307.391 339.026 394.337 330.428C524.254 317.962 494.747 91.2762 241.071 103.886Z" fill="#E0F7FA"/>
</g>
<path d="M446.905 169.083C453.781 174.671 458.794 182.122 462.805 189.86C467.245 198.457 470.54 207.771 472.975 217.085C474.407 222.387 475.41 227.689 476.269 233.134C476.412 233.85 477.415 233.564 477.272 232.847C475.696 223.103 473.404 213.36 469.967 204.046C466.815 195.162 462.805 186.421 457.218 178.683C454.497 174.815 451.346 171.232 447.621 168.223C447.192 167.937 446.332 168.653 446.905 169.083Z" fill="#A9B7DE"/>
<path d="M83.5081 333.437C78.065 349.772 76.9191 367.397 80.3568 384.305C81.3595 389.177 82.6486 393.906 84.3675 398.491C84.654 399.064 85.6567 398.778 85.3702 398.205C79.4974 382.156 77.9218 364.531 80.9298 347.623C81.7892 342.894 82.9351 338.309 84.5107 333.724C84.654 333.151 83.6513 332.864 83.5081 333.437Z" fill="#A9B7DE"/>
<path d="M258.116 97.2943C279.602 96.4346 301.088 98.1541 322.287 102.31C322.86 102.453 323.003 101.593 322.43 101.45C301.231 97.2943 279.602 95.5749 258.116 96.4346C257.543 96.5779 257.686 97.4376 258.116 97.2943Z" fill="#A9B7DE"/>
<path d="M354.373 49.5785C354.373 49.5785 357.811 38.4018 359.959 36.9689C362.108 35.536 363.254 36.3957 366.548 33.5299C369.986 30.6641 369.127 35.9659 367.838 37.2555C366.692 38.6884 364.4 38.2585 362.394 41.9841C361.678 43.1304 361.249 44.2767 360.819 45.1365C361.678 43.417 363.54 41.1243 366.405 40.2646C371.275 38.8317 371.848 39.8347 373.71 41.5542C374.57 42.2707 374.283 42.9871 373.854 43.5603C373.281 44.2767 372.278 44.42 371.419 43.9901C370.559 43.5603 369.127 43.2737 367.551 44.5633C364.973 46.5694 365.403 48.4321 365.403 48.4321C365.403 48.4321 367.265 45.9962 369.27 45.423C371.275 44.8499 373.281 45.423 374.713 46.9992C376.289 48.5754 375.716 50.7248 372.278 49.0053C370.129 47.859 370.129 48.7187 368.84 50.7248C369.127 50.2949 370.273 49.2919 372.278 50.5815C374.713 52.1577 374.427 53.5906 373.424 55.8833C372.421 58.1759 371.132 58.3192 370.702 56.743C370.416 55.3101 370.559 54.7369 370.559 54.5936C370.416 54.8802 368.554 57.4594 367.408 61.6149C366.119 65.9136 358.814 71.5019 351.938 67.2032C348.93 66.2002 347.354 63.4776 346.925 60.4685C345.492 55.3101 348.787 51.7278 349.789 50.1516C351.365 47.859 350.362 43.5603 351.222 41.4109C352.081 39.2615 354.66 43.2737 354.66 45.9962C354.66 48.862 354.373 49.5785 354.373 49.5785Z" fill="#FF6665"/>
<path d="M268.716 111.193C268.716 111.193 317.991 110.764 323.147 110.764C328.304 110.764 350.649 62.7612 350.649 62.7612L359.53 66.7734C359.53 66.7734 348.93 123.803 336.755 134.693C324.58 145.726 279.459 141.141 279.459 141.141C279.459 141.141 263.273 126.239 268.716 111.193Z" fill="#FF6665"/>
<path d="M361.106 53.5906C360.103 58.8924 356.235 63.3344 351.079 64.7673C350.649 64.9106 350.792 65.627 351.222 65.4837C356.665 63.9075 360.819 59.3222 361.822 53.7339C361.822 53.304 361.106 53.1607 361.106 53.5906Z" fill="#CF3736"/>
<path d="M356.951 50.4382C360.676 52.0144 363.97 54.307 366.835 57.3161C367.121 57.6027 367.694 57.1728 367.408 56.7429C364.543 53.7338 361.249 51.4412 357.381 49.7217C356.951 49.5784 356.522 50.1516 356.951 50.4382Z" fill="#CF3736"/>
<path d="M323.72 111.48C326.298 112.913 328.447 115.062 329.736 117.785C330.022 118.215 330.739 117.785 330.452 117.355C329.163 114.489 326.871 112.196 324.15 110.62C323.72 110.477 323.29 111.193 323.72 111.48Z" fill="#CF3736"/>
<path d="M326.728 113.343C328.733 113.2 330.596 113.773 332.028 115.349C332.458 115.779 333.031 115.206 332.601 114.776C331.025 113.2 328.877 112.34 326.728 112.626C326.155 112.626 326.155 113.486 326.728 113.343Z" fill="#CF3736"/>
<path d="M166.73 124.663C172.46 127.815 175.468 132.974 180.481 137.272C185.351 141.428 188.359 145.726 194.519 147.589C198.243 148.592 202.253 149.452 206.407 149.739C219.585 136.556 227.75 103.742 226.174 90.5596C224.456 76.8037 201.967 40.5511 201.967 40.5511C201.967 40.5511 184.205 47.5724 180.911 68.6361C177.616 89.6998 187.07 98.7271 169.595 105.175C160.714 108.471 154.125 114.919 151.117 121.94C154.985 121.94 163.149 122.657 166.73 124.663Z" fill="#222943"/>
<path d="M263.416 207.628C256.684 207.915 250.382 207.771 243.793 206.625C239.782 205.909 234.339 204.762 231.474 201.61C230.328 205.909 229.182 210.064 228.18 213.216C228.036 213.646 227.893 213.933 227.893 214.219C226.747 218.088 225.888 220.524 225.888 220.524C235.771 220.667 245.511 220.238 255.252 219.235C259.549 218.805 263.846 218.232 268.143 217.515C272.297 216.799 276.308 216.082 280.318 215.222C284.472 214.363 288.626 213.36 292.78 212.213C295.932 211.354 299.226 210.494 302.377 209.491C302.377 209.491 300.085 204.619 298.223 198.744C288.197 205.622 274.875 207.341 263.416 207.628Z" fill="#222943"/>
<path d="M300.945 206.768C300.945 206.768 270.578 222.244 231.761 212.5C231.761 212.5 215.288 229.838 222.88 249.612C233.193 276.694 293.353 275.834 310.829 251.332C318.563 240.298 300.945 206.768 300.945 206.768Z" fill="#222943"/>
<path d="M300.515 208.918C297.937 210.207 295.359 211.497 292.78 212.643C289.915 213.789 287.051 214.936 284.043 215.796C274.732 218.661 264.992 219.808 255.252 219.521C245.941 219.235 236.774 217.515 227.893 214.506C228.036 214.219 228.036 213.789 228.18 213.503C240.928 217.945 254.679 219.378 268 217.945C272.154 217.515 276.165 216.655 280.175 215.652C286.907 213.933 293.496 211.354 299.799 208.058C300.515 207.628 301.088 208.631 300.515 208.918Z" fill="#41577E"/>
<path d="M291.061 203.473C292.35 205.765 293.21 208.344 293.496 210.924C293.639 211.64 294.642 211.64 294.642 210.924C294.356 208.058 293.496 205.335 292.064 202.899C291.634 202.183 290.775 202.756 291.061 203.473Z" fill="#41577E"/>
<path d="M236.774 205.192C235.485 208.488 234.768 211.783 234.482 215.366C234.482 216.082 235.628 216.082 235.628 215.366C235.771 212.07 236.631 208.918 237.776 205.765C237.92 205.049 236.917 204.476 236.774 205.192Z" fill="#41577E"/>
<path d="M257.257 208.488C256.397 211.64 256.111 214.793 256.397 217.945C256.397 218.661 257.543 218.661 257.543 217.945C257.257 214.793 257.543 211.783 258.403 208.774C258.546 208.058 257.4 207.771 257.257 208.488Z" fill="#41577E"/>
<path d="M275.448 211.067C275.591 212.643 276.881 213.79 278.456 213.646C280.032 213.503 281.178 212.213 281.035 210.637C280.891 209.061 279.602 207.915 278.027 208.058C276.594 208.201 275.448 209.491 275.448 211.067Z" fill="#41577E"/>
<path d="M210.561 477.731L171.457 488.478L170.455 504.813L220.731 499.224L210.561 477.731Z" fill="#FF6665"/>
<path d="M165.727 545.937L154.841 488.191C155.701 487.904 156.56 487.761 157.563 487.618C157.993 487.474 158.422 487.474 158.709 487.474C166.587 485.898 183.203 482.889 181.484 486.901C175.897 491.63 180.195 500.371 180.195 500.371C180.195 500.371 188.932 504.669 187.357 509.111C185.781 513.41 180.624 509.828 177.616 515.559C175.324 520.001 178.046 524.443 177.903 530.462C177.903 532.324 177.616 534.187 176.9 536.337C175.181 541.208 172.03 543.644 169.452 544.934C167.303 545.794 165.727 545.937 165.727 545.937Z" fill="#14B74E"/>
<path d="M179.049 512.407C175.038 510.831 172.317 513.84 171.887 517.566C171.314 521.864 173.033 526.449 177.473 527.882C177.903 528.026 178.046 527.453 177.616 527.309C173.892 526.02 172.317 522.437 172.46 518.712C172.603 516.992 172.89 514.556 174.465 513.553C175.754 512.694 177.616 512.55 178.906 513.123C179.335 513.123 179.479 512.55 179.049 512.407Z" fill="#057F42"/>
<path d="M173.319 485.325C172.746 490.484 169.165 494.352 164.152 495.499C163.579 495.642 163.436 494.782 164.009 494.639C168.592 493.636 171.887 489.91 172.46 485.182C172.46 484.609 173.319 484.609 173.319 485.325Z" fill="white"/>
<path d="M165.727 545.937L154.841 488.191C155.701 487.904 156.56 487.761 157.563 487.618L158.709 487.331L169.452 544.791C167.303 545.794 165.727 545.937 165.727 545.937Z" fill="white"/>
<path d="M164.295 518.712C164.295 518.712 169.738 508.681 167.876 500.514C166.014 492.346 158.422 487.474 158.422 487.474L164.295 518.712Z" fill="white"/>
<path d="M356.092 431.878C355.949 432.308 355.805 432.737 355.662 433.167C353.8 437.753 348.93 442.911 341.911 448.499C305.958 477.444 215.288 516.419 215.288 516.419L190.221 465.981C190.221 465.981 286.048 423.567 293.21 412.104C300.372 400.784 257.83 265.374 257.83 265.374L312.117 238.149C326.298 275.118 362.967 407.518 356.092 431.878Z" fill="#222943"/>
<path d="M355.662 433.167C353.8 437.753 348.93 442.911 341.911 448.499C338.044 444.487 331.312 436.463 337.185 430.158C342.484 424.713 350.506 428.582 355.662 433.167Z" fill="#FF6665"/>
<path d="M281.465 265.088C281.178 265.088 280.892 265.088 280.892 265.088C280.605 265.088 280.319 264.658 280.462 264.371C280.462 264.085 280.892 263.798 281.178 263.941C281.178 263.941 282.181 264.085 283.04 263.368C284.043 262.508 284.616 260.932 284.759 258.639C285.046 252.191 280.605 237.862 280.462 237.719C280.319 237.432 280.605 237.003 280.892 237.003C281.178 236.859 281.608 237.146 281.608 237.432C281.751 238.006 286.191 252.048 285.905 258.783C285.762 261.505 285.046 263.368 283.756 264.514C282.897 264.944 282.038 265.088 281.465 265.088Z" fill="#41577E"/>
<path d="M318.134 258.066C297.651 257.063 298.367 225.539 298.367 225.253C298.367 224.966 298.653 224.68 298.94 224.68C299.226 224.68 299.513 224.966 299.513 225.253C299.513 225.539 298.797 255.917 318.134 256.777C318.42 256.777 318.707 257.063 318.707 257.35C318.707 257.78 318.564 258.066 318.134 258.066Z" fill="#41577E"/>
<path d="M206.121 467.557C205.977 467.27 206.121 466.841 206.407 466.697C206.694 466.554 206.98 466.411 207.41 466.267C207.696 466.124 208.126 466.267 208.269 466.554C208.412 466.841 208.269 467.27 207.983 467.414C207.696 467.557 207.41 467.7 206.98 467.844C206.837 467.844 206.837 467.844 206.694 467.844C206.407 467.987 206.121 467.844 206.121 467.557ZM210.848 465.694C210.704 465.408 210.848 464.978 211.134 464.835C212.28 464.261 213.569 463.831 214.858 463.258C215.145 463.115 215.574 463.258 215.718 463.545C215.861 463.831 215.718 464.261 215.431 464.405C214.142 464.978 212.853 465.551 211.707 465.981C211.564 465.981 211.564 465.981 211.421 465.981C211.134 465.981 210.848 465.838 210.848 465.694ZM218.296 462.399C218.153 462.112 218.296 461.682 218.582 461.539C219.872 460.966 221.017 460.392 222.307 459.819C222.593 459.676 223.023 459.819 223.166 460.106C223.309 460.393 223.166 460.822 222.88 460.966C221.59 461.539 220.301 462.112 219.155 462.685C219.012 462.685 219.012 462.685 218.869 462.685C218.582 462.685 218.439 462.542 218.296 462.399ZM225.744 458.96C225.601 458.673 225.744 458.243 226.031 458.1C227.32 457.527 228.466 456.954 229.755 456.38C230.042 456.237 230.471 456.38 230.615 456.667C230.758 456.954 230.615 457.383 230.328 457.527C229.039 458.1 227.893 458.673 226.604 459.246C226.461 459.246 226.461 459.246 226.317 459.246C226.174 459.389 225.888 459.246 225.744 458.96ZM233.193 455.521C233.05 455.234 233.193 454.804 233.479 454.661C234.768 454.088 235.914 453.515 237.204 452.941C237.49 452.798 237.92 452.941 238.063 453.228C238.206 453.515 238.063 453.944 237.776 454.088C236.487 454.661 235.341 455.234 234.052 455.807C233.909 455.807 233.909 455.807 233.766 455.807C233.623 455.807 233.336 455.664 233.193 455.521ZM240.641 451.938C240.498 451.652 240.641 451.222 240.928 451.079C242.217 450.505 243.363 449.932 244.652 449.359C244.938 449.216 245.368 449.359 245.511 449.646C245.655 449.932 245.511 450.362 245.225 450.505C244.079 451.079 242.79 451.652 241.501 452.225C241.357 452.225 241.357 452.225 241.214 452.225C240.928 452.368 240.784 452.225 240.641 451.938ZM248.09 448.356C247.946 448.07 248.09 447.64 248.376 447.496C249.665 446.923 250.811 446.35 252.1 445.634C252.387 445.49 252.817 445.634 252.96 445.92C253.103 446.207 252.96 446.637 252.673 446.78C251.527 447.353 250.238 447.926 248.949 448.643C248.806 448.643 248.806 448.643 248.663 448.643C248.376 448.786 248.09 448.643 248.09 448.356ZM255.395 444.774C255.252 444.487 255.395 444.057 255.681 443.914C256.97 443.198 258.26 442.624 259.406 442.051C259.692 441.908 260.122 442.051 260.265 442.338C260.408 442.624 260.265 443.054 259.978 443.198C258.833 443.771 257.543 444.344 256.254 445.06C256.111 445.06 256.111 445.06 255.968 445.06C255.825 445.204 255.538 445.06 255.395 444.774ZM262.843 441.192C262.7 440.905 262.843 440.475 263.13 440.332C265.422 439.185 266.854 438.469 266.854 438.469C267.14 438.326 267.57 438.469 267.713 438.756C267.857 439.042 267.713 439.472 267.427 439.615C267.427 439.615 266.138 440.332 263.703 441.478C263.559 441.478 263.559 441.478 263.416 441.478C263.13 441.621 262.843 441.478 262.843 441.192Z" fill="#41577E"/>
<path d="M201.537 461.969C208.699 478.447 216.577 494.782 224.885 510.687C225.315 511.547 224.025 512.264 223.596 511.404C215.145 495.499 207.41 479.164 200.248 462.685C199.961 461.969 201.25 461.109 201.537 461.969Z" fill="#41577E"/>
<path d="M270.149 546.653L265.708 585.055L281.751 589.211L294.5 552.958L270.149 546.653Z" fill="#FF6665"/>
<path d="M321.142 601.534H262.414C262.271 600.674 262.271 599.671 262.271 598.811C262.271 598.381 262.271 597.951 262.271 597.522C262.127 589.497 262.271 572.589 265.995 575.025C269.576 581.473 279.03 578.751 279.03 578.751C279.03 578.751 284.902 571.013 288.913 573.306C292.924 575.598 288.34 580.04 293.497 584.052C297.364 587.061 302.377 585.342 308.107 586.488C309.826 586.775 311.688 587.491 313.693 588.494C318.277 591.074 319.996 594.656 320.712 597.378C321.285 599.814 321.142 601.534 321.142 601.534Z" fill="#14B74E"/>
<path d="M290.632 582.046C288.627 585.342 290.202 588.638 293.64 589.927C298.08 591.79 303.237 590.93 305.815 586.632C306.102 586.202 305.386 585.629 305.099 586.202C303.237 589.497 299.37 590.5 295.789 589.641C292.351 588.781 289.343 586.058 291.491 582.476C291.635 581.903 290.918 581.473 290.632 582.046Z" fill="#057F42"/>
<path d="M262.987 582.763C267.857 584.196 271.152 588.494 271.295 593.653C271.295 594.226 270.435 594.226 270.435 593.653C270.292 588.924 267.284 585.055 262.7 583.622C262.128 583.479 262.414 582.619 262.987 582.763Z" fill="white"/>
<path d="M321.142 601.534H262.414C262.27 600.674 262.271 599.671 262.271 598.811V597.521H320.712C321.285 599.814 321.142 601.534 321.142 601.534Z" fill="white"/>
<path d="M294.213 597.808C294.213 597.808 285.332 590.644 277.024 590.93C268.716 591.217 262.414 597.808 262.414 597.808H294.213Z" fill="white"/>
<path d="M275.878 256.777C275.878 256.777 325.439 392.186 326.871 435.603C328.303 479.164 299.799 560.123 299.799 560.123L251.527 556.397C251.527 556.397 273.873 460.393 268 415.829C262.27 371.266 221.447 293.602 221.447 244.454L275.878 256.777Z" fill="#222943"/>
<path d="M325.582 428.295C325.582 428.295 305.958 427.292 308.68 439.186C311.401 451.079 325.582 448.786 325.582 448.786C325.582 448.786 326.442 435.603 325.582 428.295Z" fill="#FF6665"/>
<path d="M269.575 429.728C269.862 451.365 267.857 472.859 263.703 494.066C263.559 494.926 262.127 494.639 262.27 493.636C266.424 472.572 268.43 451.079 268.143 429.585C268.143 428.725 269.575 428.725 269.575 429.728Z" fill="#41577E"/>
<path d="M261.554 546.653C261.268 546.51 260.981 546.224 261.124 545.937C261.411 544.791 261.697 543.501 262.127 541.925C262.27 541.638 262.557 541.352 262.843 541.495C263.13 541.638 263.416 541.925 263.273 542.211C262.843 543.788 262.557 545.077 262.27 546.224C262.27 546.51 261.984 546.653 261.697 546.653C261.697 546.653 261.697 546.653 261.554 546.653ZM263.416 538.629C263.13 538.486 262.843 538.199 262.986 537.913C263.273 536.623 263.559 535.333 263.846 533.901C263.989 533.614 264.276 533.327 264.562 533.471C264.849 533.614 265.135 533.901 264.992 534.187C264.705 535.62 264.419 536.91 264.132 538.199C264.132 538.486 263.846 538.772 263.416 538.629C263.559 538.772 263.559 538.772 263.416 538.629ZM265.278 530.605C264.992 530.462 264.705 530.175 264.849 529.888C265.135 528.599 265.421 527.309 265.708 525.876C265.851 525.59 266.138 525.303 266.424 525.446C266.711 525.59 266.997 525.876 266.854 526.163C266.567 527.596 266.281 528.885 265.994 530.175C265.994 530.462 265.708 530.748 265.278 530.605C265.421 530.748 265.421 530.748 265.278 530.605ZM267.14 522.724C266.854 522.581 266.567 522.294 266.711 522.007C266.997 520.718 267.284 519.428 267.57 517.995C267.713 517.709 268 517.422 268.286 517.565C268.573 517.709 268.859 517.995 268.716 518.282C268.43 519.715 268.143 521.004 267.857 522.294C267.713 522.437 267.57 522.724 267.14 522.724ZM268.859 514.7C268.573 514.556 268.286 514.27 268.429 513.983C268.716 512.694 269.002 511.261 269.289 509.971C269.432 509.684 269.719 509.398 270.005 509.541C270.292 509.684 270.578 509.971 270.435 510.258C270.148 511.547 269.862 512.98 269.575 514.27C269.575 514.413 269.289 514.7 268.859 514.7ZM270.578 506.532C270.292 506.532 270.005 506.102 270.148 505.816C270.435 504.526 270.721 503.093 271.008 501.803C271.008 501.517 271.438 501.23 271.724 501.374C272.01 501.374 272.297 501.803 272.154 502.09C271.867 503.38 271.581 504.813 271.294 506.102C271.294 506.389 271.008 506.675 270.578 506.532C270.578 506.675 270.578 506.675 270.578 506.532ZM272.154 498.508C271.867 498.508 271.581 498.078 271.724 497.791C272.01 496.502 272.297 495.069 272.583 493.779C272.583 493.493 273.013 493.206 273.3 493.349C273.586 493.349 273.873 493.779 273.729 494.066C273.443 495.355 273.156 496.788 272.87 498.078C272.87 498.365 272.583 498.508 272.154 498.508C272.297 498.508 272.297 498.508 272.154 498.508ZM273.873 490.484C273.586 490.484 273.3 490.054 273.443 489.767C273.729 488.477 274.016 487.045 274.159 485.755C274.159 485.468 274.589 485.182 274.875 485.325C275.162 485.325 275.448 485.755 275.305 486.042C275.018 487.331 274.732 488.764 274.589 490.054C274.446 490.34 274.159 490.484 273.873 490.484ZM275.305 482.459C275.018 482.459 274.732 482.029 274.732 481.743C275.018 480.453 275.162 479.02 275.448 477.731C275.448 477.444 275.878 477.158 276.164 477.158C276.451 477.158 276.737 477.587 276.737 477.874C276.451 479.164 276.308 480.596 276.021 481.886C276.021 482.173 275.735 482.459 275.305 482.459C275.448 482.459 275.448 482.459 275.305 482.459ZM276.881 474.435C276.594 474.435 276.308 474.005 276.308 473.719C276.594 472.429 276.737 470.996 277.024 469.706C277.024 469.42 277.454 469.133 277.74 469.133C278.026 469.133 278.313 469.563 278.313 469.85C278.027 471.139 277.883 472.572 277.597 473.862C277.454 474.148 277.31 474.435 276.881 474.435ZM278.17 466.267C277.883 466.267 277.597 465.838 277.597 465.551C277.883 464.118 278.027 462.828 278.313 461.539C278.313 461.252 278.743 460.966 279.029 460.966C279.316 460.966 279.602 461.396 279.602 461.682C279.459 462.972 279.172 464.405 278.886 465.694C278.886 466.124 278.599 466.267 278.17 466.267C278.313 466.267 278.313 466.267 278.17 466.267ZM279.459 458.243C279.172 458.243 278.886 457.813 278.886 457.527C279.029 456.094 279.316 454.804 279.459 453.515C279.459 453.228 279.889 452.941 280.175 452.941C280.462 452.941 280.748 453.371 280.748 453.658C280.605 454.947 280.318 456.38 280.175 457.67C280.175 457.957 279.889 458.243 279.459 458.243C279.602 458.243 279.602 458.243 279.459 458.243ZM280.605 450.076C280.318 450.076 280.032 449.646 280.032 449.359C280.175 447.926 280.318 446.637 280.462 445.347C280.462 445.06 280.748 444.774 281.178 444.774C281.464 444.774 281.751 445.06 281.751 445.49C281.607 446.78 281.464 448.213 281.321 449.646C281.321 449.789 281.035 450.076 280.605 450.076C280.748 450.076 280.748 450.076 280.605 450.076ZM281.607 441.908C281.321 441.908 281.035 441.621 281.035 441.192C281.178 439.759 281.321 438.326 281.321 437.179C281.321 436.893 281.607 436.606 282.037 436.606C282.324 436.606 282.61 436.893 282.61 437.323C282.467 438.612 282.467 440.045 282.324 441.478C282.324 441.621 282.037 441.908 281.607 441.908ZM282.18 433.74C281.894 433.74 281.607 433.454 281.607 433.024C281.607 432.021 281.607 431.018 281.607 430.158C281.607 429.728 281.607 429.298 281.607 428.869C281.607 428.582 281.894 428.295 282.18 428.295C282.467 428.295 282.753 428.582 282.753 428.869C282.753 429.298 282.753 429.728 282.753 430.158C282.753 431.018 282.753 432.021 282.753 433.024C282.897 433.454 282.61 433.74 282.18 433.74ZM281.321 425C281.178 423.853 281.035 422.42 280.748 420.988C280.748 420.701 280.891 420.271 281.321 420.271C281.607 420.271 282.037 420.414 282.037 420.844C282.324 422.277 282.467 423.71 282.61 425C282.61 425.286 282.467 425.716 282.037 425.716C282.037 425.716 282.037 425.716 281.894 425.716C281.607 425.43 281.464 425.286 281.321 425ZM280.032 416.832C279.745 415.543 279.459 414.253 279.172 412.82C279.029 412.533 279.316 412.104 279.602 412.104C279.889 411.96 280.318 412.247 280.318 412.533C280.605 413.966 280.891 415.256 281.178 416.546C281.321 416.832 281.035 417.262 280.748 417.262H280.605C280.318 417.405 280.032 417.119 280.032 416.832ZM278.17 408.951C277.883 407.662 277.454 406.372 277.167 404.939C277.024 404.652 277.31 404.223 277.597 404.223C277.883 404.079 278.313 404.366 278.313 404.652C278.743 406.085 279.029 407.375 279.316 408.665C279.459 408.951 279.172 409.381 278.886 409.381H278.743C278.456 409.381 278.17 409.238 278.17 408.951ZM276.021 400.927C275.735 399.637 275.305 398.348 274.875 396.915C274.732 396.628 275.018 396.198 275.305 396.198C275.591 396.055 276.021 396.342 276.021 396.628C276.451 397.918 276.737 399.351 277.167 400.64C277.31 400.927 277.024 401.357 276.737 401.357H276.594C276.308 401.5 276.164 401.213 276.021 400.927ZM273.729 393.046C273.3 391.756 273.013 390.467 272.583 389.177C272.44 388.891 272.727 388.461 273.013 388.461C273.3 388.317 273.729 388.604 273.729 388.891C274.159 390.18 274.446 391.47 274.875 392.903C275.018 393.189 274.732 393.619 274.446 393.619H274.302C274.159 393.476 273.873 393.332 273.729 393.046ZM271.438 385.165C271.008 383.875 270.578 382.586 270.292 381.296C270.148 381.01 270.435 380.58 270.721 380.58C271.008 380.436 271.438 380.723 271.438 381.01C271.867 382.299 272.297 383.589 272.583 384.878C272.727 385.165 272.44 385.595 272.154 385.595H272.01C271.724 385.738 271.581 385.452 271.438 385.165ZM269.002 377.427C268.573 376.138 268.143 374.848 267.713 373.558C267.57 373.272 267.857 372.842 268.143 372.699C268.429 372.555 268.859 372.842 269.002 373.129C269.432 374.418 269.862 375.708 270.292 376.997C270.435 377.284 270.148 377.714 269.862 377.857H269.719C269.432 377.857 269.146 377.714 269.002 377.427ZM266.567 369.546C266.138 368.257 265.708 366.967 265.278 365.677C265.135 365.391 265.421 364.961 265.708 364.818C265.994 364.674 266.424 364.961 266.567 365.248C266.997 366.537 267.427 367.827 267.857 369.116C268 369.403 267.713 369.833 267.427 369.976H267.284C266.854 369.976 266.711 369.833 266.567 369.546ZM264.132 361.809C263.703 360.519 263.273 359.229 262.843 357.94C262.7 357.653 262.986 357.223 263.273 357.08C263.559 356.937 263.989 357.223 264.132 357.51C264.562 358.799 264.992 360.089 265.421 361.379C265.565 361.665 265.278 362.095 264.992 362.238H264.849C264.419 362.238 264.132 361.952 264.132 361.809ZM261.554 353.928C261.124 352.638 260.695 351.348 260.265 350.059C260.122 349.772 260.265 349.342 260.695 349.199C260.981 349.056 261.411 349.199 261.554 349.629C261.984 350.919 262.413 352.208 262.843 353.498C262.986 353.784 262.843 354.214 262.413 354.357H262.27C261.841 354.357 261.554 354.214 261.554 353.928ZM258.976 346.19C258.546 344.9 258.116 343.611 257.687 342.321C257.543 342.035 257.687 341.605 258.116 341.461C258.403 341.318 258.832 341.461 258.976 341.891C259.405 343.181 259.835 344.47 260.265 345.76C260.408 346.047 260.265 346.477 259.835 346.62H259.692C259.262 346.62 258.976 346.477 258.976 346.19ZM256.254 338.452C255.824 337.163 255.395 335.873 254.965 334.583C254.822 334.297 254.965 333.867 255.395 333.724C255.681 333.58 256.111 333.724 256.254 334.154C256.684 335.443 257.114 336.733 257.543 338.022C257.687 338.309 257.543 338.739 257.114 338.882H256.97C256.684 338.882 256.397 338.596 256.254 338.452ZM253.676 330.571C253.246 329.282 252.816 327.992 252.387 326.702C252.243 326.416 252.387 325.986 252.816 325.843C253.103 325.699 253.533 325.843 253.676 326.273C254.106 327.562 254.535 328.852 254.965 330.141C255.108 330.428 254.965 330.858 254.535 331.001H254.392C253.962 331.001 253.676 330.858 253.676 330.571ZM250.954 322.834C250.525 321.544 250.095 320.254 249.665 318.965C249.522 318.678 249.665 318.248 250.095 318.105C250.381 317.962 250.811 318.105 250.954 318.535C251.384 319.824 251.814 321.114 252.244 322.404C252.387 322.69 252.244 323.12 251.814 323.263H251.671C251.241 323.263 251.098 323.12 250.954 322.834ZM248.233 315.096C247.803 313.806 247.373 312.517 246.944 311.227C246.8 310.94 246.944 310.511 247.373 310.367C247.66 310.224 248.09 310.367 248.233 310.797C248.663 312.087 249.092 313.376 249.522 314.666C249.665 314.953 249.522 315.382 249.092 315.526H248.949C248.519 315.526 248.376 315.382 248.233 315.096ZM245.511 307.358C245.082 306.069 244.652 304.779 244.079 303.489C243.936 303.203 244.079 302.773 244.509 302.63C244.795 302.486 245.225 302.63 245.368 303.059C245.798 304.349 246.227 305.639 246.8 306.928C246.944 307.215 246.8 307.645 246.371 307.788H246.227C245.798 307.788 245.655 307.645 245.511 307.358ZM242.79 299.621C242.36 298.331 241.787 297.041 241.357 295.752C241.214 295.465 241.357 295.035 241.787 294.892C242.074 294.749 242.503 294.892 242.646 295.322C243.076 296.611 243.506 297.901 244.079 299.191C244.222 299.477 244.079 299.907 243.649 300.05H243.506C243.076 300.05 242.933 299.907 242.79 299.621ZM240.068 291.883C239.638 290.593 239.066 289.304 238.636 288.014C238.493 287.727 238.636 287.298 239.066 287.154C239.352 287.011 239.782 287.154 239.925 287.584C240.355 288.874 240.784 290.163 241.357 291.453C241.501 291.74 241.357 292.169 240.928 292.313H240.784C240.355 292.313 240.068 292.169 240.068 291.883ZM237.203 284.145C236.63 282.712 236.201 281.423 235.771 280.276C235.628 279.99 235.771 279.56 236.201 279.417C236.487 279.273 236.917 279.417 237.06 279.846C237.49 280.993 237.92 282.282 238.493 283.715C238.636 284.002 238.493 284.432 238.063 284.575C238.063 284.575 237.92 284.575 237.776 284.575C237.49 284.575 237.347 284.432 237.203 284.145ZM234.339 276.407C233.479 273.828 232.906 272.539 232.906 272.539C232.763 272.252 232.906 271.822 233.336 271.679C233.622 271.536 234.052 271.679 234.195 272.109C234.195 272.109 234.768 273.542 235.628 275.978C235.771 276.264 235.628 276.694 235.198 276.837C235.198 276.837 235.055 276.837 234.912 276.837C234.768 276.837 234.482 276.694 234.339 276.407Z" fill="#41577E"/>
<path d="M239.782 237.146C243.936 244.024 245.082 252.765 242.503 260.502C240.068 267.523 234.912 273.542 228.179 276.837C227.32 277.267 226.604 275.978 227.463 275.548C233.766 272.395 238.922 266.807 241.214 260.072C243.649 252.765 242.646 244.454 238.636 237.862C238.063 237.146 239.209 236.429 239.782 237.146Z" fill="#41577E"/>
<path d="M301.088 554.105C286.048 552.672 271.151 551.239 256.111 549.806C255.251 549.663 255.251 548.23 256.111 548.373C271.151 549.806 286.048 551.239 301.088 552.672C301.947 552.672 301.947 554.105 301.088 554.105Z" fill="#41577E"/>
<path d="M274.589 238.865C282.037 269.1 291.634 298.618 301.088 328.279C309.253 353.784 317.847 379.29 323.433 405.369C327.158 423.137 329.593 441.765 324.15 459.533C323.863 460.393 322.574 459.963 322.717 459.103C327.587 443.054 326.012 426.003 322.86 409.811C320.425 397.345 317.131 385.165 313.55 372.985C305.242 344.9 295.788 317.102 287.194 289.017C282.181 272.539 277.31 255.917 273.157 239.295C273.013 238.435 274.446 238.006 274.589 238.865Z" fill="#41577E"/>
<path d="M307.821 196.165C307.821 196.165 303.953 199.89 296.362 204.619C295.932 204.906 295.645 205.049 295.216 205.335C289.343 208.918 281.465 212.786 271.581 216.225C271.152 216.369 270.722 216.512 270.292 216.655C262.7 219.235 253.82 221.384 243.936 222.674C243.506 222.674 243.077 222.817 242.647 222.817C234.196 223.82 225.029 224.393 215.002 223.963C215.002 223.963 221.734 221.097 223.31 212.5C223.453 212.07 223.453 211.64 223.453 211.21C223.883 206.768 223.023 201.18 219.442 193.729C216.721 188.14 213.426 182.695 209.989 177.394C199.102 160.629 187.07 146.3 187.07 140.281C187.07 135.266 195.235 127.529 203.4 120.937C205.548 119.218 207.697 117.498 209.702 116.065C215.145 112.053 219.299 109.187 219.299 109.187L238.923 105.892C238.923 105.892 245.798 107.181 253.963 108.614C254.249 108.614 254.393 108.758 254.679 108.758C259.406 109.617 264.419 110.334 268.716 111.05C269.003 111.48 272.154 117.785 274.589 128.245C275.019 129.965 275.449 131.827 275.735 133.833C275.735 133.977 275.735 134.12 275.735 134.263C275.735 134.55 275.878 134.693 275.878 134.98V135.123C276.165 136.413 276.308 137.702 276.451 138.992C277.024 143.434 278.457 148.879 280.319 154.754C280.462 155.184 280.605 155.614 280.749 155.9C282.038 159.769 283.757 163.924 285.475 167.793C286.765 170.659 288.197 173.525 289.773 176.247C290.059 176.677 290.202 177.107 290.489 177.394C295.645 186.134 301.518 193.156 307.821 196.165Z" fill="#651FFF"/>
<path d="M285.762 168.08C284.903 169.656 284.043 170.802 283.614 171.662C282.611 173.525 280.892 166.074 279.173 156.76C279.03 156.33 279.03 155.9 278.887 155.47C277.598 148.592 276.452 140.855 275.592 135.41C275.592 135.266 275.592 134.98 275.449 134.836C275.449 134.55 275.449 134.407 275.306 134.12C274.876 131.541 274.59 129.391 274.446 128.388C274.446 128.245 274.446 128.102 274.446 128.102C274.59 128.962 275.162 131.111 276.881 133.833C277.168 134.263 277.311 134.55 277.598 134.98C278.027 135.696 278.6 136.413 279.316 137.129C280.749 138.849 282.754 140.711 285.189 142.431C287.481 144.15 289.057 146.156 289.916 148.306C290.059 148.736 290.203 149.166 290.346 149.595C292.351 156.043 288.484 163.351 285.762 168.08Z" fill="#651FFF"/>
<path d="M223.167 115.206C222.45 124.663 220.302 139.278 208.127 139.995C207.41 139.995 207.41 141.284 208.127 141.284C213.283 140.998 217.58 137.702 220.159 133.403C223.453 127.958 223.883 121.367 224.456 115.206C224.456 114.346 223.31 114.346 223.167 115.206Z" fill="#651FFF"/>
<path d="M277.884 134.98C277.311 135.123 276.738 135.266 276.165 135.41C276.022 135.41 275.879 135.41 275.735 135.553C275.306 135.696 275.019 135.696 274.589 135.839C269.29 137.272 264.133 138.132 258.547 137.129C248.663 135.266 239.926 128.675 235.772 119.504C235.485 118.788 236.488 118.215 236.774 118.931C241.215 128.818 251.241 135.696 262.128 136.269C266.711 136.556 271.008 135.266 275.449 134.263C275.592 134.263 275.735 134.263 275.879 134.12C276.308 133.977 276.595 133.977 277.024 133.833C277.311 134.12 277.597 134.55 277.884 134.98Z" fill="#651FFF"/>
<path d="M208.986 160.056C215.431 160.772 221.448 164.354 224.742 169.943C228.466 175.961 228.753 183.699 225.601 190.147C225.315 190.863 226.318 191.436 226.604 190.72C229.899 183.985 229.612 175.674 225.745 169.226C222.164 163.351 215.718 159.482 208.843 158.766C208.27 158.623 208.27 159.912 208.986 160.056Z" fill="#651FFF"/>
<path d="M290.489 149.595C288.054 152.318 284.903 154.467 281.465 155.9C281.322 155.9 281.178 156.043 280.892 156.043C280.319 156.33 279.603 156.473 279.03 156.76C268.573 160.056 257.401 157.046 247.517 152.891C237.347 148.592 223.74 142.861 214.143 151.458C213.57 152.031 212.71 151.171 213.283 150.598C217.294 146.873 222.737 145.583 228.18 145.726C240.069 146.3 250.239 153.894 261.841 156.043C267.428 157.046 273.444 156.903 278.887 155.184C279.46 155.04 280.033 154.754 280.605 154.61C284.186 153.178 287.481 151.028 290.059 148.019C290.202 148.736 290.346 149.165 290.489 149.595Z" fill="#651FFF"/>
<path d="M296.362 204.619C295.932 204.905 295.646 205.049 295.216 205.335C291.492 202.613 288.77 198.887 287.338 194.445C285.476 188.427 286.622 181.692 290.059 176.534C290.346 176.964 290.489 177.394 290.775 177.68C287.767 182.552 286.908 188.57 288.627 194.159C289.773 198.314 292.638 202.04 296.362 204.619Z" fill="#651FFF"/>
<path d="M271.581 216.225C271.151 216.369 270.722 216.512 270.292 216.655C270.865 210.637 268.573 204.189 263.99 199.747C254.679 190.576 240.498 191.006 229.899 197.598C229.182 198.028 228.61 196.881 229.326 196.595C234.626 193.299 240.785 191.436 246.944 191.579C256.684 191.723 266.281 197.454 270.149 206.625C271.295 209.491 271.868 212.93 271.581 216.225Z" fill="#651FFF"/>
<path d="M243.936 222.673C243.506 222.673 243.077 222.817 242.647 222.817C241.215 219.664 238.923 216.942 235.915 215.079C232.191 212.643 227.607 211.783 223.167 212.5C223.31 212.07 223.31 211.64 223.31 211.21C227.893 210.637 232.477 211.497 236.488 213.933C239.925 216.082 242.361 219.091 243.936 222.673Z" fill="#651FFF"/>
<path d="M255.682 163.638C250.239 164.784 245.655 170.086 247.374 175.817C249.093 181.692 256.541 183.125 261.841 182.122C267.141 181.119 271.295 176.391 269.719 170.802C268.001 164.641 261.698 162.921 255.968 163.638C255.252 163.781 255.252 164.927 255.968 164.927C260.695 164.354 265.709 165.071 268.001 169.656C270.436 174.528 267.284 179.543 262.128 180.833C257.544 181.979 250.382 180.976 248.663 175.817C246.944 170.659 251.242 165.93 256.112 164.784C256.828 164.641 256.541 163.494 255.682 163.638Z" fill="#651FFF"/>
<path d="M279.602 137.129C278.457 136.556 277.311 135.983 276.165 135.123C276.022 134.98 275.878 134.836 275.735 134.836C266.997 128.675 258.403 115.779 254.106 108.758C254.392 108.758 254.536 108.901 254.822 108.901C259.549 109.761 264.562 110.477 268.86 111.194C269.146 111.623 272.297 117.928 274.876 128.388C274.876 128.245 274.876 128.102 274.876 127.959C274.876 129.105 275.735 132.687 279.602 137.129Z" fill="#FF6665"/>
<path d="M270.865 120.651C272.441 125.952 275.019 130.824 278.457 135.123C278.886 135.553 279.459 134.98 279.173 134.407C275.878 130.251 273.443 125.523 271.868 120.364C271.581 119.791 270.722 120.077 270.865 120.651Z" fill="#CF3736"/>
<path d="M209.989 177.537C199.102 160.772 187.07 146.443 187.07 140.425C187.07 135.41 195.235 127.672 203.4 121.081C208.126 123.803 220.445 137.989 222.594 150.025C226.031 167.793 215.718 172.235 209.989 177.537Z" fill="#FF6665"/>
<path d="M199.102 160.629C203.686 159.196 208.413 158.193 213.14 157.476C213.856 157.333 213.569 156.187 212.853 156.33C208.126 157.046 203.399 158.193 198.816 159.482C198.1 159.626 198.386 160.915 199.102 160.629Z" fill="#CF3736"/>
<path d="M216.578 100.733C216.578 100.733 212.997 91.276 199.389 84.9713C185.781 78.6665 182.487 56.5997 195.522 44.7066C198.816 41.6975 202.54 40.6945 204.116 38.6884C215.002 25.649 231.618 32.5269 239.639 38.2586C249.236 44.9932 244.652 53.7339 244.08 61.6149C243.793 69.3526 216.578 100.733 216.578 100.733Z" fill="#222943"/>
<path d="M215.861 116.352C222.021 121.94 251.385 132.687 243.936 109.331L240.212 101.45L236.201 92.8522L233.337 86.834L211.278 80.9591L215.861 116.352Z" fill="#FF6665"/>
<path d="M218.296 90.4163C230.472 103.742 239.782 107.181 242.361 106.178L236.201 93.1388L218.296 90.4163Z" fill="#222943"/>
<path d="M204.116 78.5232C207.554 84.2548 209.845 85.9743 216.148 90.8462C221.734 95.1449 229.469 96.0047 233.193 95.4315C246.658 92.9956 251.385 86.1176 244.939 68.6362C241.071 57.8894 242.504 50.8681 238.493 47.2859C238.207 47.1426 238.063 46.9993 237.777 46.856C232.047 43.5603 225.172 42.7006 218.726 44.4201C186.641 52.4443 199.102 70.2124 204.116 78.5232Z" fill="#FF6665"/>
<path d="M226.605 70.0691C227.75 69.2094 229.183 69.3526 230.185 70.3557C230.758 70.9288 231.618 70.0691 231.045 69.4959C229.613 67.9197 227.321 67.9197 225.745 69.2093C225.172 69.7825 226.032 70.6423 226.605 70.0691Z" fill="#222943"/>
<path d="M237.49 67.7764C237.634 66.7734 238.493 66.0569 239.496 66.3435C240.212 66.4868 240.642 65.3405 239.782 65.1972C238.063 64.9106 236.488 66.0569 236.344 67.9197C236.201 68.6361 237.347 68.6361 237.49 67.7764Z" fill="#222943"/>
<path d="M236.345 73.5081C237.061 73.2215 238.493 72.2184 238.063 70.7855C237.634 69.3526 236.345 69.0661 235.342 69.0661L234.196 67.3466C234.053 67.2033 233.766 67.06 233.623 67.2033C233.48 67.3466 233.337 67.6331 233.48 67.7764L234.769 69.6392C234.912 69.7825 235.055 69.9258 235.199 69.7825C235.199 69.7825 236.774 69.4959 237.204 70.7855C237.49 71.9319 236.058 72.505 236.058 72.505C235.772 72.6483 235.772 72.7916 235.772 73.0782C235.915 73.5081 236.201 73.6513 236.345 73.5081Z" fill="#222943"/>
<path d="M234.912 41.8408C234.912 41.8408 244.939 46.2828 242.217 49.1486C239.496 52.0144 222.451 40.1213 214.429 60.182C212.424 65.1972 216.291 69.4959 208.7 73.3647C201.108 77.2336 199.246 76.6604 196.095 70.069C192.8 63.4777 197.527 46.1395 213.999 41.8408C230.758 37.3988 234.912 41.8408 234.912 41.8408Z" fill="#222943"/>
<path d="M225.888 46.856C225.888 46.856 228.18 63.3344 211.278 67.9197C194.376 72.505 202.254 45.7097 225.888 46.856Z" fill="#222943"/>
<path d="M201.824 57.4595C203.829 57.1729 207.553 57.6028 209.559 58.6058C210.991 63.3344 217.58 75.2275 212.424 77.8067C204.832 81.6756 206.264 87.2639 199.102 74.6543C196.381 69.7825 195.092 62.7612 196.524 58.1759C198.243 58.0326 199.962 57.7461 201.824 57.4595Z" fill="#222943"/>
<path d="M239.496 84.9713C238.35 85.831 236.918 86.2609 235.628 85.5445C234.912 85.2579 235.485 84.1116 236.201 84.5414C237.204 84.9713 238.064 84.5414 238.923 83.9683C239.496 83.5384 240.212 84.5414 239.496 84.9713Z" fill="#CF3736"/>
<path d="M221.018 75.8007C221.304 76.8037 223.023 77.0903 224.742 76.5171C226.461 75.9439 227.75 74.7976 227.464 73.7946C227.177 72.7916 225.458 72.505 223.739 73.0781C221.877 73.6513 220.731 74.9409 221.018 75.8007Z" fill="#CF3736"/>
<path d="M240.069 71.3586C240.355 72.3617 242.074 72.6483 243.793 72.0751C244.653 71.7885 245.369 71.3586 245.942 70.9288C245.655 70.069 245.369 69.3526 245.082 68.4928C245.082 68.4928 245.082 68.4928 245.082 68.3495C244.509 68.2063 243.65 68.3495 242.934 68.6361C240.928 69.2093 239.782 70.3556 240.069 71.3586Z" fill="#CF3736"/>
<path d="M227.75 63.1911C226.318 63.0478 224.742 63.7642 224.599 65.3404C224.456 66.7733 222.164 66.9166 222.307 65.3404C222.594 62.4746 225.029 60.4686 227.894 60.7551C229.183 60.8984 229.326 63.1911 227.75 63.1911Z" fill="#222943"/>
<path d="M240.069 62.3313C238.923 61.4716 237.347 60.3253 235.915 61.185C234.626 61.9015 233.337 59.8954 234.626 59.179C236.918 57.8893 239.209 58.8924 241.215 60.3253C242.504 61.0417 241.358 63.1911 240.069 62.3313Z" fill="#222943"/>
<path d="M241.358 75.3708C241.358 75.3708 237.347 77.3769 229.04 77.6635C229.04 77.6635 231.761 84.5414 237.491 82.822C242.504 81.3891 241.358 75.3708 241.358 75.3708Z" fill="white"/>
<path d="M218.01 79.8128C218.153 77.2336 217.007 74.9409 215.002 73.2214C212.567 71.0721 208.126 68.063 205.262 69.3526C200.965 71.2154 201.537 75.3708 203.256 79.3829C204.832 83.2518 209.129 87.8371 214.429 85.4011C217.007 84.1115 217.867 81.9621 218.01 79.8128Z" fill="#FF6665"/>
<path d="M209.988 83.6816C209.988 84.6847 209.129 85.5444 208.126 85.5444C207.124 85.5444 206.264 84.6847 206.264 83.6816C206.264 82.6786 207.124 81.8188 208.126 81.8188C209.129 81.8188 209.988 82.6786 209.988 83.6816Z" fill="white"/>
<path d="M211.851 80.8159C211.564 79.0964 211.278 77.3769 210.275 75.944C209.273 74.6544 207.124 73.0782 205.548 74.0812C204.975 74.5111 204.259 73.6513 204.832 73.2215C206.408 72.2184 208.413 72.7916 209.846 73.9379C211.851 75.6574 212.567 78.2366 212.997 80.6726C212.997 81.2457 211.994 81.389 211.851 80.8159Z" fill="#222943"/>
<path d="M222.02 58.8923C222.02 58.8923 222.164 63.0478 219.156 69.3525C218.01 71.6452 217.15 74.511 220.015 79.0963C225.315 87.6937 216.864 93.1388 216.864 93.1388C216.864 93.1388 220.445 85.9743 216.721 81.9621C211.994 76.6604 209.702 64.4807 213.14 62.4746C216.577 60.6118 222.02 58.8923 222.02 58.8923Z" fill="#222943"/>
<path d="M223.882 185.131C221.877 180.689 219.585 176.247 216.864 172.092C216.577 172.379 216.434 172.665 216.147 172.808C218.726 176.964 220.874 181.263 222.88 185.561C226.461 193.156 229.612 201.466 230.758 209.921C230.901 210.637 231.904 210.351 231.761 209.634C230.758 201.18 227.463 192.869 223.882 185.131Z" fill="#222943"/>
<path d="M189.648 135.553C189.648 135.553 163.292 187.997 161 184.988C158.422 181.549 114.878 123.373 114.878 123.373L104.278 130.251C104.278 130.251 140.374 222.53 160.571 222.53C174.035 222.53 218.01 150.885 218.01 150.885L189.648 135.553Z" fill="#FF6665"/>
<path d="M112.586 122.513C113.302 122.657 114.018 122.8 114.735 123.087C113.302 121.51 111.583 119.648 109.721 117.928C105.424 113.916 103.848 107.468 101.7 111.623C99.6945 115.492 103.419 121.367 103.419 123.803C106.427 123.087 109.435 121.94 112.586 122.513Z" fill="#D23E3C"/>
<path d="M80.3572 121.51C80.3572 121.51 74.7709 115.349 76.3465 113.629C78.0653 111.91 81.9328 117.068 84.7976 118.788C87.6624 120.507 94.8243 125.523 94.8243 125.523L80.3572 121.51Z" fill="#D23E3C"/>
<path d="M116.167 122.084C115.021 121.367 113.732 120.937 112.299 120.651C109.148 120.221 105.997 121.367 102.989 122.084C101.557 124.949 95.8269 123.66 86.6597 120.651C74.0546 116.495 72.9087 118.645 73.3384 119.504C74.9141 122.513 81.0733 123.946 90.2406 128.818C99.4079 133.833 110.724 134.836 116.597 134.263C116.597 134.263 119.175 133.403 119.032 128.961C119.175 129.105 119.175 124.806 116.167 122.084Z" fill="#FF6665"/>
<path d="M205.405 170.802C209.415 164.497 213.426 158.193 217.58 151.888C218.01 151.171 216.864 150.598 216.434 151.171C212.423 157.476 208.413 163.781 204.259 170.086C203.829 170.802 204.975 171.519 205.405 170.802Z" fill="#CF3736"/>
<path d="M161.287 185.275C159.998 189.144 160.141 193.299 161.86 197.025C162.147 197.741 163.293 197.168 163.006 196.451C161.574 193.012 161.43 189.287 162.576 185.705C162.72 184.845 161.574 184.558 161.287 185.275Z" fill="#CF3736"/>
<path d="M160.428 188.141C159.138 189.144 157.993 190.29 157.133 191.723C156.703 192.439 157.706 193.012 158.136 192.439C158.995 191.15 159.998 190.147 161.144 189.144C161.86 188.714 161.144 187.711 160.428 188.141Z" fill="#CF3736"/>
<path d="M215.288 60.0387C213.14 61.0417 212.71 71.9318 221.591 76.5171C226.318 78.953 232.62 69.4958 236.774 69.6391C240.928 69.7824 246.514 75.2275 250.525 68.0629C252.387 64.9105 251.384 54.0205 248.806 52.1577C246.084 50.2949 217.007 58.8923 215.288 60.0387Z" fill="#651FFF"/>
<path d="M214.142 63.4776C214.142 63.4776 205.405 66.7733 201.108 63.3344C201.108 63.3344 200.535 64.9105 201.108 67.9196C201.108 67.9196 206.551 70.6422 215.288 67.3465L214.142 63.4776Z" fill="#651FFF"/>
<path d="M220.588 64.0508C225.315 62.7612 237.491 59.6088 246.515 57.4595C247.66 57.1729 248.806 58.0326 249.093 59.179V59.3223C249.236 60.3253 248.52 61.3283 247.517 61.6149C242.934 62.7612 230.758 65.7703 221.591 68.2063C220.588 68.4928 219.442 67.9197 219.156 66.7734C218.869 65.4837 219.586 64.3374 220.588 64.0508Z" fill="#00E5FF"/>
<path d="M472.115 541.782L469.394 557.543L469.107 558.833L465.813 577.318L465.526 578.894L462.518 596.089C462.232 597.522 461.659 598.954 460.799 599.957C460.513 600.387 460.083 600.674 459.796 601.104C458.221 602.537 456.215 603.396 453.924 603.396H414.676C413.674 603.396 412.671 603.253 411.811 602.967C411.382 602.823 411.095 602.68 410.666 602.537C408.23 601.247 406.512 599.098 406.082 596.232L404.793 589.067L404.506 587.348L403.504 581.473L403.217 580.04L398.92 555.394L398.633 554.105L396.485 541.925C396.485 540.062 422.698 539.202 444.327 539.632C444.756 539.632 445.329 539.632 445.759 539.632C447.478 539.632 449.054 539.632 450.772 539.775C451.202 539.775 451.632 539.775 452.062 539.775C463.377 540.062 472.115 540.778 472.115 541.782Z" fill="#E0F7FA"/>
<path d="M411.239 569.007C410.809 574.165 407.658 577.461 404.077 580.757L403.504 581.33L403.217 579.897C404.22 579.037 405.223 578.177 406.225 577.174C410.236 573.019 411.525 566.571 408.517 561.412C406.512 557.83 402.788 555.681 398.92 555.108L398.634 553.818C405.939 554.678 411.955 561.126 411.239 569.007Z" fill="#00E5FF"/>
<path d="M463.091 554.534C459.653 552.242 456.789 548.946 454.783 545.364C454.354 544.647 453.924 543.931 453.494 543.214H452.205C452.492 543.788 452.778 544.361 453.064 544.934C455.5 549.376 458.794 553.388 463.091 556.111C464.953 557.257 467.102 558.26 469.107 558.976L469.394 557.687C467.102 556.827 464.953 555.824 463.091 554.534Z" fill="#00E5FF"/>
<path d="M449.054 565.998C442.465 563.705 435.159 563.275 428.714 560.266C422.554 557.257 416.682 549.949 420.406 543.214H418.973C417.111 547.227 418.114 552.099 420.692 555.537C424.273 560.266 430.146 562.559 435.732 563.992C442.321 565.568 448.91 566.714 454.926 570.01C458.937 572.159 462.804 575.168 465.526 579.037L465.813 577.461C465.096 576.458 464.237 575.598 463.377 574.738C459.367 570.583 454.353 567.86 449.054 565.998Z" fill="#00E5FF"/>
<path d="M460.799 599.957C460.513 600.387 460.083 600.674 459.797 601.104C458.364 591.073 450.343 582.476 440.459 579.467C429 575.885 411.812 577.891 404.793 588.924L404.506 587.205C407.371 583.336 411.668 580.613 416.252 578.894C427.281 574.882 440.746 575.885 450.343 583.049C455.643 587.205 459.51 593.366 460.799 599.957Z" fill="#00E5FF"/>
<path d="M445.473 603.396H444.184C443.897 601.964 443.324 600.674 442.608 599.384C440.03 594.942 435.303 592.363 430.29 592.077C422.268 591.503 415.679 596.375 411.955 602.967C411.525 602.823 411.239 602.68 410.809 602.537C414.963 595.086 422.698 589.784 431.722 591.073C436.879 591.79 441.605 594.656 444.041 599.384C444.613 600.531 445.186 601.964 445.473 603.396Z" fill="#00E5FF"/>
<path d="M445.616 543.214C446.476 546.797 445.903 550.522 442.178 552.672C436.019 556.111 432.152 548.23 430.29 543.214H429C431.006 548.66 435.16 557.114 442.322 553.961C446.905 551.955 447.765 547.513 446.905 543.214H445.616Z" fill="#00E5FF"/>
<path d="M434.587 544.647C452.386 544.647 466.815 543.942 466.815 543.071C466.815 542.201 452.386 541.495 434.587 541.495C416.787 541.495 402.358 542.201 402.358 543.071C402.358 543.942 416.787 544.647 434.587 544.647Z" fill="#00E5FF"/>
<path d="M411.382 489.91C411.382 489.91 378.294 483.319 368.983 460.249C359.673 437.18 393.62 419.698 411.382 432.164C430.433 445.49 411.382 489.91 411.382 489.91Z" fill="#E0F7FA"/>
<path d="M430.146 542.068C425.419 521.291 414.39 494.782 405.366 475.151C394.336 451.079 383.88 431.878 383.737 431.734C383.594 431.448 383.164 431.305 382.877 431.448C382.591 431.591 382.448 432.021 382.591 432.308C382.734 432.451 393.047 451.652 404.22 475.725C413.101 495.212 424.13 521.434 428.857 542.068H430.146Z" fill="#00E5FF"/>
<path d="M410.093 487.761C409.95 487.761 409.663 487.618 409.52 487.474C395.053 460.536 371.705 441.048 371.418 440.905C371.132 440.762 371.132 440.332 371.275 440.045C371.418 439.759 371.848 439.759 372.135 439.902C372.421 440.045 395.912 459.676 410.523 486.758C410.666 487.045 410.523 487.474 410.236 487.618C410.379 487.761 410.236 487.761 410.093 487.761Z" fill="#00E5FF"/>
<path d="M410.809 489.624C410.666 489.624 410.523 489.624 410.379 489.481C399.923 477.158 389.037 469.42 381.875 465.121C374.14 460.536 368.697 458.816 368.697 458.673C368.41 458.53 368.267 458.243 368.267 457.957C368.41 457.67 368.697 457.527 368.983 457.527C369.27 457.527 374.57 459.246 382.448 463.975C389.753 468.274 400.639 476.155 411.239 488.621C411.382 488.907 411.382 489.194 411.239 489.481C411.096 489.624 410.952 489.624 410.809 489.624Z" fill="#00E5FF"/>
<path d="M407.944 482.603C407.658 482.603 407.514 482.459 407.371 482.173C399.35 458.386 402.215 429.585 402.358 429.298C402.358 429.012 402.644 428.725 403.074 428.725C403.361 428.725 403.647 429.012 403.647 429.442C403.647 429.728 400.639 458.386 408.66 481.743C408.804 482.029 408.66 482.459 408.231 482.459C408.087 482.603 407.944 482.603 407.944 482.603Z" fill="#00E5FF"/>
<path d="M409.95 487.331C409.663 487.331 409.377 487.188 409.377 486.758C406.941 471.713 408.804 459.533 410.809 451.795C412.957 443.484 415.822 438.899 415.822 438.612C415.965 438.326 416.395 438.182 416.682 438.469C416.968 438.612 417.111 439.042 416.825 439.329C416.825 439.329 413.96 444.057 411.812 452.225C409.806 459.676 407.944 471.856 410.379 486.615C410.522 486.901 410.379 487.188 409.95 487.331Z" fill="#00E5FF"/>
<path d="M446.332 496.072C446.332 496.072 479.85 491.487 490.45 468.99C501.049 446.493 468.248 427.149 449.77 438.469C430.003 450.505 446.332 496.072 446.332 496.072Z" fill="#E0F7FA"/>
<path d="M478.131 439.329C477.845 439.186 477.558 439.186 477.272 439.472C477.128 439.615 466.242 454.804 455.356 475.581C448.91 487.904 443.897 499.654 440.173 510.688C436.305 522.007 434.014 532.468 433.297 542.068H434.443C436.305 518.855 447.192 493.779 456.359 476.155C467.245 455.377 478.131 440.332 478.131 440.045C478.561 439.902 478.418 439.472 478.131 439.329Z" fill="#00E5FF"/>
<path d="M447.765 493.779C447.621 493.779 447.478 493.779 447.478 493.636C447.192 493.493 447.048 493.063 447.335 492.776C463.378 466.554 488.158 448.356 488.444 448.213C488.731 448.07 489.017 448.07 489.304 448.356C489.447 448.643 489.447 448.929 489.161 449.216C488.874 449.359 464.38 467.414 448.338 493.493C448.194 493.779 448.051 493.779 447.765 493.779Z" fill="#00E5FF"/>
<path d="M447.048 495.785C446.905 495.785 446.762 495.785 446.619 495.642C446.332 495.355 446.332 495.069 446.619 494.782C457.935 482.889 469.394 475.725 476.842 471.856C485.007 467.7 490.45 466.267 490.593 466.124C490.88 465.981 491.309 466.267 491.309 466.554C491.452 466.841 491.166 467.271 490.88 467.271C490.88 467.271 485.293 468.703 477.272 472.859C469.823 476.728 458.651 483.749 447.478 495.499C447.335 495.642 447.192 495.785 447.048 495.785Z" fill="#00E5FF"/>
<path d="M450.343 488.907C450.2 488.907 450.2 488.907 450.057 488.907C449.77 488.764 449.627 488.478 449.77 488.191C459.081 465.264 457.935 436.463 457.935 436.176C457.935 435.89 458.221 435.603 458.508 435.603C458.794 435.603 459.081 435.89 459.081 436.176C459.081 436.463 460.37 465.408 450.916 488.621C450.773 488.764 450.629 488.907 450.343 488.907Z" fill="#00E5FF"/>
<path d="M448.051 493.493C447.908 493.493 448.051 493.493 448.051 493.493C447.621 493.349 447.335 493.063 447.478 492.776C450.772 478.16 449.627 465.981 448.051 458.386C446.332 450.076 443.897 445.204 443.897 445.204C443.754 444.917 443.897 444.487 444.184 444.344C444.47 444.201 444.9 444.344 445.043 444.63C445.186 444.774 447.621 449.646 449.34 458.1C450.916 465.838 452.062 478.161 448.767 493.063C448.624 493.206 448.337 493.493 448.051 493.493Z" fill="#00E5FF"/>
<path d="M433.441 452.368C433.441 452.368 405.08 434.027 405.08 409.094C405.08 384.162 442.895 380.58 454.927 398.778C467.675 418.122 433.441 452.368 433.441 452.368Z" fill="#E0F7FA"/>
<path d="M432.295 436.463C433.441 459.533 433.871 490.77 429.86 542.068H431.149C435.303 490.627 434.873 459.533 433.584 436.463C432.152 409.954 429.573 388.317 429.573 388.031C429.573 387.744 429.287 387.458 428.857 387.458C428.571 387.458 428.284 387.744 428.284 388.174C428.284 388.461 430.862 410.098 432.295 436.463Z" fill="#00E5FF"/>
<path d="M433.441 449.932C433.155 449.932 432.868 449.646 432.868 449.359C429.43 419.125 414.82 392.329 414.677 392.043C414.534 391.756 414.677 391.326 414.963 391.183C415.25 391.04 415.679 391.183 415.823 391.47C415.966 391.756 430.576 418.695 434.157 449.216C434.014 449.502 433.728 449.789 433.441 449.932Z" fill="#00E5FF"/>
<path d="M433.298 451.938C433.011 451.938 432.868 451.795 432.725 451.509C427.568 436.177 420.406 425 415.25 418.265C409.663 411.101 405.366 407.518 405.366 407.375C405.08 407.232 405.08 406.802 405.223 406.515C405.366 406.229 405.796 406.229 406.082 406.372C406.226 406.515 410.523 410.098 416.109 417.405C421.266 424.14 428.571 435.46 433.728 450.935C433.871 451.222 433.728 451.652 433.298 451.652C433.441 451.938 433.298 451.938 433.298 451.938Z" fill="#00E5FF"/>
<path d="M433.154 444.201C432.725 444.201 432.582 443.914 432.582 443.628C433.871 418.552 447.335 392.903 447.478 392.616C447.622 392.33 448.051 392.186 448.338 392.33C448.624 392.473 448.768 392.903 448.624 393.189C448.481 393.476 435.16 418.838 433.871 443.628C433.727 444.057 433.441 444.201 433.154 444.201Z" fill="#00E5FF"/>
<path d="M433.298 449.359C432.868 449.216 432.582 448.929 432.725 448.643C436.019 433.741 442.322 422.994 447.049 416.546C452.205 409.524 456.502 406.229 456.646 406.085C456.932 405.942 457.219 405.942 457.505 406.229C457.648 406.515 457.648 406.802 457.362 407.089C457.362 407.089 452.921 410.527 447.908 417.405C443.324 423.71 437.022 434.314 433.871 448.929C433.871 449.216 433.584 449.359 433.298 449.359Z" fill="#00E5FF"/>
<path d="M134.292 498.524C145.088 487.724 145.087 470.214 134.292 459.414C123.496 448.614 105.992 448.614 95.1958 459.414C84.3998 470.214 84.3998 487.724 95.1958 498.524C105.992 509.324 123.496 509.324 134.292 498.524Z" fill="#651FFF"/>
<path d="M115.017 486.703C123.605 483.468 127.946 473.881 124.712 465.29C121.478 456.698 111.894 452.356 103.306 455.591C94.7176 458.826 90.3769 468.413 93.6107 477.005C96.8446 485.596 106.428 489.938 115.017 486.703Z" fill="#00E5FF"/>
<path d="M396.606 162.955C411.489 159.55 420.795 144.721 417.392 129.832C413.989 114.944 399.165 105.634 384.281 109.039C369.398 112.443 360.092 127.272 363.495 142.161C366.898 157.05 381.722 166.359 396.606 162.955Z" fill="#651FFF"/>
<path d="M379.583 125.379C378.008 134.407 384.167 143.004 393.334 144.58C402.358 146.156 410.953 139.995 412.528 130.824C414.104 121.797 407.945 113.2 398.777 111.623C389.753 110.19 381.159 116.352 379.583 125.379Z" fill="#00E5FF"/>
<path d="M148.539 45.7097C157.24 45.7097 164.295 38.6528 164.295 29.9478C164.295 21.2427 157.24 14.1858 148.539 14.1858C139.837 14.1858 132.782 21.2427 132.782 29.9478C132.782 38.6528 139.837 45.7097 148.539 45.7097Z" fill="#FFB900"/>
<path d="M390.469 385.738C399.171 385.738 406.225 378.681 406.225 369.976C406.225 361.271 399.171 354.214 390.469 354.214C381.767 354.214 374.713 361.271 374.713 369.976C374.713 378.681 381.767 385.738 390.469 385.738Z" fill="#FFB900"/>
<path d="M404.507 263.368H359.673C358.67 263.368 357.668 262.795 357.238 261.935C356.665 261.075 356.665 259.929 357.238 259.069L379.44 218.518C380.013 217.658 380.872 217.085 382.018 217.085H426.852C427.855 217.085 428.857 217.658 429.287 218.518C429.86 219.378 429.86 220.524 429.287 221.384L407.085 261.935C406.512 262.795 405.509 263.368 404.507 263.368ZM364.543 257.636H402.788L421.839 222.817H383.594L364.543 257.636Z" fill="#057F42"/>
<path d="M401.642 259.786H356.808C355.805 259.786 354.803 259.213 354.373 258.353C353.8 257.493 353.8 256.347 354.373 255.487L376.575 214.936C377.148 214.076 378.008 213.503 379.153 213.503H423.987C424.99 213.503 425.993 214.076 426.422 214.936C426.995 215.796 426.995 216.942 426.422 217.802L404.22 258.353C403.647 259.213 402.645 259.786 401.642 259.786ZM361.678 254.054H399.923L418.974 219.235H380.729L361.678 254.054Z" fill="#14B74E"/>
<path d="M185.638 348.196L207.84 388.747C208.269 389.607 208.269 390.753 207.84 391.613C207.267 392.473 206.407 393.046 205.405 393.046H160.571C159.568 393.046 158.566 392.473 157.993 391.613L135.791 351.062C135.361 350.202 135.361 349.056 135.791 348.196C136.364 347.336 137.223 346.763 138.226 346.763H183.059C184.205 346.763 185.065 347.336 185.638 348.196ZM162.29 387.314H200.535L181.484 352.495H143.096L162.29 387.314Z" fill="#EB8500"/>
<path d="M188.502 344.614L210.704 385.165C211.134 386.025 211.134 387.171 210.704 388.031C210.132 388.891 209.272 389.464 208.269 389.464H163.436C162.433 389.464 161.43 388.891 160.857 388.031L138.655 347.48C138.226 346.62 138.226 345.474 138.655 344.614C139.228 343.754 140.088 343.181 141.09 343.181H185.924C187.07 343.181 187.929 343.754 188.502 344.614ZM165.154 383.732H203.399L184.348 348.913H146.104L165.154 383.732Z" fill="#FFB900"/>
<path d="M41.8261 29.9476H40.6802V145.87H41.8261V29.9476Z" fill="#222943"/>
<path d="M41.253 106.322C52.2491 106.322 61.1632 97.4043 61.1632 86.4042C61.1632 75.4041 52.2491 66.4868 41.253 66.4868C30.2569 66.4868 21.3428 75.4041 21.3428 86.4042C21.3428 97.4043 30.2569 106.322 41.253 106.322Z" fill="#651FFF"/>
<path d="M46.8391 80.6726C46.8391 83.8249 44.2608 86.2609 41.2528 86.2609C38.1016 86.2609 35.6665 83.6817 35.6665 80.6726C35.6665 77.5202 38.2448 75.0842 41.2528 75.0842C44.4041 75.0842 46.8391 77.6635 46.8391 80.6726Z" fill="#FBFFFD"/>
<path d="M48.9876 97.7241H33.5178C33.5178 97.7241 31.799 96.1479 33.5178 90.9894C34.6638 87.4072 38.8177 85.2578 41.2527 84.2548C43.6878 85.2578 47.8417 87.2639 48.9876 90.9894C50.5633 96.0046 48.9876 97.7241 48.9876 97.7241Z" fill="#FBFFFD"/>
<path d="M41.253 45.7096C52.2491 45.7096 61.1632 36.7923 61.1632 25.7923C61.1632 14.7922 52.2491 5.87488 41.253 5.87488C30.2569 5.87488 21.3428 14.7922 21.3428 25.7923C21.3428 36.7923 30.2569 45.7096 41.253 45.7096Z" fill="#14B74E"/>
<path d="M46.8391 20.0606C46.8391 23.213 44.2608 25.649 41.2528 25.649C38.1016 25.649 35.6665 23.0697 35.6665 20.0606C35.6665 16.9082 38.2448 14.4723 41.2528 14.4723C44.4041 14.4723 46.8391 16.9082 46.8391 20.0606Z" fill="#FBFFFD"/>
<path d="M48.9876 37.1123H33.5178C33.5178 37.1123 31.799 35.5361 33.5178 30.3776C34.6638 26.7953 38.8177 24.646 41.2527 23.6429C43.6878 24.646 47.8417 26.652 48.9876 30.3776C50.5633 35.3928 48.9876 37.1123 48.9876 37.1123Z" fill="#FBFFFD"/>
<path d="M41.253 166.933C52.2491 166.933 61.1632 158.016 61.1632 147.016C61.1632 136.016 52.2491 127.099 41.253 127.099C30.2569 127.099 21.3428 136.016 21.3428 147.016C21.3428 158.016 30.2569 166.933 41.253 166.933Z" fill="#FF6665"/>
<path d="M46.8391 141.284C46.8391 144.437 44.2608 146.873 41.2528 146.873C38.1016 146.873 35.6665 144.293 35.6665 141.284C35.6665 138.132 38.2448 135.696 41.2528 135.696C44.4041 135.696 46.8391 138.275 46.8391 141.284Z" fill="#FBFFFD"/>
<path d="M48.9876 158.336H33.5178C33.5178 158.336 31.799 156.76 33.5178 151.601C34.6638 148.019 38.8177 145.87 41.2527 144.867C43.6878 145.87 47.8417 147.876 48.9876 151.601C50.5633 156.76 48.9876 158.336 48.9876 158.336Z" fill="#FBFFFD"/>
<g opacity="0.4">
<path d="M536 110.477C535.284 105.748 532.849 95.4315 523.968 91.5627C512.366 86.6908 507.209 94.2852 491.453 102.166C475.697 110.047 473.261 98.2973 461.659 96.0047C451.203 93.8553 439.027 107.611 436.592 110.334H536V110.477Z" fill="#E0F7FA"/>
</g>
<g opacity="0.4">
<path d="M99.4078 209.348C98.6916 204.619 96.2566 194.302 87.3757 190.433C75.7734 185.561 70.6168 193.156 54.8605 201.037C39.1042 208.918 36.6692 197.168 25.0668 194.875C14.6104 192.726 2.43506 206.482 0 209.204H99.4078V209.348Z" fill="#E0F7FA"/>
</g>
<path d="M455.5 321.401L440.173 339.455L424.847 321.401L440.173 289.16L455.5 321.401Z" fill="#651FFF"/>
<path d="M455.5 321.401L440.173 339.455V289.16L455.5 321.401Z" fill="#00E5FF"/>
<path d="M424.847 321.401L440.173 329.712L455.5 321.401L440.173 339.455L424.847 321.401Z" fill="#651FFF"/>
<path d="M116.31 74.6544L100.983 92.709L85.6567 74.6544L100.983 42.4141L116.31 74.6544Z" fill="#651FFF"/>
<path d="M116.31 74.6544L100.983 92.709V42.4141L116.31 74.6544Z" fill="#00E5FF"/>
<path d="M85.6567 74.6544L100.983 82.9653L116.31 74.6544L100.983 92.709L85.6567 74.6544Z" fill="#651FFF"/>
<path d="M45.5498 403.22C45.4066 403.22 45.2633 403.22 45.1201 403.076L19.6236 387.028C19.3371 386.885 19.1938 386.598 19.1938 386.311C19.1938 386.025 19.3371 385.738 19.4803 385.595L44.1174 366.251L19.7668 347.336C19.6236 347.193 19.4803 346.906 19.4803 346.62C19.4803 346.333 19.6236 346.047 19.91 345.903L44.9769 329.568C45.4066 329.282 45.8363 329.425 46.1228 329.855C46.4092 330.285 46.266 330.715 45.8363 331.001L21.7721 346.763L45.9795 365.534C46.1228 365.678 46.266 365.964 46.266 366.251C46.266 366.537 46.1228 366.681 45.9795 366.967L21.4857 386.168L45.9795 401.643C46.4092 401.93 46.5525 402.36 46.266 402.79C45.9795 403.076 45.8363 403.22 45.5498 403.22Z" fill="#09B900"/>
<path d="M45.55 336.016C48.7935 336.016 51.4228 333.386 51.4228 330.141C51.4228 326.897 48.7935 324.266 45.55 324.266C42.3066 324.266 39.6772 326.897 39.6772 330.141C39.6772 333.386 42.3066 336.016 45.55 336.016Z" fill="#09B900"/>
<path d="M51.4228 366.251C51.4228 369.546 48.7013 372.126 45.55 372.126C42.3988 372.126 39.6772 369.403 39.6772 366.251C39.6772 362.955 42.3988 360.376 45.55 360.376C48.7013 360.376 51.4228 362.955 51.4228 366.251Z" fill="#09B900"/>
<path d="M51.4228 402.36C51.4228 405.656 48.7013 408.235 45.55 408.235C42.3988 408.235 39.6772 405.512 39.6772 402.36C39.6772 399.064 42.3988 396.485 45.55 396.485C48.7013 396.485 51.4228 399.064 51.4228 402.36Z" fill="#09B900"/>
<path d="M20.0535 352.638C23.2969 352.638 25.9263 350.008 25.9263 346.763C25.9263 343.518 23.2969 340.888 20.0535 340.888C16.81 340.888 14.1807 343.518 14.1807 346.763C14.1807 350.008 16.81 352.638 20.0535 352.638Z" fill="#09B900"/>
<path d="M20.0535 392.186C23.2969 392.186 25.9263 389.556 25.9263 386.311C25.9263 383.067 23.2969 380.436 20.0535 380.436C16.81 380.436 14.1807 383.067 14.1807 386.311C14.1807 389.556 16.81 392.186 20.0535 392.186Z" fill="#09B900"/>
<path d="M497.326 208.774C497.469 208.774 497.612 208.774 497.755 208.631L523.252 192.582C523.538 192.439 523.682 192.153 523.682 191.866C523.682 191.579 523.538 191.293 523.395 191.15L498.615 171.949L522.965 153.034C523.109 152.891 523.252 152.604 523.252 152.318C523.252 152.031 523.109 151.745 522.822 151.601L497.755 135.123C497.326 134.836 496.896 134.98 496.609 135.41C496.323 135.839 496.466 136.269 496.896 136.556L521.103 152.461L496.896 171.232C496.753 171.375 496.609 171.662 496.609 171.949C496.609 172.235 496.753 172.379 496.896 172.665L521.39 192.009L496.896 207.485C496.466 207.771 496.323 208.201 496.609 208.631C496.753 208.631 497.039 208.774 497.326 208.774Z" fill="#EB8500"/>
<path d="M491.31 135.839C491.31 139.135 494.031 141.714 497.182 141.714C500.477 141.714 503.055 138.992 503.055 135.839C503.055 132.544 500.334 129.964 497.182 129.964C494.031 129.964 491.31 132.544 491.31 135.839Z" fill="#FFB900"/>
<path d="M491.31 171.949C491.31 175.244 494.031 177.823 497.182 177.823C500.477 177.823 503.055 175.101 503.055 171.949C503.055 168.653 500.334 166.074 497.182 166.074C494.031 165.93 491.31 168.653 491.31 171.949Z" fill="#FFB900"/>
<path d="M491.31 207.915C491.31 211.21 494.031 213.789 497.182 213.789C500.477 213.789 503.055 211.067 503.055 207.915C503.055 204.619 500.334 202.04 497.182 202.04C494.031 202.04 491.31 204.762 491.31 207.915Z" fill="#FFB900"/>
<path d="M522.679 158.336C525.922 158.336 528.552 155.706 528.552 152.461C528.552 149.216 525.922 146.586 522.679 146.586C519.436 146.586 516.806 149.216 516.806 152.461C516.806 155.706 519.436 158.336 522.679 158.336Z" fill="#FFB900"/>
<path d="M522.679 197.741C525.922 197.741 528.552 195.111 528.552 191.866C528.552 188.621 525.922 185.991 522.679 185.991C519.436 185.991 516.806 188.621 516.806 191.866C516.806 195.111 519.436 197.741 522.679 197.741Z" fill="#FFB900"/>
<path d="M286.048 30.8075C285.475 30.8075 285.045 30.3776 285.045 29.8045V22.2101C285.045 21.6369 285.475 21.207 286.048 21.207C286.621 21.207 287.051 21.6369 287.051 22.2101V29.8045C286.908 30.2343 286.478 30.8075 286.048 30.8075Z" fill="#651FFF"/>
<path d="M286.048 43.7036C285.475 43.7036 285.045 43.2737 285.045 42.7006V35.1062C285.045 34.533 285.475 34.1031 286.048 34.1031C286.621 34.1031 287.051 34.533 287.051 35.1062V42.7006C286.908 43.2737 286.478 43.7036 286.048 43.7036Z" fill="#651FFF"/>
<path d="M287.767 32.527C287.767 31.9538 288.197 31.5239 288.77 31.5239H296.361C296.934 31.5239 297.364 31.9538 297.364 32.527C297.364 33.1001 296.934 33.53 296.361 33.53H288.77C288.197 33.53 287.767 33.1001 287.767 32.527Z" fill="#651FFF"/>
<path d="M274.732 32.527C274.732 31.9538 275.162 31.5239 275.735 31.5239H283.327C283.9 31.5239 284.329 31.9538 284.329 32.527C284.329 33.1001 283.9 33.53 283.327 33.53H275.735C275.162 33.53 274.732 33.1001 274.732 32.527Z" fill="#651FFF"/>
<path d="M68.1814 435.747C67.6084 435.747 67.1787 435.317 67.1787 434.744V427.149C67.1787 426.576 67.6084 426.146 68.1814 426.146C68.7543 426.146 69.1841 426.576 69.1841 427.149V434.744C69.1841 435.317 68.7543 435.747 68.1814 435.747Z" fill="#FFB900"/>
<path d="M68.1814 448.786C67.6084 448.786 67.1787 448.356 67.1787 447.783V440.189C67.1787 439.615 67.6084 439.186 68.1814 439.186C68.7543 439.186 69.1841 439.615 69.1841 440.189V447.783C69.1841 448.356 68.7543 448.786 68.1814 448.786Z" fill="#FFB900"/>
<path d="M69.9004 437.466C69.9004 436.893 70.3301 436.463 70.9031 436.463H78.4947C79.0677 436.463 79.4974 436.893 79.4974 437.466C79.4974 438.039 79.0677 438.469 78.4947 438.469H70.9031C70.3301 438.469 69.9004 438.039 69.9004 437.466Z" fill="#FFB900"/>
<path d="M56.8657 437.466C56.8657 436.893 57.2954 436.463 57.8684 436.463H65.4601C66.033 436.463 66.4627 436.893 66.4627 437.466C66.4627 438.039 66.033 438.469 65.4601 438.469H57.8684C57.2954 438.469 56.8657 438.039 56.8657 437.466Z" fill="#FFB900"/>
<path d="M511.792 299.477C511.219 299.477 510.79 299.047 510.79 298.474V290.88C510.79 290.307 511.219 289.877 511.792 289.877C512.365 289.877 512.795 290.307 512.795 290.88V298.474C512.795 299.047 512.365 299.477 511.792 299.477Z" fill="#14B74E"/>
<path d="M511.792 312.517C511.219 312.517 510.79 312.087 510.79 311.514V303.919C510.79 303.346 511.219 302.916 511.792 302.916C512.365 302.916 512.795 303.346 512.795 303.919V311.514C512.795 312.087 512.365 312.517 511.792 312.517Z" fill="#14B74E"/>
<path d="M513.511 301.197C513.511 300.624 513.941 300.194 514.514 300.194H522.106C522.679 300.194 523.108 300.624 523.108 301.197C523.108 301.77 522.679 302.2 522.106 302.2H514.514C513.941 302.2 513.511 301.77 513.511 301.197Z" fill="#14B74E"/>
<path d="M500.477 301.197C500.477 300.624 500.906 300.194 501.479 300.194H509.071C509.644 300.194 510.074 300.624 510.074 301.197C510.074 301.77 509.644 302.2 509.071 302.2H501.479C500.906 302.2 500.477 301.77 500.477 301.197Z" fill="#14B74E"/>
<path d="M154.125 308.504H44.5473C41.2528 308.504 38.5312 305.782 38.5312 302.486V241.731C38.5312 238.435 41.2528 235.713 44.5473 235.713H154.125C157.42 235.713 160.141 238.435 160.141 241.731V302.343C160.141 305.782 157.42 308.504 154.125 308.504Z" fill="#E0F7FA"/>
<path d="M150.257 299.907V273.398C128.055 271.106 123.472 285.435 109.721 289.733C96.5428 293.889 89.9538 283.142 69.6138 285.578C59.3006 286.724 54.144 295.178 51.709 300.05H150.257V299.907Z" fill="#00E5FF"/>
<path d="M142.236 251.188C142.236 251.045 142.236 251.045 142.236 250.902C140.088 241.731 127.053 241.731 124.904 250.902C124.904 251.045 124.904 251.045 124.904 251.188C123.185 259.356 133.642 267.38 133.642 267.38C133.642 267.38 143.955 259.356 142.236 251.188ZM133.499 256.633C131.493 256.633 129.918 255.057 129.918 253.051C129.918 251.045 131.493 249.469 133.499 249.469C135.504 249.469 137.08 251.045 137.08 253.051C137.08 255.057 135.504 256.633 133.499 256.633Z" fill="#00E5FF"/>
<path d="M107.429 249.039H53.8576C52.7117 249.039 51.709 249.899 51.709 251.188C51.709 252.335 52.5684 253.338 53.8576 253.338H107.429C108.575 253.338 109.578 252.478 109.578 251.188C109.578 250.042 108.575 249.039 107.429 249.039Z" fill="#00E5FF"/>
<path d="M107.429 258.353H53.8576C52.7117 258.353 51.709 259.213 51.709 260.502C51.709 261.648 52.5684 262.651 53.8576 262.651H107.429C108.575 262.651 109.578 261.792 109.578 260.502C109.578 259.213 108.575 258.353 107.429 258.353Z" fill="#00E5FF"/>
<path d="M107.429 268.383H53.8576C52.7117 268.383 51.709 269.243 51.709 270.533C51.709 271.679 52.5684 272.682 53.8576 272.682H107.429C108.575 272.682 109.578 271.822 109.578 270.533C109.578 269.386 108.575 268.383 107.429 268.383Z" fill="#00E5FF"/>
</g>
<defs>
<clipPath id="clip0_533_1267">
<rect width="536" height="614" fill="white"/>
</clipPath>
</defs>
</svg>
