<svg width="76" height="75" viewBox="0 0 76 75" fill="none" xmlns="http://www.w3.org/2000/svg">
<path d="M60.4562 38.6043C59.3289 38.6043 58.4086 37.6841 58.4086 36.5568C58.4086 35.418 59.3289 34.5092 60.4562 34.5092C61.5835 34.5092 62.5037 35.4295 62.5037 36.5568C62.5153 37.6841 61.595 38.6043 60.4562 38.6043ZM60.4562 32.5537C58.2476 32.5537 56.4531 34.3482 56.4531 36.5568C56.4531 38.7654 58.2476 40.5599 60.4562 40.5599C62.6648 40.5599 64.4593 38.7654 64.4593 36.5568C64.4593 34.3367 62.6648 32.5537 60.4562 32.5537Z" fill="#E2E4E9"/>
<path d="M42.0744 38.6043C40.9471 38.6043 40.0268 37.6841 40.0268 36.5568C40.0268 35.418 40.9471 34.5092 42.0744 34.5092C43.2017 34.5092 44.1219 35.4295 44.1219 36.5568C44.1219 37.6841 43.2017 38.6043 42.0744 38.6043ZM42.0744 32.5537C39.8658 32.5537 38.0713 34.3482 38.0713 36.5568C38.0713 38.7654 39.8658 40.5599 42.0744 40.5599C44.2829 40.5599 46.0774 38.7654 46.0774 36.5568C46.0659 34.3367 44.2829 32.5537 42.0744 32.5537Z" fill="#E2E4E9"/>
<path d="M56.2003 38.7194C55.9472 38.7884 55.5561 38.869 55.4181 38.869C54.7279 38.869 54.5899 38.6274 54.5899 37.9832V34.2792H56.2233V32.7378H54.5899V30.5522H52.7494L52.3583 32.7378H51.0815H50.9779C49.9311 32.7378 49.1374 33.382 48.6313 34.3828L47.9986 32.7378H46.6758V40.4104H48.9304V37.0745C48.9304 35.395 49.9311 34.3137 51.1045 34.2792H52.3353V38.0983C52.3353 39.8927 53.2555 40.5599 54.7509 40.5599C55.5216 40.5599 56.1198 40.3989 56.4764 40.2838L56.2003 38.7194Z" fill="#E2E4E9"/>
<path d="M67.1971 35.1532V40.4101H65V32.7261H66.3344L66.783 33.8994" fill="#E2E4E9"/>
<path d="M66.7715 33.9111C67.4387 33.1404 68.3474 32.5537 69.4172 32.5537C71.2462 32.5537 71.9939 34.0146 71.9939 35.3605V40.4103H69.7393V35.4295C69.7393 34.7738 69.1871 34.4172 68.6005 34.4172C67.9678 34.4172 67.5652 34.7853 67.2086 35.1649" fill="#E2E4E9"/>
<path d="M29.3174 29.9541H31.8366L35.2875 36.5224V29.9541H37.3695V40.4104H35.0919L31.3994 33.175V40.4104H29.3174V29.9541Z" fill="#E2E4E9"/>
<path d="M71.9941 32.7378V32.8873H72.2012V33.612H72.3737V32.8873H72.5923V32.7378H71.9941Z" fill="#E2E4E9"/>
<path d="M73.2477 32.7378L73.0981 33.3129L72.9371 32.7378H72.707V33.612H72.8566V32.9218L73.0406 33.612H73.1557L73.3397 32.9218V33.612H73.4777V32.7378H73.2477Z" fill="#E2E4E9"/>
<path d="M32.0439 46.5758C32.0439 45.9087 31.8369 45.1264 31.0777 45.1264C30.7211 45.1264 30.399 45.2875 30.1114 45.5866V47.7837C30.376 48.0712 30.6175 48.2208 30.9856 48.2208C31.6643 48.2093 32.0439 47.6226 32.0439 46.5758ZM29.9619 48.2093L29.8008 48.7039H29.3867V42.9639H30.1114V45.0574C30.353 44.7929 30.7441 44.5168 31.2387 44.5168C32.3315 44.5168 32.8146 45.5981 32.8146 46.5758C32.8146 47.8872 32.1359 48.7729 31.1237 48.7729C30.5945 48.7729 30.2379 48.5544 29.9619 48.2093Z" fill="#A0A0A0"/>
<path d="M33.2744 44.5977H34.0106C34.0106 44.5977 35.0459 48.0601 35.0459 48.0716L36.0121 44.5977H36.7253L35.345 49.0148C35.1034 49.774 34.7008 50.1997 33.9071 50.1997C33.746 50.1997 33.5735 50.1766 33.4125 50.1306L33.5045 49.613C33.608 49.6245 33.7115 49.659 33.8496 49.659C34.2752 49.659 34.5973 49.4635 34.7583 48.9573L33.2744 44.5977Z" fill="#A0A0A0"/>
<path d="M38.8765 48.1058L39.2331 47.5996C39.5897 47.8642 40.0958 48.1518 40.855 48.1518C41.6027 48.1518 42.0398 47.7952 42.0398 47.174C42.0398 46.4838 41.5107 46.2653 40.7515 46.0007C39.9347 45.7131 39.187 45.345 39.187 44.2982C39.187 43.3665 39.9232 42.8604 40.8895 42.8604C41.5797 42.8604 41.9823 42.9754 42.4309 43.2284L42.1318 43.7806C41.7752 43.585 41.3956 43.47 40.878 43.47C40.2683 43.47 39.8542 43.7116 39.8542 44.2867C39.8542 44.8964 40.2568 45.0919 41.0966 45.391C41.9018 45.6671 42.753 46.0237 42.753 47.151C42.753 48.1518 42.0398 48.7499 40.8665 48.7499C39.9117 48.7729 39.2561 48.4278 38.8765 48.1058Z" fill="#A0A0A0"/>
<path d="M43.167 44.5977H43.9032C43.9032 44.5977 44.9385 48.0601 44.9385 48.0716L45.9047 44.5977H46.6179L45.2375 49.0148C44.996 49.774 44.5934 50.1997 43.7997 50.1997C43.6386 50.1997 43.4661 50.1766 43.305 50.1306L43.3971 49.613C43.5006 49.6245 43.6041 49.659 43.7421 49.659C44.1678 49.659 44.4898 49.4635 44.6509 48.9573L43.167 44.5977Z" fill="#A0A0A0"/>
<path d="M51.7139 44.5166C52.5421 44.5166 52.7607 45.2183 52.7607 45.897V48.7037H52.036V45.897C52.036 45.4944 51.967 45.1263 51.4723 45.1263C51.1387 45.1263 50.7821 45.3333 50.4255 45.6899V48.7037H49.7009V45.897C49.7009 45.4944 49.6318 45.1263 49.1372 45.1263C48.7921 45.1263 48.424 45.3678 48.0904 45.7014V48.7037H47.3657V44.5971H47.7913L47.9754 45.2643C48.355 44.8502 48.8151 44.5166 49.3673 44.5166C49.9194 44.5166 50.1495 44.8157 50.3105 45.2298C50.6901 44.8042 51.1847 44.5166 51.7139 44.5166Z" fill="#A0A0A0"/>
<path d="M56.108 46.5872C55.2913 46.7367 54.7622 46.9092 54.5551 47.1623C54.4516 47.2889 54.4286 47.4039 54.4286 47.5764C54.4286 47.979 54.6241 48.2091 55.0613 48.2091C55.4754 48.2091 55.8435 48.002 56.108 47.8065V46.5872ZM56.108 45.9315C56.108 45.3793 55.9355 45.1033 55.3373 45.1033C54.9232 45.1033 54.5551 45.2643 54.164 45.4599L53.8994 44.9767C54.3251 44.7122 54.7852 44.5166 55.3833 44.5166C56.4071 44.5166 56.8097 45.0687 56.8097 45.989V48.7152H56.3956L56.2116 48.2206C55.924 48.5082 55.4754 48.7728 54.9462 48.7728C54.2215 48.7728 53.6924 48.3241 53.6924 47.6339C53.6924 47.1853 53.8649 46.8632 54.2445 46.6332C54.6126 46.4031 55.2683 46.2421 56.108 46.1155V45.9315Z" fill="#A0A0A0"/>
<path d="M58.0176 44.5971H58.4432L58.6272 45.2758C59.0068 44.8502 59.49 44.5166 60.0996 44.5166C60.9854 44.5166 61.2154 45.2183 61.2154 45.897V48.7037H60.4907V45.897C60.4907 45.4944 60.3872 45.1263 59.8581 45.1263C59.4785 45.1263 59.0759 45.3678 58.7423 45.7129V48.7037H58.0176V44.5971Z" fill="#A0A0A0"/>
<path d="M61.9863 45.1038V44.5976H62.619L62.803 43.4243H63.3207V44.5976H64.2409V45.1038H63.3207V47.6344C63.3207 48.014 63.3897 48.2211 63.7808 48.2211C63.9419 48.2211 64.0684 48.1866 64.2524 48.1406L64.356 48.6352C64.1949 48.7042 63.9419 48.7617 63.6888 48.7617C62.9411 48.7617 62.6075 48.4051 62.6075 47.669V45.0923H61.9863V45.1038Z" fill="#A0A0A0"/>
<path d="M67.4617 46.3686C67.4387 45.5059 67.1511 45.0572 66.576 45.0572C66.0584 45.0572 65.7133 45.4599 65.6557 46.3686H67.4617ZM66.6795 48.1976C67.1512 48.1976 67.4502 48.0135 67.7953 47.795L68.0944 48.2321C67.6918 48.5542 67.3237 48.7728 66.6105 48.7728C65.5522 48.7728 64.8735 47.956 64.8735 46.6562C64.8735 45.3908 65.5292 44.5166 66.553 44.5166C67.6113 44.5166 68.1749 45.3103 68.1749 46.6792V46.8517H65.6212C65.6788 47.726 65.9893 48.1976 66.6795 48.1976Z" fill="#A0A0A0"/>
<path d="M68.8423 46.6792C68.8423 45.6209 69.3139 44.5166 70.5792 44.5166C71.1084 44.5166 71.4995 44.6431 71.8676 44.9537L71.557 45.4368C71.2924 45.2413 70.9819 45.1033 70.5908 45.1033C69.728 45.1033 69.6015 45.989 69.6015 46.6907C69.6015 47.3694 69.751 48.1976 70.6138 48.1976C71.0279 48.1976 71.3154 48.0365 71.5915 47.8065L71.9366 48.2321C71.6375 48.5312 71.2234 48.7842 70.5792 48.7842C69.3254 48.7727 68.8423 47.703 68.8423 46.6792Z" fill="#A0A0A0"/>
<path d="M13.7308 31.1961C11.5452 31.1961 9.48619 32.0474 7.93328 33.6003C6.38037 35.1532 5.52914 37.2122 5.52914 39.3978C5.52914 41.5834 6.38037 43.6425 7.93328 45.1954C9.48619 46.7483 11.5452 47.5995 13.7308 47.5995C15.9164 47.5995 17.9755 46.7483 19.5284 45.1954C21.0698 43.6425 21.921 41.5834 21.9325 39.3978C21.9325 37.2122 21.0813 35.1532 19.5284 33.6003C17.9755 32.0589 15.9164 31.1961 13.7308 31.1961ZM13.7308 51.384C7.12807 51.384 1.74463 46.0006 1.74463 39.3978C1.74463 32.7836 7.12807 27.4116 13.7308 27.4116C20.3336 27.4116 25.717 32.7836 25.717 39.3978C25.717 46.0006 20.3336 51.384 13.7308 51.384Z" fill="#FFC20E"/>
<path d="M27.7184 25.5601H26.7866V26.4918H27.7184V25.5601Z" fill="#FFC20E"/>
<path d="M27.7184 23.6963H26.7866V24.628H27.7184V23.6963Z" fill="#FFC20E"/>
<path d="M25.0383 26.4917H24.1641V27.4004H25.0383V26.4917Z" fill="white"/>
<path d="M23.313 28.2861H22.4272V29.1604H23.313V28.2861Z" fill="#E2E4E9"/>
<path d="M26.0046 27.4004H25.0269V28.2746H26.0046V27.4004Z" fill="#E2E4E9"/>
<path d="M22.427 27.4463H21.5527V28.286H22.427V27.4463Z" fill="#E2E4E9"/>
<path d="M25.0383 28.2861H24.1641V29.1604H25.0383V28.2861Z" fill="#E2E4E9"/>
<path d="M26.7869 24.6396H25.8667V25.5714H26.7869V24.6396Z" fill="#E2E4E9"/>
<path d="M25.8665 25.5601H24.1641V26.4918H25.8665V25.5601Z" fill="#E2E4E9"/>
<path d="M24.1642 26.4917H23.313V28.2862H24.1642V26.4917Z" fill="#E2E4E9"/>
<path d="M23.313 29.1602V30.0344H22.4273V29.1602H20.9664V29.7928H20.1842V30.575H21.0584V31.4493H20.1842V30.575H19.2525V31.9439H18.3782V32.8181H17.7916V33.6924H17.1474C16.4227 34.7621 14.6282 38.098 14.0761 39.4554C12.1091 36.7177 10.5791 35.6364 9.38282 35.2453C8.73865 35.0497 7.95644 35.7514 9.02623 36.8672C11.4994 39.5934 12.2816 41.8365 13.0293 43.6425C13.4319 44.5858 15.2149 44.7353 15.5715 43.7691C16.3307 41.733 17.435 39.4324 18.7463 37.5574V36.5796H19.448V35.7054H20.1842V34.6816H21.0584V33.7039H20.1727V32.8066H21.0584V33.7039H21.9212V32.8181H22.6114V31.7483H23.3936V31.0122H24.1413V29.1602H23.313Z" fill="#E2E4E9"/>
</svg>
