<svg width="57" height="23" viewBox="0 0 57 23" fill="none" xmlns="http://www.w3.org/2000/svg">
<g clip-path="url(#clip0_77_1635)">
<path d="M4.09619 9.14524C4.09619 8.58983 4.59619 8.37621 5.42432 8.37621C6.61182 8.37621 8.11182 8.70376 9.29932 9.28765V5.94096C8.00244 5.471 6.72119 5.28587 5.42432 5.28587C2.25244 5.28587 0.143066 6.79543 0.143066 9.31613C0.143066 13.2467 6.08057 12.6201 6.08057 14.3148C6.08057 14.9699 5.45557 15.1835 4.58057 15.1835C3.28369 15.1835 1.62744 14.6993 0.314941 14.0442V17.4336C1.76807 18.0033 3.23682 18.2454 4.58057 18.2454C7.83057 18.2454 10.0649 16.7785 10.0649 14.2293C10.0493 9.98547 4.09619 10.7403 4.09619 9.14524ZM14.6587 2.43762L10.8462 3.17817L10.8306 14.5854C10.8306 16.6931 12.5649 18.2454 14.8774 18.2454C16.1587 18.2454 17.0962 18.0317 17.6118 17.7754V14.8844C17.1118 15.0696 14.6431 15.7247 14.6431 13.617V8.56135H17.6118V5.52797H14.6431L14.6587 2.43762ZM22.4712 6.58182L22.2212 5.52797H18.8462V17.989H22.7524V9.54399C23.6743 8.44742 25.2368 8.64679 25.7212 8.80345V5.52797C25.2212 5.35707 23.3931 5.04377 22.4712 6.58182ZM26.6743 5.52797H30.5962V17.989H26.6743V5.52797ZM26.6743 4.44564L30.5962 3.67661V0.785645L26.6743 1.54043V4.44564ZM38.7524 5.28587C37.2212 5.28587 36.2368 5.94096 35.6899 6.39668L35.4868 5.51373H32.0493V22.119L35.9556 21.3642L35.9712 17.3339C36.5337 17.7042 37.3618 18.2311 38.7368 18.2311C41.5337 18.2311 44.0806 16.1804 44.0806 11.6659C44.0649 7.53598 41.4868 5.28587 38.7524 5.28587ZM37.8149 15.0981C36.8931 15.0981 36.3462 14.799 35.9712 14.4287L35.9556 9.14524C36.3618 8.73224 36.9243 8.44742 37.8149 8.44742C39.2368 8.44742 40.2212 9.90002 40.2212 11.7656C40.2212 13.6739 39.2524 15.0981 37.8149 15.0981ZM56.3931 11.8083C56.3931 8.16259 54.4556 5.28587 50.7524 5.28587C47.0337 5.28587 44.7837 8.16259 44.7837 11.7799C44.7837 16.0665 47.4399 18.2311 51.2524 18.2311C53.1118 18.2311 54.5181 17.8466 55.5806 17.3054V14.4572C54.5181 14.9414 53.2993 15.2405 51.7524 15.2405C50.2368 15.2405 48.8931 14.7563 48.7212 13.0758H56.3618C56.3618 12.8907 56.3931 12.1501 56.3931 11.8083ZM48.6743 10.4554C48.6743 8.84617 49.7524 8.17683 50.7368 8.17683C51.6899 8.17683 52.7056 8.84617 52.7056 10.4554H48.6743Z" fill="#6772E5"/>
</g>
<defs>
<clipPath id="clip0_77_1635">
<rect width="56.25" height="21.4286" fill="white" transform="translate(0.143066 0.785645)"/>
</clipPath>
</defs>
</svg>
