<svg width="562" height="431" viewBox="0 0 562 431" fill="none" xmlns="http://www.w3.org/2000/svg">
<g clip-path="url(#clip0_530_3827)">
<path d="M525.487 199.291L462.006 209.266L450.181 132.376L513.662 122.609L515.944 136.532" stroke="#241814" stroke-width="0.5" stroke-miterlimit="10"/>
<path d="M546.595 131.852L483.036 141.676L494.868 218.488L558.428 208.664L546.595 131.852Z" stroke="#241814" stroke-width="0.5" stroke-miterlimit="10"/>
<path d="M554.116 178.717H523.828C519.471 178.717 515.944 182.25 515.944 186.614V192.017H459.309C454.33 192.017 450.181 196.174 450.181 201.161V266.829C450.181 271.817 454.33 275.973 459.309 275.973H553.079C558.058 275.973 562.207 271.817 562.207 266.829V214.253V201.161V186.614C562 182.25 558.473 178.717 554.116 178.717Z" fill="#020935"/>
<path d="M493.539 235.242V244.178H518.641V235.242" stroke="#F2EEEB" stroke-width="0.5" stroke-miterlimit="10"/>
<path d="M505.986 225.267V238.151" stroke="#F2EEEB" stroke-width="0.5" stroke-miterlimit="10"/>
<path d="M500.593 233.58L505.987 238.151L511.795 233.58" stroke="#F2EEEB" stroke-width="0.5" stroke-miterlimit="10"/>
<path d="M465.118 167.911L486.693 164.586" stroke="#241814" stroke-width="0.5" stroke-miterlimit="10"/>
<path d="M466.985 176.847L487.938 173.73" stroke="#241814" stroke-width="0.5" stroke-miterlimit="10"/>
<path d="M468.645 185.783L489.39 182.666" stroke="#241814" stroke-width="0.5" stroke-miterlimit="10"/>
<path d="M463.458 204.902C463.458 204.902 463.666 204.902 463.458 204.902C463.666 204.902 463.666 204.902 463.458 204.902C463.873 204.902 463.873 205.109 464.081 205.317C463.873 206.772 463.666 208.227 463.458 209.889C463.666 209.266 464.081 208.85 464.288 208.227C464.495 207.811 464.703 207.811 465.118 207.811C465.325 207.811 465.74 208.227 465.533 208.642C464.081 213.214 464.288 218.825 461.384 222.981C461.176 223.189 460.969 223.397 460.761 223.605C459.724 227.553 456.612 230.462 452.463 230.047C452.256 230.255 452.048 230.462 451.633 230.255C448.521 227.553 446.862 223.812 447.484 219.656C448.521 214.253 453.293 212.175 455.99 207.811C455.99 207.603 456.197 207.603 456.405 207.603C456.82 207.603 457.234 207.811 457.027 208.434C456.612 210.305 455.99 211.967 455.16 213.63C457.857 211.552 459.931 209.474 459.724 205.941C459.724 205.525 459.931 205.317 460.346 205.317C460.554 205.317 460.969 205.317 460.969 205.733C461.176 206.98 461.384 208.019 461.176 209.266C461.799 208.019 462.213 206.564 462.836 205.317C463.043 204.902 463.251 204.902 463.458 204.902Z" fill="#EFCCBC"/>
<path d="M163.061 212.591C162.231 211.136 160.571 213.838 159.327 215.5C158.704 214.461 157.667 212.798 156.837 211.967C153.518 208.434 144.182 205.109 144.182 205.109C143.56 204.902 143.352 205.941 143.975 206.149C143.975 206.149 147.709 209.058 149.369 210.305C149.991 210.928 150.406 211.344 151.028 211.967C149.784 211.344 148.124 211.552 147.502 212.798C145.842 212.591 144.805 214.877 145.012 216.331C144.597 216.331 144.182 216.539 143.975 216.955C143.145 217.786 143.352 219.033 143.767 219.864C144.805 223.812 147.916 226.722 151.858 227.761H152.066C155.177 227.553 158.289 227.137 160.779 225.267C160.986 225.267 161.194 225.267 161.194 225.059C161.401 225.059 161.609 224.852 161.609 224.644C161.401 221.942 161.816 219.448 162.438 216.747C162.646 215.916 163.683 213.63 163.061 212.591Z" fill="#EFCCBC"/>
<path d="M347.282 367.202C348.527 365.747 349.772 364.085 350.809 362.007C357.655 348.915 373.007 281.792 371.97 262.881C370.932 243.97 373.422 222.358 325.707 218.202C278.199 214.045 251.852 223.812 244.799 230.255C236.708 237.736 234.011 248.75 237.33 278.467C240.235 304.235 245.214 348.915 260.98 367.202H347.282Z" fill="#651FFF"/>
<path d="M243.139 308.184C243.139 308.184 226.335 366.994 210.983 367.202C195.631 367.41 190.238 367.202 190.238 367.202C190.238 367.202 157.252 344.966 149.369 228.592L163.891 223.605C163.891 223.605 194.387 277.636 203.722 314.002C203.722 314.002 208.909 237.528 259.528 223.397L243.139 308.184Z" fill="#651FFF"/>
<path d="M366.369 308.184C366.369 308.184 383.173 366.994 398.524 367.202C413.876 367.41 419.27 367.202 419.27 367.202C419.27 367.202 452.256 344.966 460.139 228.592L445.617 223.605C445.617 223.605 415.121 277.636 405.785 314.002C405.785 314.002 400.599 237.528 349.979 223.397L366.369 308.184Z" fill="#651FFF"/>
<path d="M291.373 175.22L290.117 198.46L308.553 199.46L309.809 176.22L291.373 175.22Z" fill="#EFCCBC"/>
<path d="M291.477 175.185C291.477 175.185 284.423 190.771 285.668 198.044C286.498 203.031 292.929 204.902 297.7 201.992C299.36 200.953 300.812 199.499 301.642 197.213L291.477 175.185Z" fill="#EFCCBC"/>
<path d="M285.253 217.786C285.253 217.786 280.689 225.267 286.705 230.255C292.721 235.242 307.866 232.748 311.6 217.578C311.807 217.37 289.817 214.045 285.253 217.786Z" fill="#EFCCBC"/>
<path d="M285.253 217.786C285.253 217.786 290.232 208.019 289.817 190.147L308.073 189.524C308.073 189.524 307.866 204.278 311.6 217.578C311.807 217.37 292.306 221.319 285.253 217.786Z" fill="#EFCCBC"/>
<path d="M321.973 362.422H202.27L196.461 277.635H316.164L321.973 362.422Z" fill="#D7D4D4"/>
<path d="M345.623 367.202H202.27V362.422H321.972L345.623 364.085V367.202Z" fill="#D7D4D4"/>
<path d="M321.972 362.422H202.27V364.085H321.972V362.422Z" fill="#BDB8B8"/>
<path d="M321.973 364.085L345.623 365.54V367.202L321.973 367.41V364.085Z" fill="#BDB8B8"/>
<path d="M262.433 316.912C262.433 321.276 259.321 324.809 255.172 324.809C251.23 324.809 247.703 321.484 247.703 317.12C247.703 312.756 250.815 309.223 254.964 309.223C258.906 309.223 262.225 312.756 262.433 316.912Z" fill="#F2EEEB"/>
<path d="M316.164 277.635L317.409 278.051L323.425 362.422H321.973L316.164 277.635Z" fill="#BDB8B8"/>
<path d="M120.74 227.761L29.459 236.281V125.933L120.74 117.413V227.761Z" fill="white"/>
<path d="M215.133 133.207L136.921 136.74V42.6013L215.133 38.8607V133.207Z" fill="white"/>
<path d="M111.819 334.16L8.50586 336.654V221.319L111.819 218.825V334.16Z" fill="white"/>
<path d="M113.271 261.218H80.0783C75.3068 261.218 71.3651 265.167 71.3651 269.947V275.973H9.95792C4.56405 275.973 0 280.337 0 285.948V357.435C0 362.838 4.35659 367.41 9.95792 367.41H112.027C117.42 367.41 121.984 363.046 121.984 357.435V300.287V285.948V269.947C121.777 265.167 118.043 261.218 113.271 261.218Z" fill="#00E5FF"/>
<path d="M45.2256 321.276V331.666H75.0993V321.276" stroke="#241814" stroke-width="0.5" stroke-miterlimit="10"/>
<path d="M60.1626 327.302V312.132" stroke="#241814" stroke-width="0.5" stroke-miterlimit="10"/>
<path d="M53.7314 317.327L60.1626 312.132L67.0087 317.327" stroke="#241814" stroke-width="0.5" stroke-miterlimit="10"/>
<path d="M121.777 367.202H520.716" stroke="#241814" stroke-width="0.5" stroke-miterlimit="10"/>
<path d="M47.5075 263.297L17.6338 264.543V234.826L47.5075 233.58V263.297Z" fill="#EBEDF2"/>
<path d="M101.654 235.866L53.7314 237.944V233.372L101.654 231.294V235.866Z" fill="#EBEDF2"/>
<path d="M101.654 250.412L53.7314 252.49V247.711L101.654 245.633V250.412Z" fill="#EBEDF2"/>
<path d="M107.878 136.532L42.3213 143.597V138.818L107.878 131.96V136.532Z" fill="#EBEDF2"/>
<path d="M204.76 84.7869L147.087 87.9041V83.3323L204.76 80.2151V84.7869Z" fill="#EBEDF2"/>
<path d="M204.76 96.84L147.087 99.9571V95.1775L204.76 92.0603V96.84Z" fill="#EBEDF2"/>
<path d="M204.76 108.893L147.087 111.802V107.231L204.76 104.113V108.893Z" fill="#EBEDF2"/>
<path d="M204.76 120.738L147.087 123.855V119.076L204.76 115.959V120.738Z" fill="#EBEDF2"/>
<path d="M107.878 148.377L42.3213 155.443V150.663L107.878 143.597V148.377Z" fill="#EBEDF2"/>
<path d="M107.878 160.222L42.3213 167.08V162.508L107.878 155.443V160.222Z" fill="#EBEDF2"/>
<path d="M107.878 171.86L42.3213 178.925V174.146L107.878 167.08V171.86Z" fill="#EBEDF2"/>
<path d="M290.232 0.415649H253.512V88.9431H290.232V0.415649Z" fill="white"/>
<path d="M326.952 0.415649H253.512V88.9431H326.952V0.415649Z" stroke="#241814" stroke-width="0.5" stroke-miterlimit="10"/>
<path d="M293.551 179.549C293.551 179.549 291.477 181.627 288.78 181.419L288.365 182.458C288.365 182.458 285.045 180.796 285.045 175.6C285.045 170.405 291.062 169.366 294.174 171.444C294.174 171.444 300.605 168.535 306.621 169.782C312.845 171.028 313.467 177.263 313.052 180.172C312.43 183.081 309.11 189.524 309.11 190.147C309.11 190.147 304.131 183.289 303.717 180.588C303.717 180.588 296.248 182.874 293.551 179.549Z" fill="#020935"/>
<path d="M287.12 200.953C287.12 200.953 283.593 214.045 278.407 218.825L285.253 217.994C285.253 217.994 288.365 212.798 289.402 202.408C289.194 202.616 288.157 202.2 287.12 200.953Z" fill="#020935"/>
<path d="M313.259 180.172C313.259 180.172 310.563 208.642 323.632 217.994C323.632 217.994 314.089 217.578 311.807 217.37C311.807 217.37 303.094 219.241 305.791 204.278C305.791 204.278 301.642 190.355 308.073 188.485C308.073 188.485 307.036 179.341 313.259 180.172Z" fill="#020935"/>
<path d="M306.414 182.458C306.414 182.458 308.903 180.38 310.77 182.458C312.43 184.328 311.185 189.108 305.584 188.692C305.584 188.692 304.339 185.783 306.414 182.458Z" fill="#EFCCBC"/>
<path d="M29.459 217.994L117.628 212.383V227.969L111.819 228.592V218.825L29.459 220.695V217.994Z" fill="#F2EEEB"/>
<path d="M83.1899 195.342V200.122L107.877 197.42V192.641L83.1899 195.342Z" fill="#EBEDF2"/>
<path d="M173.641 52.3684L147.087 53.6153V76.8901L173.641 75.4354V52.3684Z" fill="#EBEDF2"/>
<path d="M290.232 43.8481H260.565V48.6278H290.232V43.8481Z" fill="#EBEDF2"/>
<path d="M290.232 56.109H260.565V60.8887H290.232V56.109Z" fill="#EBEDF2"/>
<path d="M272.805 14.7546C272.805 18.0796 270.108 20.9889 266.582 20.9889C263.262 20.9889 260.358 18.2874 260.358 14.7546C260.358 11.4296 263.055 8.52026 266.582 8.52026C269.901 8.52026 272.805 11.2218 272.805 14.7546Z" fill="#EBEDF2"/>
<path d="M272.805 31.1717C272.805 34.4967 270.108 37.406 266.582 37.406C263.262 37.406 260.358 34.7045 260.358 31.1717C260.358 27.8467 263.055 24.9374 266.582 24.9374C269.901 25.1452 272.805 27.8467 272.805 31.1717Z" fill="#EBEDF2"/>
<path d="M368.235 126.349L441.675 122.609V34.0811L368.235 37.6138V126.349Z" stroke="#241814" stroke-width="0.5" stroke-miterlimit="10"/>
<path d="M375.289 70.6558L433.792 67.7465" stroke="#241814" stroke-width="0.5" stroke-miterlimit="10"/>
<path d="M433.792 57.7715L375.289 60.6808V48.42L433.792 45.7184V57.7715Z" stroke="#241814" stroke-width="0.5" stroke-miterlimit="10"/>
<path d="M375.289 80.6307L433.792 77.7214" stroke="#241814" stroke-width="0.5" stroke-miterlimit="10"/>
<path d="M375.289 90.3978L433.792 87.6963" stroke="#241814" stroke-width="0.5" stroke-miterlimit="10"/>
<path d="M375.289 100.373L433.792 97.4634" stroke="#241814" stroke-width="0.5" stroke-miterlimit="10"/>
<path d="M375.289 110.348L433.792 107.438" stroke="#241814" stroke-width="0.5" stroke-miterlimit="10"/>
<path d="M502.252 149.001L528.599 145.052" stroke="#241814" stroke-width="0.5" stroke-miterlimit="10"/>
<path d="M461.384 150.247L483.789 146.715" stroke="#241814" stroke-width="0.5" stroke-miterlimit="10"/>
<path d="M503.705 158.144L530.259 153.988" stroke="#241814" stroke-width="0.5" stroke-miterlimit="10"/>
<path d="M463.25 159.183L485.241 155.651" stroke="#241814" stroke-width="0.5" stroke-miterlimit="10"/>
<path d="M290.232 46.1341H318.654" stroke="#241814" stroke-width="0.5" stroke-miterlimit="10"/>
<path d="M290.232 58.3949H318.654" stroke="#241814" stroke-width="0.5" stroke-miterlimit="10"/>
<path d="M212.228 248.75C212.228 226.93 212.228 203.239 212.228 203.031C212.228 188.277 199.573 176.224 183.806 176.224C174.056 176.224 165.343 181.003 160.364 188.069" stroke="#241814" stroke-width="0.5" stroke-miterlimit="10"/>
<path d="M159.949 183.705L160.364 187.861L164.721 187.653" stroke="#241814" stroke-width="0.5" stroke-miterlimit="10"/>
<path d="M84.8499 91.8525L85.2648 87.2807L80.9082 86.6572" stroke="#241814" stroke-width="0.5" stroke-miterlimit="10"/>
<path d="M480.262 91.0212L484.619 91.4369L485.241 87.2806" stroke="#241814" stroke-width="0.5" stroke-miterlimit="10"/>
<path d="M211.813 14.1312L215.132 11.014L212.228 7.89685" stroke="#241814" stroke-width="0.5" stroke-miterlimit="10"/>
<path d="M355.996 14.1312L359.315 11.014L356.411 7.89685" stroke="#241814" stroke-width="0.5" stroke-miterlimit="10"/>
<path d="M412.216 144.221H346.66C342.096 144.221 338.362 147.961 338.362 152.533V171.236V191.81L349.979 179.341H412.216C416.78 179.341 420.515 175.6 420.515 171.029V152.326C420.515 147.961 416.78 144.221 412.216 144.221Z" fill="#00E5FF"/>
<path d="M234.426 159.599C235.228 159.599 235.878 158.948 235.878 158.144C235.878 157.341 235.228 156.69 234.426 156.69C233.624 156.69 232.974 157.341 232.974 158.144C232.974 158.948 233.624 159.599 234.426 159.599Z" stroke="#241814" stroke-width="0.5" stroke-miterlimit="10"/>
<path d="M247.081 158.144C247.081 158.975 246.458 159.599 245.628 159.599C244.799 159.599 244.176 158.975 244.176 158.144C244.176 157.313 244.799 156.69 245.628 156.69C246.251 156.482 247.081 157.313 247.081 158.144Z" stroke="#241814" stroke-width="0.5" stroke-miterlimit="10"/>
<path d="M258.076 158.144C258.076 158.975 257.453 159.599 256.624 159.599C255.794 159.599 255.171 158.975 255.171 158.144C255.171 157.313 255.794 156.69 256.624 156.69C257.453 156.482 258.076 157.313 258.076 158.144Z" stroke="#241814" stroke-width="0.5" stroke-miterlimit="10"/>
<path d="M353.506 158.144H409.519" stroke="#241814" stroke-width="0.5" stroke-miterlimit="10"/>
<path d="M353.506 166.249H409.519" stroke="#241814" stroke-width="0.5" stroke-miterlimit="10"/>
<path d="M504.742 367.41H137.336V372.605H504.742V367.41Z" stroke="#241814" stroke-width="0.5" stroke-miterlimit="10"/>
<path d="M477.15 337.277C477.15 337.277 459.309 332.913 441.053 347.252C426.738 358.682 415.95 376.138 379.646 376.969C379.646 376.969 393.13 411.466 423.419 431C423.419 431 463.458 422.895 482.959 398.166C495.406 382.372 515.322 384.866 515.322 384.866L477.15 337.277Z" fill="white"/>
<path d="M366.161 306.521C366.161 306.521 364.916 299.664 364.294 297.17C364.294 297.17 359.523 311.093 363.257 320.029L366.161 306.521Z" fill="#020935"/>
<path d="M405.785 314.003C405.785 314.003 406.408 317.743 404.541 318.159C404.541 318.159 405.163 307.976 404.955 306.313C404.748 306.521 405.578 310.678 405.785 314.003Z" fill="#020935"/>
<path d="M293.136 240.23C293.824 240.23 294.381 239.671 294.381 238.983C294.381 238.294 293.824 237.736 293.136 237.736C292.449 237.736 291.892 238.294 291.892 238.983C291.892 239.671 292.449 240.23 293.136 240.23Z" fill="#F2EEEB"/>
<path d="M293.136 247.295C293.824 247.295 294.381 246.737 294.381 246.048C294.381 245.36 293.824 244.801 293.136 244.801C292.449 244.801 291.892 245.36 291.892 246.048C291.892 246.737 292.449 247.295 293.136 247.295Z" fill="#F2EEEB"/>
<path d="M59.9551 70.2401C59.9551 70.2401 83.8126 54.0309 87.5468 33.6654C91.4885 13.2999 67.631 41.9778 87.5468 51.9528C96.6749 56.5246 103.728 45.095 103.728 45.095" stroke="#241814" stroke-width="0.5" stroke-miterlimit="10"/>
<path d="M306.206 182.874L305.998 181.835C304.131 182.042 301.642 183.497 300.397 184.328V183.082H293.344V184.536H291.891V183.082H284.838V188.9H291.891V185.575H293.344V188.9H300.397V185.367C301.227 184.952 304.131 183.082 306.206 182.874ZM291.062 188.069H285.875V184.121H291.062V188.069ZM299.36 188.069H294.173V184.121H299.36V188.069Z" fill="#020935"/>
<path d="M289.195 202.616C289.195 202.616 294.381 204.486 298.945 201.161C298.945 201.161 300.19 214.461 286.913 213.838C286.913 213.63 288.987 205.733 289.195 202.616Z" fill="#CEA697"/>
<path d="M450.181 132.376C450.181 132.376 468.229 115.543 465.118 107.231C462.006 98.9181 453.707 120.738 470.097 121.569C486.486 122.193 486.278 100.581 481.092 97.6712C475.905 94.7619 471.964 119.076 489.597 117.413" stroke="#241814" stroke-width="0.5" stroke-miterlimit="10"/>
</g>
<defs>
<clipPath id="clip0_530_3827">
<rect width="562" height="431" fill="white"/>
</clipPath>
</defs>
</svg>
