<svg width="26" height="32" viewBox="0 0 26 32" fill="none" xmlns="http://www.w3.org/2000/svg">
<g clip-path="url(#clip0_530_3689)">
<path d="M13.0002 14C14.1986 14 15.1668 14.8937 15.1668 16V30C15.1668 31.1063 14.1986 32 13.0002 32C11.8017 32 10.8335 31.1063 10.8335 30V16C10.8335 14.8937 11.8017 14 13.0002 14Z" fill="#651FFF"/>
<path opacity="0.4" d="M2.16669 2C2.16669 0.895625 3.13696 0 4.33336 0H21.6667C22.8651 0 23.8334 0.895625 23.8334 2C23.8334 3.10437 22.8651 4 21.6667 4H19.6693L20.4412 13.2625C22.9261 14.5062 24.8828 16.5875 25.824 19.1812L25.8917 19.3687C26.1084 19.975 25.9391 20.65 25.5328 21.1688C25.1808 21.6938 24.5308 22 23.8334 22H15.1667V16C15.1667 14.8938 14.1985 14 12.9391 14C11.8016 14 10.7724 14.8938 10.7724 16V22H2.16669C1.46998 22 0.815914 21.6938 0.408987 21.1688C0.00178208 20.65 -0.10905 19.975 0.111206 19.3687L0.179049 19.1812C1.11518 16.5875 3.07534 14.5062 5.56159 13.2625L6.33347 4H4.33336C3.13696 4 2.16669 3.10437 2.16669 2Z" fill="#651FFF"/>
</g>
<defs>
<clipPath id="clip0_530_3689">
<rect width="26" height="32" fill="white"/>
</clipPath>
</defs>
</svg>
