<svg width="41" height="32" viewBox="0 0 41 32" fill="none" xmlns="http://www.w3.org/2000/svg">
<path d="M16.4062 17.4375L18.9623 19.8813V11.5C18.9623 10.6687 19.6477 10 20.4998 10C21.3518 10 22.0373 10.6687 22.0373 11.5V19.8813L24.5357 17.4375C25.1379 16.8562 26.1116 16.8562 26.6562 17.4375C27.3096 18.025 27.3096 18.975 26.6562 19.5063L21.5312 24.5063C20.9866 25.1438 20.0129 25.1438 19.4107 24.5063L14.2857 19.5063C13.6899 18.975 13.6899 18.025 14.2857 17.4375C14.8879 16.8562 15.8616 16.8562 16.4062 17.4375Z" fill="#651FFF"/>
<path opacity="0.4" d="M9.225 30C4.13011 30 0 25.9688 0 21C0 17.075 2.57339 13.7375 6.16281 12.5063C6.15448 12.3375 6.15 12.1687 6.15 12C6.15 6.475 10.7369 2 16.4 2C20.1989 2 23.5109 4.01562 25.2855 7.0125C26.2592 6.31875 27.438 6 28.7 6C32.0953 6 34.85 8.63125 34.85 12C34.85 12.7625 34.7027 13.4875 34.44 14.1625C38.1812 14.9 41 18.1313 41 22C41 26.4188 37.3292 30 32.8 30H9.225ZM19.4109 24.5063C20.0131 25.1438 20.9869 25.1438 21.5314 24.5063L26.6564 19.5063C27.3098 18.975 27.3098 18.025 26.6564 17.4375C26.1119 16.8562 25.1381 16.8562 24.5359 17.4375L22.0375 19.8813V11.5C22.0375 10.6687 21.352 10 20.5 10C19.648 10 18.9625 10.6687 18.9625 11.5V19.8813L16.4064 17.4375C15.8619 16.8562 14.8881 16.8562 14.2859 17.4375C13.6902 18.025 13.6902 18.975 14.2859 19.5063L19.4109 24.5063Z" fill="#651FFF"/>
</svg>
