<svg width="24" height="24" viewBox="0 0 24 24" fill="none" xmlns="http://www.w3.org/2000/svg">
<path d="M14.3719 8.7375L18.1688 9.28594C18.4547 9.32813 18.6891 9.525 18.7782 9.79688C18.8625 10.0687 18.7922 10.3687 18.586 10.5656L15.8391 13.2469L16.486 17.0297C16.5329 17.3109 16.4204 17.5969 16.186 17.7234C15.9563 17.9344 15.6516 17.9531 15.3985 17.8219L12 16.0359L8.60161 17.8219C8.34848 17.9531 8.04379 17.9344 7.81411 17.7234C7.57973 17.5969 7.46723 17.3109 7.51411 17.0297L8.16098 13.2469L5.41411 10.5656C5.20786 10.3687 5.13754 10.0687 5.22192 9.79688C5.31098 9.525 5.54536 9.32813 5.83129 9.28594L9.62817 8.7375L11.3297 5.29219C11.4516 5.03906 11.7141 4.875 12 4.875C12.286 4.875 12.5485 5.03906 12.6704 5.29219L14.3719 8.7375Z" fill="#651FFF"/>
<path opacity="0.4" d="M1.5 4.5C1.5 2.84297 2.84297 1.5 4.5 1.5H19.5C21.1547 1.5 22.5 2.84297 22.5 4.5V19.5C22.5 21.1547 21.1547 22.5 19.5 22.5H4.5C2.84297 22.5 1.5 21.1547 1.5 19.5V4.5ZM11.3297 5.29219L9.62812 8.7375L5.83125 9.28594C5.54531 9.32813 5.31094 9.525 5.22188 9.79688C5.1375 10.0688 5.20781 10.3687 5.41406 10.5656L8.16094 13.2469L7.51406 17.0297C7.46719 17.3109 7.57969 17.5969 7.81406 17.7234C8.04375 17.9344 8.34844 17.9531 8.60156 17.8219L11.9578 16.0359L15.3984 17.8219C15.6516 17.9531 15.9562 17.9344 16.1859 17.7234C16.4203 17.5969 16.5328 17.3109 16.4859 17.0297L15.8391 13.2469L18.5859 10.5656C18.7922 10.3687 18.8625 10.0688 18.7781 9.79688C18.6891 9.525 18.4547 9.32813 18.1688 9.28594L14.3719 8.7375L12.6703 5.29219C12.5484 5.03906 12.2859 4.875 11.9578 4.875C11.7141 4.875 11.4516 5.03906 11.3297 5.29219Z" fill="#651FFF"/>
</svg>
